Pliska-Medium.ufo
<glyph name="exclam" format="2">
  <advance width="333"/>
  <unicode hex="0021"/>
  <outline>
    <contour>
      <point x="112" y="51.9572" type="curve" smooth="yes"/>
      <point x="112" y="88.3333"/>
      <point x="141.478" y="117.333"/>
      <point x="177" y="117.333" type="curve" smooth="yes"/>
      <point x="212.855" y="117.333"/>
      <point x="241.667" y="87.6667"/>
      <point x="241.667" y="52" type="curve" smooth="yes"/>
      <point x="241.667" y="16.6667"/>
      <point x="213.528" y="-10.3333"/>
      <point x="176.667" y="-10.3333" type="curve" smooth="yes"/>
      <point x="140.138" y="-10.3333"/>
      <point x="112" y="16.6667"/>
    </contour>
    <contour>
      <point x="108.333" y="603.086" type="curve" smooth="yes"/>
      <point x="108.333" y="655.908"/>
      <point x="134.723" y="681"/>
      <point x="176.402" y="681" type="curve" smooth="yes"/>
      <point x="216.53" y="681"/>
      <point x="244.667" y="657.88"/>
      <point x="244.667" y="603" type="curve" smooth="yes"/>
      <point x="244.667" y="548.998"/>
      <point x="236.558" y="493.682"/>
      <point x="224.289" y="429.149" type="curve"/>
      <point x="208.172" y="351.787"/>
      <point x="198.148" y="286.843"/>
      <point x="193.704" y="195.333" type="curve"/>
      <point x="159.289" y="195.333" type="line"/>
      <point x="154.813" y="287.054"/>
      <point x="144.386" y="352.977"/>
      <point x="127.586" y="436.578" type="curve" smooth="yes"/>
      <point x="116.411" y="494.868"/>
      <point x="108.333" y="548.797"/>
    </contour>
  </outline>
</glyph>
<glyph name="quotedbl" format="2">
  <advance width="457"/>
  <unicode hex="0022"/>
  <outline>
    <contour>
      <point x="79" y="630" type="curve" smooth="yes"/>
      <point x="79" y="659.667"/>
      <point x="100.333" y="681"/>
      <point x="129" y="681" type="curve" smooth="yes"/>
      <point x="156.667" y="681"/>
      <point x="178.667" y="659.333"/>
      <point x="178.667" y="632" type="curve" smooth="yes"/>
      <point x="178.667" y="605.333"/>
      <point x="169.333" y="548.333"/>
      <point x="147.333" y="448.667" type="curve"/>
      <point x="129" y="422" type="line"/>
      <point x="124.127" y="429.333"/>
      <point x="113.035" y="435.667"/>
      <point x="111.333" y="438" type="curve"/>
      <point x="93" y="525.667"/>
      <point x="79" y="612.333"/>
    </contour>
    <contour>
      <point x="278.333" y="630" type="curve" smooth="yes"/>
      <point x="278.333" y="659.667"/>
      <point x="299.667" y="681"/>
      <point x="328.333" y="681" type="curve" smooth="yes"/>
      <point x="356" y="681"/>
      <point x="378" y="659.333"/>
      <point x="378" y="632" type="curve" smooth="yes"/>
      <point x="378" y="605.333"/>
      <point x="367.667" y="543.667"/>
      <point x="346.667" y="448.667" type="curve"/>
      <point x="328.333" y="422" type="line"/>
      <point x="323.599" y="429"/>
      <point x="312.005" y="435.667"/>
      <point x="310.667" y="438" type="curve"/>
      <point x="292.333" y="526"/>
      <point x="278.333" y="612.333"/>
    </contour>
  </outline>
</glyph>
<glyph name="ampersand" format="2">
  <advance width="796"/>
  <unicode hex="0026"/>
  <outline>
    <contour>
      <point x="48.6667" y="149.01" type="curve" smooth="yes"/>
      <point x="48.6667" y="259.283"/>
      <point x="134.473" y="321.327"/>
      <point x="244" y="380.667" type="curve"/>
      <point x="212.667" y="453.667"/>
      <point x="203.333" y="485.667"/>
      <point x="203.333" y="520.208" type="curve" smooth="yes"/>
      <point x="203.333" y="615.333"/>
      <point x="273.667" y="681"/>
      <point x="371.924" y="681" type="curve" smooth="yes"/>
      <point x="457.333" y="681"/>
      <point x="516.667" y="631.667"/>
      <point x="516.667" y="557.483" type="curve" smooth="yes"/>
      <point x="516.667" y="476.708"/>
      <point x="446.931" y="433.026"/>
      <point x="362.667" y="397" type="curve"/>
      <point x="410.63" y="311.513"/>
      <point x="444.037" y="259.82"/>
      <point x="501" y="188.333" type="curve"/>
      <point x="563" y="269"/>
      <point x="587" y="316"/>
      <point x="587" y="358.833" type="curve" smooth="yes"/>
      <point x="587" y="387.667"/>
      <point x="575.333" y="396"/>
      <point x="522.333" y="401.667" type="curve"/>
      <point x="522.333" y="423.667" type="line"/>
      <point x="735" y="423.667" type="line"/>
      <point x="735" y="401.667" type="line"/>
      <point x="687.333" y="396.333"/>
      <point x="670" y="386"/>
      <point x="648" y="349" type="curve" smooth="yes"/>
      <point x="621.667" y="303.667" type="line" smooth="yes"/>
      <point x="592" y="253.333"/>
      <point x="571.667" y="223.333"/>
      <point x="524" y="158.667" type="curve"/>
      <point x="573.333" y="94"/>
      <point x="616.333" y="67"/>
      <point x="665.403" y="67" type="curve" smooth="yes"/>
      <point x="698.333" y="67"/>
      <point x="718.667" y="79.3333"/>
      <point x="745.667" y="115" type="curve"/>
      <point x="762.333" y="103.667" type="line"/>
      <point x="721.595" y="22.6343"/>
      <point x="672.584" y="-14"/>
      <point x="606.118" y="-14" type="curve" smooth="yes"/>
      <point x="551" y="-14"/>
      <point x="506.333" y="10.6667"/>
      <point x="444.333" y="76" type="curve"/>
      <point x="367" y="11.6667"/>
      <point x="305" y="-13.6667"/>
      <point x="232.159" y="-13.6667" type="curve" smooth="yes"/>
      <point x="118.333" y="-13.6667"/>
      <point x="48.6667" y="48.6667"/>
    </contour>
    <contour>
      <point x="156.333" y="210.401" type="curve" smooth="yes"/>
      <point x="156.333" y="130.526"/>
      <point x="219.449" y="46.3333"/>
      <point x="298.125" y="46.3333" type="curve" smooth="yes"/>
      <point x="332.667" y="46.3333"/>
      <point x="367.667" y="62"/>
      <point x="420" y="102.667" type="curve"/>
      <point x="360.966" y="176.94"/>
      <point x="318.239" y="242.475"/>
      <point x="259.667" y="348" type="curve"/>
      <point x="183.333" y="300"/>
      <point x="156.333" y="263"/>
    </contour>
    <contour>
      <point x="295" y="573.424" type="curve" smooth="yes"/>
      <point x="295" y="531.667"/>
      <point x="306.667" y="490.258"/>
      <point x="344.333" y="426.258" type="curve"/>
      <point x="415.979" y="463.189"/>
      <point x="447.667" y="502.884"/>
      <point x="447.667" y="548.254" type="curve" smooth="yes"/>
      <point x="447.667" y="605.333"/>
      <point x="410.667" y="648.667"/>
      <point x="363.143" y="648.667" type="curve" smooth="yes"/>
      <point x="322.333" y="648.667"/>
      <point x="295" y="619"/>
    </contour>
  </outline>
</glyph>
<glyph name="quotesingle" format="2">
  <advance width="213"/>
  <unicode hex="0027"/>
  <outline>
    <contour>
      <point x="57" y="630" type="curve" smooth="yes"/>
      <point x="57" y="659.667"/>
      <point x="78.3333" y="681"/>
      <point x="107" y="681" type="curve" smooth="yes"/>
      <point x="134.667" y="681"/>
      <point x="156.667" y="659.333"/>
      <point x="156.667" y="632" type="curve" smooth="yes"/>
      <point x="156.667" y="605.333"/>
      <point x="147" y="547.333"/>
      <point x="125.333" y="448.667" type="curve"/>
      <point x="107" y="422" type="line"/>
      <point x="102.266" y="429"/>
      <point x="90.6715" y="435.667"/>
      <point x="89.3333" y="438" type="curve"/>
      <point x="71" y="525.667"/>
      <point x="57" y="612.333"/>
    </contour>
  </outline>
</glyph>
<glyph name="parenleft" format="2">
  <advance width="333"/>
  <unicode hex="0028"/>
  <outline>
    <contour>
      <point x="47.3333" y="254.333" type="curve" smooth="yes"/>
      <point x="47.3333" y="375.333"/>
      <point x="86" y="481.667"/>
      <point x="161.667" y="570.333" type="curve" smooth="yes"/>
      <point x="199.333" y="614.667"/>
      <point x="228.667" y="639"/>
      <point x="298.667" y="682" type="curve"/>
      <point x="304.667" y="662.333" type="line"/>
      <point x="236.667" y="610.333"/>
      <point x="208.667" y="577.667"/>
      <point x="183" y="521.667" type="curve" smooth="yes"/>
      <point x="155.667" y="460.333"/>
      <point x="142.333" y="372"/>
      <point x="142.333" y="256" type="curve" smooth="yes"/>
      <point x="142.333" y="143.667"/>
      <point x="154.333" y="62.3333"/>
      <point x="180.333" y="-3" type="curve" smooth="yes"/>
      <point x="205.333" y="-68"/>
      <point x="232.333" y="-100"/>
      <point x="304.667" y="-154" type="curve"/>
      <point x="296.667" y="-174" type="line"/>
      <point x="229.333" y="-133"/>
      <point x="197.667" y="-105"/>
      <point x="155" y="-49" type="curve"/>
      <point x="80.3333" y="44.3333"/>
      <point x="47.3333" y="139.333"/>
    </contour>
  </outline>
</glyph>
<glyph name="parenright" format="2">
  <advance width="333"/>
  <unicode hex="0029"/>
  <outline>
    <contour>
      <point x="28.3333" y="-154.333" type="line"/>
      <point x="96.3333" y="-102.333"/>
      <point x="124.667" y="-69.6667"/>
      <point x="150" y="-13" type="curve" smooth="yes"/>
      <point x="177.333" y="47.6667"/>
      <point x="190.667" y="136.667"/>
      <point x="190.667" y="252" type="curve" smooth="yes"/>
      <point x="190.667" y="364"/>
      <point x="178.667" y="445.667"/>
      <point x="152.667" y="511" type="curve" smooth="yes"/>
      <point x="127" y="576"/>
      <point x="100.667" y="607.667"/>
      <point x="28.3333" y="662" type="curve"/>
      <point x="36.3333" y="682" type="line"/>
      <point x="103.667" y="641"/>
      <point x="135.333" y="613"/>
      <point x="178" y="557" type="curve"/>
      <point x="252.667" y="463.667"/>
      <point x="285.667" y="369.333"/>
      <point x="285.667" y="253.333" type="curve" smooth="yes"/>
      <point x="285.667" y="132.667"/>
      <point x="247" y="26.3333"/>
      <point x="171" y="-62.3333" type="curve" smooth="yes"/>
      <point x="133.667" y="-106.667"/>
      <point x="104.333" y="-131"/>
      <point x="34.3333" y="-174" type="curve"/>
    </contour>
  </outline>
</glyph>
<glyph name="asterisk" format="2">
  <advance width="500"/>
  <unicode hex="002A"/>
  <outline>
    <contour>
      <point x="64.6667" y="440.702" type="curve" smooth="yes"/>
      <point x="64.6667" y="468.667"/>
      <point x="82.3333" y="483.333"/>
      <point x="123.051" y="488.667" type="curve" smooth="yes"/>
      <point x="161.667" y="494.667"/>
      <point x="177.333" y="493"/>
      <point x="211.667" y="498.333" type="curve"/>
      <point x="220" y="485.644"/>
      <point x="222" y="485.074"/>
      <point x="234.667" y="478.667" type="curve"/>
      <point x="222.25" y="487.441"/>
      <point x="196.555" y="498.809"/>
      <point x="170.165" y="504.051" type="curve"/>
      <point x="140.333" y="523.667"/>
      <point x="125.667" y="536.667"/>
      <point x="119.373" y="564.176" type="curve" smooth="yes"/>
      <point x="114" y="587.333"/>
      <point x="122.667" y="601.333"/>
      <point x="136.134" y="605.817" type="curve"/>
      <point x="146" y="616.333"/>
      <point x="160.878" y="617.943"/>
      <point x="184.667" y="602.333" type="curve"/>
      <point x="215.554" y="577.932"/>
      <point x="234.667" y="557.667"/>
      <point x="260" y="532.133" type="curve"/>
      <point x="260.18" y="527.846"/>
      <point x="260.124" y="525.229"/>
      <point x="256" y="518" type="curve"/>
      <point x="248.982" y="524.117"/>
      <point x="244.667" y="549.628"/>
      <point x="237.145" y="561.72" type="curve"/>
      <point x="234.483" y="572.152"/>
      <point x="233.683" y="583.452"/>
      <point x="234" y="590.598" type="curve"/>
      <point x="246.333" y="614.333"/>
      <point x="259.221" y="627.515"/>
      <point x="281" y="640" type="curve"/>
      <point x="301.224" y="650.186"/>
      <point x="315.667" y="642.333"/>
      <point x="321.645" y="628.333" type="curve"/>
      <point x="332" y="621"/>
      <point x="337.975" y="602.232"/>
      <point x="332.503" y="576.567" type="curve" smooth="yes"/>
      <point x="323.819" y="537.913"/>
      <point x="306.62" y="519.483"/>
      <point x="295.333" y="489.667" type="curve"/>
      <point x="281.295" y="489.361"/>
      <point x="278.055" y="486.611"/>
      <point x="267.333" y="479.333" type="curve"/>
      <point x="282" y="487.014"/>
      <point x="302" y="503.831"/>
      <point x="318.667" y="523.333" type="curve"/>
      <point x="346.667" y="536.333"/>
      <point x="363" y="543.667"/>
      <point x="389.378" y="542.333" type="curve" smooth="yes"/>
      <point x="420" y="541"/>
      <point x="436.333" y="525.667"/>
      <point x="436.333" y="499.182" type="curve" smooth="yes"/>
      <point x="436.333" y="473.333"/>
      <point x="420.667" y="458.667"/>
      <point x="384.968" y="454.667" type="curve" smooth="yes"/>
      <point x="347.667" y="450"/>
      <point x="329.918" y="451.167"/>
      <point x="287.848" y="446.424" type="curve"/>
      <point x="279.914" y="457.504"/>
      <point x="277" y="458.18"/>
      <point x="267.333" y="462.667" type="curve"/>
      <point x="284.356" y="451.778"/>
      <point x="309.428" y="440.639"/>
      <point x="336.734" y="435.989" type="curve"/>
      <point x="366" y="416.667"/>
      <point x="377.333" y="404.333"/>
      <point x="383.562" y="375.802" type="curve"/>
      <point x="387.667" y="352"/>
      <point x="379.333" y="339"/>
      <point x="365.333" y="335" type="curve"/>
      <point x="353.333" y="325.333"/>
      <point x="334.667" y="325.667"/>
      <point x="308.333" y="346.333" type="curve" smooth="yes"/>
      <point x="280.667" y="368.333"/>
      <point x="257" y="390"/>
      <point x="242.333" y="407.927" type="curve"/>
      <point x="242.168" y="412.501"/>
      <point x="242.253" y="414.812"/>
      <point x="247.504" y="424.299" type="curve"/>
      <point x="252.524" y="405.723"/>
      <point x="257.441" y="384.07"/>
      <point x="266.189" y="376.06" type="curve"/>
      <point x="269.799" y="365.381"/>
      <point x="270.236" y="357.832"/>
      <point x="270" y="352.782" type="curve"/>
      <point x="257.333" y="330.667"/>
      <point x="242.48" y="315.46"/>
      <point x="219.667" y="302.333" type="curve"/>
      <point x="200.145" y="292.124"/>
      <point x="185.333" y="300.333"/>
      <point x="178.962" y="313.667" type="curve"/>
      <point x="169" y="321"/>
      <point x="164.333" y="339.667"/>
      <point x="168.133" y="359.882" type="curve"/>
      <point x="176.206" y="392.987"/>
      <point x="190.004" y="429.266"/>
      <point x="211.389" y="450.202" type="curve"/>
      <point x="222.405" y="450.608"/>
      <point x="224.981" y="453.019"/>
      <point x="235.333" y="460.667" type="curve"/>
      <point x="202.805" y="440.763"/>
      <point x="198.489" y="437.087"/>
      <point x="173.333" y="409" type="curve"/>
      <point x="148.667" y="402.333"/>
      <point x="137.333" y="400.333"/>
      <point x="112.303" y="401.667" type="curve" smooth="yes"/>
      <point x="79.3333" y="403"/>
      <point x="64.6667" y="415.667"/>
    </contour>
  </outline>
</glyph>
<glyph name="period" format="2">
  <advance width="250"/>
  <unicode hex="002E"/>
  <outline>
    <contour>
      <point x="60.3333" y="52.6667" type="curve" smooth="yes"/>
      <point x="60.3333" y="88.3333"/>
      <point x="89.6667" y="118.667"/>
      <point x="125" y="118.667" type="curve" smooth="yes"/>
      <point x="160.667" y="118.667"/>
      <point x="190.667" y="88.3333"/>
      <point x="190.667" y="52" type="curve" smooth="yes"/>
      <point x="190.667" y="17.3333"/>
      <point x="160.667" y="-11.6667"/>
      <point x="124" y="-11.6667" type="curve" smooth="yes"/>
      <point x="89" y="-11.6667"/>
      <point x="60.3333" y="17.3333"/>
    </contour>
  </outline>
</glyph>
<glyph name="one" format="2">
  <advance width="500"/>
  <unicode hex="0031"/>
  <outline>
    <contour>
      <point x="101" y="0" type="line"/>
      <point x="101" y="18" type="line"/>
      <point x="172.667" y="21.3333"/>
      <point x="204" y="26"/>
      <point x="204" y="102" type="curve" smooth="yes"/>
      <point x="204" y="533.667" type="line" smooth="yes"/>
      <point x="204" y="563.333"/>
      <point x="200.333" y="588"/>
      <point x="172.761" y="588" type="curve" smooth="yes"/>
      <point x="152.992" y="588"/>
      <point x="118.686" y="575.415"/>
      <point x="95.6667" y="565" type="curve"/>
      <point x="95.6667" y="583" type="line"/>
      <point x="299.667" y="680" type="line"/>
      <point x="310.667" y="678.667" type="line"/>
      <point x="310.667" y="89.3333" type="line" smooth="yes"/>
      <point x="310.667" y="30.6667"/>
      <point x="329.667" y="20"/>
      <point x="410" y="18" type="curve"/>
      <point x="410" y="0" type="line"/>
    </contour>
  </outline>
</glyph>
<glyph name="two" format="2">
  <advance width="500"/>
  <unicode hex="0032"/>
  <outline>
    <contour>
      <point x="25.6667" y="0" type="line"/>
      <point x="25.6667" y="15.6667" type="line"/>
      <point x="164.127" y="162.608" type="line" smooth="yes"/>
      <point x="274.934" y="280.786"/>
      <point x="325.333" y="373.121"/>
      <point x="325.333" y="450.578" type="curve" smooth="yes"/>
      <point x="325.333" y="532.699"/>
      <point x="269.14" y="591.333"/>
      <point x="194.372" y="591.333" type="curve" smooth="yes"/>
      <point x="132.964" y="591.333"/>
      <point x="86.4142" y="552.021"/>
      <point x="54.3333" y="474.996" type="curve"/>
      <point x="31" y="478.317" type="line"/>
      <point x="62.178" y="603.39"/>
      <point x="141.565" y="680"/>
      <point x="239.961" y="680" type="curve" smooth="yes"/>
      <point x="347.419" y="680"/>
      <point x="428" y="601.768"/>
      <point x="428" y="499.604" type="curve" smooth="yes"/>
      <point x="428" y="427.089"/>
      <point x="386.398" y="346.257"/>
      <point x="304.667" y="263.221" type="curve" smooth="yes"/>
      <point x="138.667" y="95" type="line"/>
      <point x="348.333" y="95" type="line" smooth="yes"/>
      <point x="411.672" y="95"/>
      <point x="427.242" y="105.174"/>
      <point x="459.333" y="164.833" type="curve"/>
      <point x="476" y="161.512" type="line"/>
      <point x="424.333" y="0" type="line"/>
    </contour>
  </outline>
</glyph>
<glyph name="four" format="2">
  <advance width="500"/>
  <unicode hex="0034"/>
  <outline>
    <contour>
      <point x="14.3333" y="159.333" type="line"/>
      <point x="14.3333" y="239.667" type="line"/>
      <point x="328" y="680" type="line"/>
      <point x="384" y="680" type="line"/>
      <point x="384" y="239" type="line"/>
      <point x="473" y="239" type="line"/>
      <point x="473" y="159.333" type="line"/>
      <point x="384" y="159.333" type="line"/>
      <point x="384" y="0" type="line"/>
      <point x="284.333" y="0" type="line"/>
      <point x="284.333" y="159.333" type="line"/>
    </contour>
    <contour>
      <point x="54.6667" y="239" type="line"/>
      <point x="284.333" y="239" type="line"/>
      <point x="284.333" y="561.667" type="line"/>
    </contour>
  </outline>
</glyph>
<glyph name="five" format="2">
  <advance width="500"/>
  <unicode hex="0035"/>
  <outline>
    <contour>
      <point x="28.6667" y="57.3333" type="curve" smooth="yes"/>
      <point x="28.6667" y="73.3333"/>
      <point x="35" y="103.333"/>
      <point x="76" y="103.333" type="curve" smooth="yes"/>
      <point x="141.667" y="103.333"/>
      <point x="178.667" y="33"/>
      <point x="235.667" y="33" type="curve" smooth="yes"/>
      <point x="290.333" y="33"/>
      <point x="361.667" y="77.6667"/>
      <point x="361.667" y="186.333" type="curve" smooth="yes"/>
      <point x="361.667" y="341.554"/>
      <point x="168.029" y="379.957"/>
      <point x="61.8065" y="385" type="curve"/>
      <point x="145.333" y="666.667" type="line"/>
      <point x="424.415" y="666.453" type="line"/>
      <point x="392.333" y="571.667" type="line"/>
      <point x="150.333" y="571.667" type="line"/>
      <point x="127.667" y="488" type="line"/>
      <point x="292.689" y="465.166"/>
      <point x="434.333" y="418.13"/>
      <point x="434.333" y="227.667" type="curve" smooth="yes"/>
      <point x="434.333" y="95.3333"/>
      <point x="326.333" y="-12"/>
      <point x="160.333" y="-12" type="curve" smooth="yes"/>
      <point x="82" y="-12"/>
      <point x="28.6667" y="14.3333"/>
    </contour>
  </outline>
</glyph>
<glyph name="six" format="2">
  <advance width="500"/>
  <unicode hex="0036"/>
  <outline>
    <contour>
      <point x="32" y="288.667" type="curve" smooth="yes"/>
      <point x="32" y="488.801"/>
      <point x="199.273" y="667.21"/>
      <point x="454" y="685.333" type="curve"/>
      <point x="455.333" y="666" type="line"/>
      <point x="319.753" y="643.249"/>
      <point x="199.09" y="548.226"/>
      <point x="169.333" y="390" type="curve"/>
      <point x="201.874" y="413.874"/>
      <point x="235.621" y="425.667"/>
      <point x="283.918" y="425.667" type="curve" smooth="yes"/>
      <point x="384.803" y="425.667"/>
      <point x="470.333" y="357.993"/>
      <point x="470.333" y="218.902" type="curve" smooth="yes"/>
      <point x="470.333" y="109.009"/>
      <point x="396.779" y="-13.6667"/>
      <point x="255" y="-13.6667" type="curve" smooth="yes"/>
      <point x="135.175" y="-13.6667"/>
      <point x="32" y="84.1364"/>
    </contour>
    <contour>
      <point x="146.333" y="261.667" type="curve" smooth="yes"/>
      <point x="146.333" y="97.3944"/>
      <point x="188.14" y="14"/>
      <point x="266.667" y="14" type="curve" smooth="yes"/>
      <point x="332.883" y="14"/>
      <point x="359.667" y="75.5443"/>
      <point x="359.667" y="176.462" type="curve" smooth="yes"/>
      <point x="359.667" y="306.407"/>
      <point x="322.002" y="380"/>
      <point x="241.343" y="380" type="curve" smooth="yes"/>
      <point x="212.096" y="380"/>
      <point x="182.004" y="370.03"/>
      <point x="162.667" y="354.333" type="curve"/>
      <point x="153.043" y="338.941"/>
      <point x="146.333" y="301.345"/>
    </contour>
  </outline>
</glyph>
<glyph name="seven" format="2">
  <advance width="500"/>
  <unicode hex="0037"/>
  <outline>
    <contour>
      <point x="19" y="494.667" type="line"/>
      <point x="73" y="666.667" type="line"/>
      <point x="457.667" y="666.667" type="line"/>
      <point x="457.647" y="654.024" type="line"/>
      <point x="238.667" y="-5.33333" type="line"/>
      <point x="163.667" y="-5.33333" type="line"/>
      <point x="362.333" y="571.667" type="line"/>
      <point x="148.667" y="571.667" type="line" smooth="yes"/>
      <point x="93.6667" y="571.667"/>
      <point x="73.6667" y="556"/>
      <point x="38.6667" y="489.333" type="curve"/>
    </contour>
  </outline>
</glyph>
<glyph name="eight" format="2">
  <advance width="500"/>
  <unicode hex="0038"/>
  <outline>
    <contour>
      <point x="46.6667" y="153.956" type="curve" smooth="yes"/>
      <point x="46.6667" y="225.363"/>
      <point x="77.9385" y="264.2"/>
      <point x="184.362" y="329.333" type="curve"/>
      <point x="82.8638" y="407.73"/>
      <point x="54.3333" y="448.746"/>
      <point x="54.3333" y="516.664" type="curve" smooth="yes"/>
      <point x="54.3333" y="611.65"/>
      <point x="137.926" y="680"/>
      <point x="254.33" y="680" type="curve" smooth="yes"/>
      <point x="361.513" y="680"/>
      <point x="435.333" y="619.69"/>
      <point x="435.333" y="532.216" type="curve" smooth="yes"/>
      <point x="435.333" y="470.898"/>
      <point x="395.731" y="426.99"/>
      <point x="301.062" y="382" type="curve"/>
      <point x="414.545" y="302.11"/>
      <point x="454" y="244.809"/>
      <point x="454" y="168.058" type="curve" smooth="yes"/>
      <point x="454" y="58.0926"/>
      <point x="373.526" y="-13.6667"/>
      <point x="250.281" y="-13.6667" type="curve" smooth="yes"/>
      <point x="129.524" y="-13.6667"/>
      <point x="46.6667" y="54.5621"/>
    </contour>
    <contour>
      <point x="137.667" y="162.808" type="curve" smooth="yes"/>
      <point x="137.667" y="72.5211"/>
      <point x="185.366" y="15.6667"/>
      <point x="255.845" y="15.6667" type="curve" smooth="yes"/>
      <point x="315.926" y="15.6667"/>
      <point x="357" y="61.5113"/>
      <point x="357" y="128" type="curve" smooth="yes"/>
      <point x="357" y="199.643"/>
      <point x="282.722" y="262.345"/>
      <point x="208.871" y="310" type="curve"/>
      <point x="158.363" y="262.292"/>
      <point x="137.667" y="220.906"/>
    </contour>
    <contour>
      <point x="148" y="555.212" type="curve" smooth="yes"/>
      <point x="148" y="501.519"/>
      <point x="190.194" y="448.185"/>
      <point x="272.18" y="397.968" type="curve"/>
      <point x="328.115" y="444.836"/>
      <point x="349" y="481.973"/>
      <point x="349" y="530.649" type="curve" smooth="yes"/>
      <point x="349" y="607.283"/>
      <point x="310.458" y="651.667"/>
      <point x="248.809" y="651.667" type="curve" smooth="yes"/>
      <point x="189.795" y="651.667"/>
      <point x="148" y="612.085"/>
    </contour>
  </outline>
</glyph>
<glyph name="colon" format="2">
  <advance width="296"/>
  <unicode hex="003A"/>
  <outline>
    <contour>
      <point x="81.3333" y="52.6667" type="curve" smooth="yes"/>
      <point x="81.3333" y="88.3333"/>
      <point x="110.667" y="118.667"/>
      <point x="146" y="118.667" type="curve" smooth="yes"/>
      <point x="181.667" y="118.667"/>
      <point x="211.667" y="88.3333"/>
      <point x="211.667" y="52" type="curve" smooth="yes"/>
      <point x="211.667" y="17.3333"/>
      <point x="181.667" y="-11.6667"/>
      <point x="145" y="-11.6667" type="curve" smooth="yes"/>
      <point x="110" y="-11.6667"/>
      <point x="81.3333" y="17.3333"/>
    </contour>
    <contour>
      <point x="81.3333" y="397.667" type="curve" smooth="yes"/>
      <point x="81.3333" y="433.333"/>
      <point x="110.667" y="463.333"/>
      <point x="146" y="463.333" type="curve" smooth="yes"/>
      <point x="181.667" y="463.333"/>
      <point x="211.667" y="433.333"/>
      <point x="211.667" y="397" type="curve" smooth="yes"/>
      <point x="211.667" y="362.333"/>
      <point x="181.667" y="333"/>
      <point x="145.333" y="333" type="curve" smooth="yes"/>
      <point x="110" y="333"/>
      <point x="81.3333" y="362"/>
    </contour>
  </outline>
</glyph>
<glyph name="greater" format="2">
  <advance width="566"/>
  <unicode hex="003E"/>
  <outline>
    <contour>
      <point x="29" y="-10.6667" type="line"/>
      <point x="29" y="69.3333" type="line"/>
      <point x="437.333" y="253" type="line"/>
      <point x="29" y="436.667" type="line"/>
      <point x="29" y="516.667" type="line"/>
      <point x="537" y="289" type="line"/>
      <point x="537" y="217" type="line"/>
    </contour>
  </outline>
</glyph>
<glyph name="A" format="2">
  <advance width="722"/>
  <unicode hex="0041"/>
  <outline>
    <contour>
      <point x="13" y="0" type="line"/>
      <point x="13" y="21" type="line"/>
      <point x="61" y="25.3333"/>
      <point x="74.3333" y="40.3333"/>
      <point x="128.333" y="169.333" type="curve" smooth="yes"/>
      <point x="341" y="679.333" type="line"/>
      <point x="363.667" y="679.333" type="line"/>
      <point x="604" y="125.333" type="line" smooth="yes"/>
      <point x="643.038" y="35.124"/>
      <point x="655.523" y="23"/>
      <point x="700.333" y="21" type="curve"/>
      <point x="700.333" y="0" type="line"/>
      <point x="422.333" y="0" type="line"/>
      <point x="422.333" y="21" type="line"/>
      <point x="474.348" y="21.6667"/>
      <point x="493.776" y="34.5717"/>
      <point x="493.776" y="62.3333" type="curve" smooth="yes"/>
      <point x="493.776" y="75.4258"/>
      <point x="488.219" y="96.9227"/>
      <point x="478.418" y="119.333" type="curve" smooth="yes"/>
      <point x="440.333" y="209.667" type="line"/>
      <point x="190.667" y="209.667" type="line"/>
      <point x="155" y="118.667" type="line" smooth="yes"/>
      <point x="144.667" y="92"/>
      <point x="140" y="74.3333"/>
      <point x="140" y="62" type="curve" smooth="yes"/>
      <point x="140" y="34.6667"/>
      <point x="161" y="22.3333"/>
      <point x="212.667" y="21" type="curve"/>
      <point x="212.667" y="0" type="line"/>
    </contour>
    <contour>
      <point x="207" y="250" type="line"/>
      <point x="426" y="250" type="line"/>
      <point x="315" y="514.333" type="line"/>
    </contour>
  </outline>
</glyph>
<glyph name="D" format="2">
  <advance width="720"/>
  <unicode hex="0044"/>
  <outline>
    <contour>
      <point x="16" y="0" type="line"/>
      <point x="16" y="21" type="line"/>
      <point x="83.3333" y="21.6667"/>
      <point x="102.333" y="41"/>
      <point x="102.333" y="103" type="curve" smooth="yes"/>
      <point x="102.333" y="563.333" type="line" smooth="yes"/>
      <point x="102.333" y="628"/>
      <point x="86.6667" y="641"/>
      <point x="16" y="645.667" type="curve"/>
      <point x="16" y="666.667" type="line"/>
      <point x="297.667" y="666.667" type="line" smooth="yes"/>
      <point x="520" y="666.667"/>
      <point x="687.333" y="563.667"/>
      <point x="687.333" y="339.134" type="curve" smooth="yes"/>
      <point x="687.333" y="116"/>
      <point x="521.333" y="0"/>
      <point x="310.667" y="0" type="curve" smooth="yes"/>
    </contour>
    <contour>
      <point x="223" y="83" type="line" smooth="yes"/>
      <point x="223" y="41.3333"/>
      <point x="242.667" y="36.3333"/>
      <point x="279.667" y="36.3333" type="curve" smooth="yes"/>
      <point x="462.266" y="36.3333"/>
      <point x="555.333" y="146.302"/>
      <point x="555.333" y="324.35" type="curve" smooth="yes"/>
      <point x="555.333" y="507.058"/>
      <point x="455.885" y="630.667"/>
      <point x="274" y="630.667" type="curve" smooth="yes"/>
      <point x="239" y="630.667"/>
      <point x="223" y="622.667"/>
      <point x="223" y="593" type="curve" smooth="yes"/>
    </contour>
  </outline>
</glyph>
<glyph name="G" format="2">
  <advance width="741"/>
  <unicode hex="0047"/>
  <outline>
    <contour>
      <point x="33.6667" y="327" type="curve" smooth="yes"/>
      <point x="33.6667" y="531.667"/>
      <point x="178.667" y="681"/>
      <point x="378.333" y="681" type="curve" smooth="yes"/>
      <point x="461" y="681"/>
      <point x="512.333" y="655.333"/>
      <point x="555.333" y="647.333" type="curve"/>
      <point x="576.667" y="644"/>
      <point x="593.667" y="652"/>
      <point x="600.667" y="664.667" type="curve"/>
      <point x="609.05" y="664.667"/>
      <point x="621.265" y="668.333"/>
      <point x="630" y="680" type="curve"/>
      <point x="639" y="539.333" type="line"/>
      <point x="623.667" y="461.333" type="line"/>
      <point x="604.998" y="502"/>
      <point x="589.246" y="520"/>
      <point x="568" y="538.667" type="curve"/>
      <point x="530.333" y="588"/>
      <point x="490" y="612"/>
      <point x="438.333" y="624.667" type="curve"/>
      <point x="378.333" y="637.333"/>
      <point x="322.667" y="625.333"/>
      <point x="278" y="592.667" type="curve"/>
      <point x="208.333" y="560"/>
      <point x="168.667" y="462.333"/>
      <point x="168.667" y="330" type="curve" smooth="yes"/>
      <point x="168.667" y="166"/>
      <point x="242.333" y="61.3333"/>
      <point x="365.667" y="42.6667" type="curve"/>
      <point x="424.667" y="28.3333"/>
      <point x="479.333" y="40"/>
      <point x="500.333" y="61.3333" type="curve"/>
      <point x="522.667" y="87.6458"/>
      <point x="532.333" y="156.638"/>
      <point x="532.333" y="193.667" type="curve" smooth="yes"/>
      <point x="532.333" y="254.233"/>
      <point x="522.333" y="275.893"/>
      <point x="473.667" y="288" type="curve"/>
      <point x="473.667" y="308.301"/>
      <point x="468.667" y="317.996"/>
      <point x="440" y="323.333" type="curve"/>
      <point x="610" y="331.667" type="line"/>
      <point x="724.333" y="319.667" type="line"/>
      <point x="685.667" y="314.303"/>
      <point x="677.667" y="301.391"/>
      <point x="677.667" y="260" type="curve"/>
      <point x="652.667" y="222.091"/>
      <point x="649" y="151.642"/>
      <point x="649" y="94" type="curve"/>
      <point x="622.333" y="66.4176"/>
      <point x="539" y="11.8752"/>
      <point x="481.667" y="5" type="curve" smooth="yes"/>
      <point x="387" y="-7.66667"/>
      <point x="286.667" y="9.66667"/>
      <point x="207.667" y="55.6667" type="curve"/>
      <point x="100.333" y="95"/>
      <point x="33.6667" y="193"/>
    </contour>
  </outline>
</glyph>
<glyph name="K" format="2">
  <advance width="721"/>
  <unicode hex="004B"/>
  <outline>
    <contour>
      <point x="13.3333" y="0" type="line"/>
      <point x="13.3333" y="21" type="line"/>
      <point x="90" y="27"/>
      <point x="102.333" y="39.6667"/>
      <point x="102.333" y="112" type="curve" smooth="yes"/>
      <point x="102.333" y="562" type="line" smooth="yes"/>
      <point x="102.333" y="626.667"/>
      <point x="88.3333" y="640.333"/>
      <point x="13.3333" y="645.667" type="curve"/>
      <point x="13.3333" y="666.667" type="line"/>
      <point x="315.333" y="666.667" type="line"/>
      <point x="315.333" y="645.667" type="line"/>
      <point x="236.667" y="640"/>
      <point x="224.333" y="627.333"/>
      <point x="224.333" y="555" type="curve" smooth="yes"/>
      <point x="224.333" y="347" type="line"/>
      <point x="414.667" y="527" type="line" smooth="yes"/>
      <point x="461.667" y="571.333"/>
      <point x="478.667" y="594"/>
      <point x="478.667" y="614" type="curve" smooth="yes"/>
      <point x="478.667" y="634"/>
      <point x="466.396" y="645.667"/>
      <point x="434.333" y="645.667" type="curve" smooth="yes"/>
      <point x="405" y="645.667" type="line"/>
      <point x="405" y="666.667" type="line"/>
      <point x="676" y="666.667" type="line"/>
      <point x="676" y="645.667" type="line"/>
      <point x="602.731" y="640.029"/>
      <point x="578.64" y="628.829"/>
      <point x="490.604" y="541.388" type="curve" smooth="yes"/>
      <point x="341" y="392.667" type="line"/>
      <point x="598" y="100" type="line"/>
      <point x="662.822" y="30.1841"/>
      <point x="676" y="22.6667"/>
      <point x="719" y="21" type="curve"/>
      <point x="719" y="0" type="line"/>
      <point x="403.667" y="0" type="line"/>
      <point x="403.667" y="21" type="line"/>
      <point x="433" y="21" type="line" smooth="yes"/>
      <point x="462.699" y="21"/>
      <point x="476.667" y="29.6667"/>
      <point x="476.667" y="43.3333" type="curve" smooth="yes"/>
      <point x="476.667" y="63"/>
      <point x="439" y="113.333"/>
      <point x="382" y="171.333" type="curve"/>
      <point x="250.667" y="317" type="line"/>
      <point x="224.333" y="294.667" type="line"/>
      <point x="224.333" y="104.667" type="line" smooth="yes"/>
      <point x="224.333" y="39.6667"/>
      <point x="237.667" y="27.3333"/>
      <point x="313.667" y="21" type="curve"/>
      <point x="313.667" y="0" type="line"/>
    </contour>
  </outline>
</glyph>
<glyph name="L" format="2">
  <advance width="629"/>
  <unicode hex="004C"/>
  <outline>
    <contour>
      <point x="13.3333" y="0" type="line"/>
      <point x="13.3333" y="21" type="line"/>
      <point x="86.3333" y="27.3333"/>
      <point x="100" y="41"/>
      <point x="100" y="104.667" type="curve" smooth="yes"/>
      <point x="100" y="562" type="line" smooth="yes"/>
      <point x="100" y="625.667"/>
      <point x="85.3333" y="640.333"/>
      <point x="13.3333" y="645.667" type="curve"/>
      <point x="13.3333" y="666.667" type="line"/>
      <point x="317.667" y="666.667" type="line"/>
      <point x="317.667" y="645.667" type="line"/>
      <point x="236" y="641"/>
      <point x="222" y="627.333"/>
      <point x="222" y="555" type="curve" smooth="yes"/>
      <point x="222" y="82.3333" type="line" smooth="yes"/>
      <point x="222" y="44.6667"/>
      <point x="236.667" y="36.3333"/>
      <point x="305.667" y="36.3333" type="curve" smooth="yes"/>
      <point x="356.464" y="36.3333" type="line" smooth="yes"/>
      <point x="480.777" y="36.3333"/>
      <point x="530.515" y="69.2723"/>
      <point x="584" y="191.667" type="curve"/>
      <point x="610.333" y="191.667" type="line"/>
      <point x="564.667" y="0" type="line"/>
    </contour>
  </outline>
</glyph>
<glyph name="M" format="2">
  <advance width="903"/>
  <unicode hex="004D"/>
  <outline>
    <contour>
      <point x="13.3333" y="0" type="line"/>
      <point x="13.3333" y="21" type="line"/>
      <point x="94.6667" y="27.6667"/>
      <point x="108.333" y="44.3333"/>
      <point x="108.333" y="133" type="curve" smooth="yes"/>
      <point x="108.333" y="562" type="line" smooth="yes"/>
      <point x="108.333" y="628"/>
      <point x="94.3333" y="640.333"/>
      <point x="15.3333" y="645.667" type="curve"/>
      <point x="15.3333" y="666.667" type="line"/>
      <point x="231.667" y="666.667" type="line"/>
      <point x="452.333" y="172.667" type="line"/>
      <point x="666.333" y="666.667" type="line"/>
      <point x="883" y="666.667" type="line"/>
      <point x="883" y="645.667" type="line"/>
      <point x="809.333" y="640"/>
      <point x="795.667" y="626.333"/>
      <point x="795.667" y="555" type="curve" smooth="yes"/>
      <point x="795.667" y="111.667" type="line" smooth="yes"/>
      <point x="795.667" y="40.6667"/>
      <point x="808.333" y="27.6667"/>
      <point x="883" y="21" type="curve"/>
      <point x="883" y="0" type="line"/>
      <point x="585.667" y="0" type="line"/>
      <point x="585.667" y="21" type="line"/>
      <point x="663.333" y="26.6667"/>
      <point x="676" y="39.3333"/>
      <point x="676" y="113.333" type="curve" smooth="yes"/>
      <point x="676" y="585" type="line"/>
      <point x="421.333" y="0" type="line"/>
      <point x="403" y="0" type="line"/>
      <point x="151.667" y="564.667" type="line"/>
      <point x="151.667" y="139.333" type="line" smooth="yes"/>
      <point x="151.667" y="47.3333"/>
      <point x="169.333" y="25.6667"/>
      <point x="248" y="21" type="curve"/>
      <point x="248" y="0" type="line"/>
    </contour>
  </outline>
</glyph>
<glyph name="N" format="2">
  <advance width="722"/>
  <unicode hex="004E"/>
  <outline>
    <contour>
      <point x="13.3333" y="0" type="line"/>
      <point x="13.3333" y="21" type="line"/>
      <point x="93" y="28"/>
      <point x="107.333" y="45.3333"/>
      <point x="107.333" y="133" type="curve" smooth="yes"/>
      <point x="107.333" y="585" type="line"/>
      <point x="64.6667" y="635.333"/>
      <point x="49.6667" y="645.667"/>
      <point x="14.3333" y="645.667" type="curve"/>
      <point x="14.3333" y="666.667" type="line"/>
      <point x="198.667" y="666.667" type="line"/>
      <point x="571.667" y="201" type="line"/>
      <point x="571.667" y="527.333" type="line" smooth="yes"/>
      <point x="571.667" y="611.731"/>
      <point x="561.033" y="638.62"/>
      <point x="476.667" y="645.667" type="curve"/>
      <point x="476.667" y="666.667" type="line"/>
      <point x="705" y="666.667" type="line"/>
      <point x="705" y="645.667" type="line"/>
      <point x="625.414" y="636.237"/>
      <point x="615.667" y="612.193"/>
      <point x="615.667" y="533.667" type="curve" smooth="yes"/>
      <point x="615.667" y="-13.3333" type="line"/>
      <point x="595" y="-13.3333" type="line"/>
      <point x="151.333" y="534.667" type="line"/>
      <point x="151.333" y="139.333" type="line" smooth="yes"/>
      <point x="151.333" y="48.3333"/>
      <point x="168.667" y="26.6667"/>
      <point x="245.667" y="21" type="curve"/>
      <point x="245.667" y="0" type="line"/>
    </contour>
  </outline>
</glyph>
<glyph name="P" format="2">
  <advance width="572"/>
  <unicode hex="0050"/>
  <outline>
    <contour>
      <point x="13.3333" y="0" type="line"/>
      <point x="13.3333" y="21" type="line"/>
      <point x="85.4853" y="29.5731"/>
      <point x="97.3333" y="39.2748"/>
      <point x="97.3333" y="112.333" type="curve" smooth="yes"/>
      <point x="97.3333" y="555" type="line" smooth="yes"/>
      <point x="97.3333" y="626.333"/>
      <point x="86" y="638.333"/>
      <point x="13.3333" y="645.667" type="curve"/>
      <point x="13.3333" y="666.667" type="line"/>
      <point x="296.667" y="666.667" type="line" smooth="yes"/>
      <point x="457.065" y="666.667"/>
      <point x="558.667" y="593.468"/>
      <point x="558.667" y="478.063" type="curve" smooth="yes"/>
      <point x="558.667" y="363.913"/>
      <point x="456.745" y="295.305"/>
      <point x="281.962" y="295.27" type="curve" smooth="yes"/>
      <point x="255.09" y="295.265"/>
      <point x="214.662" y="298.399"/>
      <point x="189.333" y="301.667" type="curve"/>
      <point x="189.333" y="340" type="line"/>
      <point x="210.047" y="336.884"/>
      <point x="244.497" y="333.96"/>
      <point x="269.169" y="333.957" type="curve" smooth="yes"/>
      <point x="375.375" y="333.938"/>
      <point x="428.667" y="382.522"/>
      <point x="428.667" y="479.667" type="curve" smooth="yes"/>
      <point x="428.667" y="587.692"/>
      <point x="385.796" y="630.135"/>
      <point x="276.012" y="630.316" type="curve"/>
      <point x="258.667" y="630.333" type="line" smooth="yes"/>
      <point x="229.667" y="630.392"/>
      <point x="219.333" y="621.667"/>
      <point x="219.333" y="596" type="curve" smooth="yes"/>
      <point x="219.333" y="112.333" type="line" smooth="yes"/>
      <point x="219.333" y="39.3333"/>
      <point x="232.333" y="26.3333"/>
      <point x="311.333" y="21" type="curve"/>
      <point x="311.333" y="0" type="line"/>
    </contour>
  </outline>
</glyph>
<glyph name="S" format="2">
  <advance width="556"/>
  <unicode hex="0053"/>
  <outline>
    <contour>
      <point x="39.6667" y="-15" type="line"/>
      <point x="39.6667" y="208.667" type="line"/>
      <point x="64.6667" y="208.667" type="line"/>
      <point x="97.965" y="111.791"/>
      <point x="152.757" y="19.3333"/>
      <point x="262.748" y="19.3333" type="curve" smooth="yes"/>
      <point x="338.333" y="19.3333"/>
      <point x="391.333" y="63"/>
      <point x="391.333" y="133.513" type="curve" smooth="yes"/>
      <point x="391.333" y="199.299"/>
      <point x="342.816" y="235.482"/>
      <point x="267.819" y="275.891" type="curve" smooth="yes"/>
      <point x="232.249" y="294.137" type="line" smooth="yes"/>
      <point x="137.214" y="344.689"/>
      <point x="62" y="402.006"/>
      <point x="62" y="504.27" type="curve" smooth="yes"/>
      <point x="62" y="612"/>
      <point x="143" y="681"/>
      <point x="251.096" y="681" type="curve" smooth="yes"/>
      <point x="312.659" y="681"/>
      <point x="345.758" y="669.064"/>
      <point x="370.706" y="658.852" type="curve" smooth="yes"/>
      <point x="387.939" y="651.847"/>
      <point x="401.16" y="647.333"/>
      <point x="414.12" y="647.333" type="curve" smooth="yes"/>
      <point x="435" y="647.333"/>
      <point x="447" y="660"/>
      <point x="450" y="681.333" type="curve"/>
      <point x="474" y="681.333" type="line"/>
      <point x="474" y="467" type="line"/>
      <point x="448" y="467" type="line"/>
      <point x="425.955" y="558.146"/>
      <point x="360.408" y="643.333"/>
      <point x="263.394" y="643.333" type="curve" smooth="yes"/>
      <point x="200.333" y="643.333"/>
      <point x="155.667" y="607.333"/>
      <point x="155.667" y="548.12" type="curve" smooth="yes"/>
      <point x="155.667" y="485.506"/>
      <point x="210.498" y="449.451"/>
      <point x="288.619" y="406.281" type="curve"/>
      <point x="348.018" y="375.863" type="line"/>
      <point x="425.779" y="332.03"/>
      <point x="498.333" y="269.614"/>
      <point x="498.333" y="173.256" type="curve" smooth="yes"/>
      <point x="498.333" y="56.6667"/>
      <point x="395.667" y="-15"/>
      <point x="278.375" y="-15" type="curve" smooth="yes"/>
      <point x="220.168" y="-15"/>
      <point x="186.414" y="-5.28059"/>
      <point x="150.276" y="6.96943" type="curve" smooth="yes"/>
      <point x="130.168" y="13.8253"/>
      <point x="114.366" y="19"/>
      <point x="98.6823" y="19" type="curve" smooth="yes"/>
      <point x="73.8205" y="19"/>
      <point x="66" y="6.6033"/>
      <point x="64" y="-15" type="curve"/>
    </contour>
  </outline>
</glyph>
<glyph name="T" format="2">
  <advance width="630"/>
  <unicode hex="0054"/>
  <outline>
    <contour>
      <point x="21.6667" y="486.333" type="line"/>
      <point x="21.6667" y="666.667" type="line"/>
      <point x="607.333" y="666.667" type="line"/>
      <point x="607.333" y="486.333" type="line"/>
      <point x="581.667" y="486.333" type="line"/>
      <point x="560.667" y="599.333"/>
      <point x="535.326" y="628.443"/>
      <point x="418.333" y="628" type="curve"/>
      <point x="375.667" y="627.928" type="line"/>
      <point x="375.667" y="111.667" type="line" smooth="yes"/>
      <point x="375.667" y="37.6667"/>
      <point x="388.667" y="25.6667"/>
      <point x="472.333" y="21" type="curve"/>
      <point x="472.333" y="0" type="line"/>
      <point x="158.667" y="0" type="line"/>
      <point x="158.667" y="21" type="line"/>
      <point x="242.667" y="26.6667"/>
      <point x="253.667" y="37.6667"/>
      <point x="253.667" y="119" type="curve" smooth="yes"/>
      <point x="253.667" y="627.928" type="line"/>
      <point x="211" y="628" type="line"/>
      <point x="95.0072" y="628.445"/>
      <point x="69" y="598.667"/>
      <point x="47.3333" y="486.333" type="curve"/>
    </contour>
  </outline>
</glyph>
<glyph name="X" format="2">
  <advance width="722"/>
  <unicode hex="0058"/>
  <outline>
    <contour>
      <point x="12" y="0" type="line"/>
      <point x="12" y="21" type="line"/>
      <point x="62.6667" y="25.6667"/>
      <point x="75.3333" y="32"/>
      <point x="143.333" y="115.667" type="curve" smooth="yes"/>
      <point x="306.333" y="318" type="line"/>
      <point x="132.428" y="571.488" type="line" smooth="yes"/>
      <point x="98.0671" y="621.333"/>
      <point x="75.6667" y="642.667"/>
      <point x="20.3333" y="645.667" type="curve"/>
      <point x="20.3333" y="666.667" type="line"/>
      <point x="337" y="666.667" type="line"/>
      <point x="337" y="645.667" type="line"/>
      <point x="290.834" y="642.713"/>
      <point x="260" y="639.769"/>
      <point x="260" y="612.668" type="curve" smooth="yes"/>
      <point x="260" y="600.723"/>
      <point x="265.503" y="586.344"/>
      <point x="279.69" y="565.275" type="curve" smooth="yes"/>
      <point x="382" y="413" type="line"/>
      <point x="491.699" y="550.573" type="line"/>
      <point x="513.566" y="579.528"/>
      <point x="522" y="595"/>
      <point x="522" y="610.607" type="curve" smooth="yes"/>
      <point x="522" y="637.146"/>
      <point x="496.693" y="643.293"/>
      <point x="451.333" y="645.667" type="curve"/>
      <point x="451.333" y="666.667" type="line"/>
      <point x="693.333" y="666.667" type="line"/>
      <point x="693.333" y="645.667" type="line"/>
      <point x="628.54" y="640.209"/>
      <point x="598.726" y="619.372"/>
      <point x="556.517" y="563.55" type="curve"/>
      <point x="407.333" y="376" type="line"/>
      <point x="596" y="99" type="line" smooth="yes"/>
      <point x="639.333" y="35.6667"/>
      <point x="655.362" y="26.7932"/>
      <point x="702.333" y="21" type="curve"/>
      <point x="702.333" y="0" type="line"/>
      <point x="391" y="0" type="line"/>
      <point x="391" y="21" type="line"/>
      <point x="429.607" y="23.4574"/>
      <point x="469" y="33.7883"/>
      <point x="469" y="53.2859" type="curve" smooth="yes"/>
      <point x="469" y="65.3333"/>
      <point x="454" y="96"/>
      <point x="428" y="135" type="curve" smooth="yes"/>
      <point x="331" y="282.333" type="line"/>
      <point x="239" y="166.667" type="line"/>
      <point x="189.667" y="102.667"/>
      <point x="173" y="75.3333"/>
      <point x="173" y="55.4103" type="curve" smooth="yes"/>
      <point x="173" y="34.3333"/>
      <point x="191.667" y="25.6667"/>
      <point x="250.667" y="21" type="curve"/>
      <point x="250.667" y="0" type="line"/>
    </contour>
  </outline>
</glyph>
<glyph name="Y" format="2">
  <advance width="722"/>
  <unicode hex="0059"/>
  <outline>
    <contour>
      <point x="19.6667" y="645.667" type="curve"/>
      <point x="19.6667" y="666.667" type="line"/>
      <point x="318" y="666.667" type="line"/>
      <point x="318" y="645.667" type="line"/>
      <point x="308.828" y="644.926"/>
      <point x="296.332" y="644.693"/>
      <point x="293" y="644.667" type="curve"/>
      <point x="258" y="643.333"/>
      <point x="243.667" y="634.667"/>
      <point x="243.667" y="615.333" type="curve" smooth="yes"/>
      <point x="243.667" y="604.333"/>
      <point x="249" y="589.333"/>
      <point x="261" y="570.333" type="curve" smooth="yes"/>
      <point x="401.667" y="341" type="line"/>
      <point x="534" y="553.333" type="line" smooth="yes"/>
      <point x="548.333" y="577"/>
      <point x="556.333" y="596.667"/>
      <point x="556.333" y="609.667" type="curve" smooth="yes"/>
      <point x="556.333" y="635.333"/>
      <point x="539.333" y="643.333"/>
      <point x="482.333" y="645.667" type="curve"/>
      <point x="482.333" y="666.667" type="line"/>
      <point x="701.667" y="666.667" type="line"/>
      <point x="701.667" y="645.667" type="line"/>
      <point x="656.333" y="641.333"/>
      <point x="631.333" y="624.333"/>
      <point x="587" y="556.667" type="curve"/>
      <point x="424.667" y="302.333" type="line"/>
      <point x="424.667" y="111.667" type="line" smooth="yes"/>
      <point x="424.667" y="36.3333"/>
      <point x="437.333" y="25"/>
      <point x="524" y="21" type="curve"/>
      <point x="524" y="0" type="line"/>
      <point x="204.333" y="0" type="line"/>
      <point x="204.333" y="21" type="line"/>
      <point x="292.333" y="26.3333"/>
      <point x="302.667" y="36.6667"/>
      <point x="302.667" y="119" type="curve" smooth="yes"/>
      <point x="302.667" y="284" type="line"/>
      <point x="154.333" y="522.667" type="line"/>
      <point x="83" y="629.333"/>
      <point x="63" y="643.667"/>
    </contour>
  </outline>
</glyph>
<glyph name="backslash" format="2">
  <advance width="278"/>
  <unicode hex="005C"/>
  <outline>
    <contour>
      <point x="-14.3333" y="681" type="line"/>
      <point x="61.3333" y="681" type="line"/>
      <point x="292.333" y="-15.6667" type="line"/>
      <point x="216.333" y="-15.6667" type="line"/>
    </contour>
  </outline>
</glyph>
<glyph name="bracketright" format="2">
  <advance width="333"/>
  <unicode hex="005D"/>
  <outline>
    <contour>
      <point x="33.3333" y="-126" type="line"/>
      <point x="120" y="-126" type="line" smooth="yes"/>
      <point x="154.667" y="-126"/>
      <point x="166.667" y="-114.333"/>
      <point x="166.667" y="-79" type="curve" smooth="yes"/>
      <point x="166.667" y="581.667" type="line" smooth="yes"/>
      <point x="166.667" y="624.333"/>
      <point x="152.333" y="639.667"/>
      <point x="111.667" y="639.667" type="curve" smooth="yes"/>
      <point x="33.3333" y="639.667" type="line"/>
      <point x="33.3333" y="667.333" type="line"/>
      <point x="252" y="667.333" type="line"/>
      <point x="252" y="-153.667" type="line"/>
      <point x="33.3333" y="-153.667" type="line"/>
    </contour>
  </outline>
</glyph>
<glyph name="asciicircum" format="2">
  <advance width="506"/>
  <unicode hex="005E"/>
  <outline>
    <contour>
      <point x="40.3333" y="301.667" type="line"/>
      <point x="220.333" y="666.667" type="line"/>
      <point x="287" y="666.667" type="line"/>
      <point x="467" y="301.667" type="line"/>
      <point x="392" y="301.667" type="line"/>
      <point x="253.667" y="585" type="line"/>
      <point x="115.333" y="301.667" type="line"/>
    </contour>
  </outline>
</glyph>
<glyph name="b" format="2">
  <advance width="519"/>
  <unicode hex="0062"/>
  <outline>
    <contour>
      <point x="70" y="-11" type="line"/>
      <point x="70" y="609.333" type="line" smooth="yes"/>
      <point x="70" y="640.757"/>
      <point x="51.7424" y="655.902"/>
      <point x="7.66667" y="662" type="curve"/>
      <point x="7.66667" y="680.667" type="line"/>
      <point x="172.333" y="680.667" type="line"/>
      <point x="172.333" y="389" type="line"/>
      <point x="198" y="434.667"/>
      <point x="249" y="464.333"/>
      <point x="305.667" y="464.333" type="curve" smooth="yes"/>
      <point x="409.333" y="464.333"/>
      <point x="485.667" y="369.667"/>
      <point x="485.667" y="242.089" type="curve" smooth="yes"/>
      <point x="485.667" y="96.6667"/>
      <point x="386.667" y="-11.3333"/>
      <point x="254.852" y="-11.3333" type="curve" smooth="yes"/>
      <point x="209.716" y="-11.3333"/>
      <point x="170.742" y="7.42241"/>
      <point x="142.108" y="34.6444" type="curve"/>
      <point x="80.9408" y="-11.2443" type="line"/>
    </contour>
    <contour>
      <point x="172.333" y="79" type="line" smooth="yes"/>
      <point x="172.333" y="46.3333"/>
      <point x="211.333" y="20.6667"/>
      <point x="259.249" y="20.6667" type="curve" smooth="yes"/>
      <point x="336" y="20.6667"/>
      <point x="378" y="85"/>
      <point x="378" y="206.34" type="curve" smooth="yes"/>
      <point x="378" y="330"/>
      <point x="334.333" y="404.333"/>
      <point x="261.062" y="404.333" type="curve" smooth="yes"/>
      <point x="216" y="404.333"/>
      <point x="178" y="375"/>
      <point x="172.333" y="334.667" type="curve"/>
    </contour>
  </outline>
</glyph>
<glyph name="c" format="2">
  <advance width="444"/>
  <unicode hex="0063"/>
  <outline>
    <contour>
      <point x="24.6667" y="216" type="curve" smooth="yes"/>
      <point x="24.6667" y="366.667"/>
      <point x="130" y="464"/>
      <point x="249.333" y="464" type="curve" smooth="yes"/>
      <point x="334.667" y="464"/>
      <point x="403.667" y="416.667"/>
      <point x="403.667" y="358.667" type="curve" smooth="yes"/>
      <point x="403.667" y="332.333"/>
      <point x="383.667" y="310"/>
      <point x="352.333" y="310" type="curve" smooth="yes"/>
      <point x="326" y="310"/>
      <point x="304.333" y="331.333"/>
      <point x="299" y="364.667" type="curve"/>
      <point x="297.453" y="384.34"/>
      <point x="294.713" y="392.609"/>
      <point x="292.667" y="397" type="curve"/>
      <point x="284" y="425.333"/>
      <point x="271.333" y="434.667"/>
      <point x="242" y="434.667" type="curve" smooth="yes"/>
      <point x="170.667" y="434.667"/>
      <point x="123.333" y="366.333"/>
      <point x="123.333" y="263.333" type="curve" smooth="yes"/>
      <point x="123.333" y="141.333"/>
      <point x="184.333" y="59"/>
      <point x="274" y="59" type="curve" smooth="yes"/>
      <point x="325.667" y="59"/>
      <point x="358.333" y="79.6667"/>
      <point x="402.667" y="140.333" type="curve"/>
      <point x="417.667" y="128" type="line"/>
      <point x="384.333" y="76"/>
      <point x="330.333" y="-11.6667"/>
      <point x="222.667" y="-11.6667" type="curve" smooth="yes"/>
      <point x="107.333" y="-11.6667"/>
      <point x="24.6667" y="83.3333"/>
    </contour>
  </outline>
</glyph>
<glyph name="e" format="2">
  <advance width="444"/>
  <unicode hex="0065"/>
  <outline>
    <contour>
      <point x="25" y="217.538" type="curve" smooth="yes"/>
      <point x="25" y="366.667"/>
      <point x="111.667" y="464.333"/>
      <point x="236.132" y="464.333" type="curve" smooth="yes"/>
      <point x="357.928" y="464.333"/>
      <point x="399.173" y="373.518"/>
      <point x="410.333" y="266.333" type="curve"/>
      <point x="121" y="266.333" type="line"/>
      <point x="122.459" y="176.602"/>
      <point x="151.408" y="58.6667"/>
      <point x="266.992" y="58.6667" type="curve" smooth="yes"/>
      <point x="321.667" y="58.6667"/>
      <point x="360.667" y="84"/>
      <point x="406" y="151" type="curve"/>
      <point x="424.667" y="141.667" type="line"/>
      <point x="375" y="38.6667"/>
      <point x="308.667" y="-11.3333"/>
      <point x="218.333" y="-11.3333" type="curve" smooth="yes"/>
      <point x="100.333" y="-11.3333"/>
      <point x="25" y="78"/>
    </contour>
    <contour>
      <point x="120.667" y="300" type="curve"/>
      <point x="301.333" y="300" type="line"/>
      <point x="301.027" y="315" type="line" smooth="yes"/>
      <point x="299.468" y="381.222"/>
      <point x="273.797" y="430"/>
      <point x="217.863" y="430" type="curve" smooth="yes"/>
      <point x="158.667" y="430"/>
      <point x="129.667" y="392"/>
    </contour>
  </outline>
</glyph>
<glyph name="h" format="2">
  <advance width="535"/>
  <unicode hex="0068"/>
  <outline>
    <component base="l" xOffset="-2"/>
    <contour>
      <point x="155" y="342.668" type="line"/>
      <point x="192.333" y="381.333" type="line" smooth="yes"/>
      <point x="250.964" y="442.75"/>
      <point x="286" y="464.333"/>
      <point x="335.001" y="464.333" type="curve" smooth="yes"/>
      <point x="413.333" y="464.333"/>
      <point x="460.333" y="408.667"/>
      <point x="460.333" y="317.333" type="curve" smooth="yes"/>
      <point x="460.333" y="85.6667" type="line" smooth="yes"/>
      <point x="460.333" y="34.3333"/>
      <point x="471.667" y="23"/>
      <point x="519.333" y="18" type="curve"/>
      <point x="519.333" y="0" type="line"/>
      <point x="299.667" y="0" type="line"/>
      <point x="299.667" y="18" type="line"/>
      <point x="345.667" y="23.3333"/>
      <point x="358" y="36"/>
      <point x="358" y="85.6667" type="curve" smooth="yes"/>
      <point x="358" y="313" type="line" smooth="yes"/>
      <point x="358" y="375.667"/>
      <point x="336.333" y="405.333"/>
      <point x="289.089" y="405.333" type="curve" smooth="yes"/>
      <point x="258.442" y="405.333"/>
      <point x="230.438" y="389.673"/>
      <point x="194.667" y="348" type="curve" smooth="yes"/>
      <point x="155.182" y="301.279" type="line"/>
    </contour>
  </outline>
</glyph>
<glyph name="i" format="2">
  <advance width="278"/>
  <unicode hex="0069"/>
  <outline>
    <contour>
      <point x="16" y="0" type="line"/>
      <point x="16" y="18" type="line"/>
      <point x="77.3333" y="24.3333"/>
      <point x="86.3333" y="34.3333"/>
      <point x="86.3333" y="96" type="curve" smooth="yes"/>
      <point x="86.3333" y="385.333" type="line" smooth="yes"/>
      <point x="86.3333" y="419.089"/>
      <point x="64.9585" y="435.809"/>
      <point x="18.6667" y="442.333" type="curve"/>
      <point x="18.6667" y="460.333" type="line"/>
      <point x="188.667" y="460.333" type="line"/>
      <point x="188.667" y="95" type="line" smooth="yes"/>
      <point x="188.667" y="34.3333"/>
      <point x="198" y="23"/>
      <point x="253.667" y="18" type="curve"/>
      <point x="253.667" y="0" type="line"/>
    </contour>
    <contour>
      <point x="72.6667" y="626.667" type="curve" smooth="yes"/>
      <point x="72.6667" y="658"/>
      <point x="99.6667" y="685"/>
      <point x="130.667" y="685" type="curve" smooth="yes"/>
      <point x="163.667" y="685"/>
      <point x="190.333" y="658"/>
      <point x="190.333" y="625.667" type="curve" smooth="yes"/>
      <point x="190.333" y="593"/>
      <point x="163.667" y="567.333"/>
      <point x="130.333" y="567.333" type="curve" smooth="yes"/>
      <point x="97.6667" y="567.333"/>
      <point x="72.6667" y="593"/>
    </contour>
  </outline>
</glyph>
<glyph name="j" format="2">
  <advance width="296"/>
  <unicode hex="006A"/>
  <outline>
    <contour>
      <point x="-40.9897" y="-143" type="curve" smooth="yes"/>
      <point x="-40.9897" y="-116.322"/>
      <point x="-22.351" y="-96.6667"/>
      <point x="3.34175" y="-96.6667" type="curve" smooth="yes"/>
      <point x="28.2113" y="-96.6667"/>
      <point x="47.2388" y="-113.461"/>
      <point x="47.3333" y="-136" type="curve" smooth="yes"/>
      <point x="47.3781" y="-149.858"/>
      <point x="42.2103" y="-163.189"/>
      <point x="33.414" y="-172.323" type="curve"/>
      <point x="36.4704" y="-179.318"/>
      <point x="49.3553" y="-184.16"/>
      <point x="61.8972" y="-184.16" type="curve" smooth="yes"/>
      <point x="96.7743" y="-184.16"/>
      <point x="113" y="-145.528"/>
      <point x="113" y="-62" type="curve" smooth="yes"/>
      <point x="113" y="384.667" type="line" smooth="yes"/>
      <point x="113" y="420.27"/>
      <point x="90.8772" y="437.45"/>
      <point x="40.6667" y="441.667" type="curve"/>
      <point x="40.6667" y="460.333" type="line"/>
      <point x="215.333" y="460.333" type="line"/>
      <point x="215.333" y="0.666667" type="line" smooth="yes"/>
      <point x="215.333" y="-140.345"/>
      <point x="171.502" y="-213"/>
      <point x="58.758" y="-213" type="curve" smooth="yes"/>
      <point x="4.0838" y="-213"/>
      <point x="-40.9897" y="-181.553"/>
    </contour>
    <contour>
      <point x="97.3333" y="626.667" type="curve" smooth="yes"/>
      <point x="97.3333" y="658"/>
      <point x="124" y="685"/>
      <point x="155" y="685" type="curve" smooth="yes"/>
      <point x="188" y="685"/>
      <point x="215" y="658"/>
      <point x="215" y="625.667" type="curve" smooth="yes"/>
      <point x="215" y="593.333"/>
      <point x="188" y="567.333"/>
      <point x="155" y="567.333" type="curve" smooth="yes"/>
      <point x="122" y="567.333"/>
      <point x="97.3333" y="593"/>
    </contour>
  </outline>
</glyph>
<glyph name="k" format="2">
  <advance width="519"/>
  <unicode hex="006B"/>
  <outline>
    <component base="l" xOffset="-9.66667"/>
    <contour>
      <point x="149.997" y="203.187" type="line"/>
      <point x="150.123" y="227.655" type="line"/>
      <point x="314.333" y="380.333" type="line" smooth="yes"/>
      <point x="327.169" y="392.187"/>
      <point x="336.667" y="407.333"/>
      <point x="336.667" y="415.667" type="curve" smooth="yes"/>
      <point x="336.667" y="428.035"/>
      <point x="320.157" y="434.832"/>
      <point x="283.667" y="437.333" type="curve"/>
      <point x="283.667" y="454.333" type="line"/>
      <point x="491" y="454.333" type="line"/>
      <point x="491" y="436.667" type="line"/>
      <point x="422.505" y="429.76"/>
      <point x="402.587" y="419.95"/>
      <point x="332.908" y="353.992" type="curve" smooth="yes"/>
      <point x="264.667" y="291" type="line"/>
      <point x="431.333" y="72.3333" type="line"/>
      <point x="462.333" y="34.3333"/>
      <point x="484.667" y="20.6667"/>
      <point x="517.667" y="18.6667" type="curve"/>
      <point x="517.667" y="0.666667" type="line"/>
      <point x="294.333" y="0.666667" type="line"/>
      <point x="294.333" y="18.5061" type="line"/>
      <point x="308.667" y="18.6667" type="line"/>
      <point x="325.49" y="18.6667"/>
      <point x="335" y="24.4691"/>
      <point x="335" y="32.7317" type="curve" smooth="yes"/>
      <point x="335" y="41"/>
      <point x="324.429" y="55.9699"/>
      <point x="313" y="72" type="curve" smooth="yes"/>
      <point x="188" y="241.333" type="line"/>
    </contour>
  </outline>
</glyph>
<glyph name="l" format="2">
  <advance width="278"/>
  <unicode hex="006C"/>
  <outline>
    <contour>
      <point x="19.3333" y="0" type="line"/>
      <point x="19.3333" y="18" type="line"/>
      <point x="72.6667" y="22.3333"/>
      <point x="87.6667" y="38.6667"/>
      <point x="87.6667" y="86" type="curve" smooth="yes"/>
      <point x="87.6667" y="603.333" type="line" smooth="yes"/>
      <point x="87.6667" y="642.066"/>
      <point x="63.6314" y="659"/>
      <point x="18" y="662" type="curve"/>
      <point x="18" y="680.667" type="line"/>
      <point x="190" y="680.667" type="line"/>
      <point x="190" y="84" type="line" smooth="yes"/>
      <point x="190" y="36"/>
      <point x="203.333" y="22"/>
      <point x="256.333" y="18" type="curve"/>
      <point x="256.333" y="0" type="line"/>
    </contour>
  </outline>
</glyph>
<glyph name="m" format="2">
  <advance width="796"/>
  <unicode hex="006D"/>
  <outline>
    <contour>
      <point x="18" y="0" type="line"/>
      <point x="18" y="18" type="line"/>
      <point x="67.3333" y="24.6667"/>
      <point x="79" y="35.6667"/>
      <point x="79" y="86.6667" type="curve" smooth="yes"/>
      <point x="79" y="381.333" type="line" smooth="yes"/>
      <point x="79" y="416.64"/>
      <point x="57.1091" y="437.197"/>
      <point x="16" y="441" type="curve"/>
      <point x="16" y="460.333" type="line"/>
      <point x="177.667" y="460.333" type="line"/>
      <point x="177.667" y="384" type="line"/>
      <point x="220.281" y="440.941"/>
      <point x="275" y="464.333"/>
      <point x="330.618" y="464.333" type="curve" smooth="yes"/>
      <point x="387" y="464.333"/>
      <point x="421.333" y="438.333"/>
      <point x="443.333" y="379.333" type="curve"/>
      <point x="496.667" y="439.333"/>
      <point x="543.333" y="464.333"/>
      <point x="600.196" y="464.333" type="curve" smooth="yes"/>
      <point x="679.667" y="464.333"/>
      <point x="723.333" y="406"/>
      <point x="723.333" y="298.667" type="curve" smooth="yes"/>
      <point x="723.333" y="85.6667" type="line" smooth="yes"/>
      <point x="723.333" y="34"/>
      <point x="735" y="22.6667"/>
      <point x="782.667" y="18" type="curve"/>
      <point x="782.667" y="0" type="line"/>
      <point x="562" y="0" type="line"/>
      <point x="562" y="18" type="line"/>
      <point x="609.333" y="23"/>
      <point x="621" y="34.3333"/>
      <point x="621" y="85.6667" type="curve" smooth="yes"/>
      <point x="621" y="306.333" type="line" smooth="yes"/>
      <point x="621" y="381.333"/>
      <point x="604" y="407.333"/>
      <point x="555.61" y="407.333" type="curve" smooth="yes"/>
      <point x="514.338" y="407.333"/>
      <point x="480" y="387"/>
      <point x="452.333" y="347.333" type="curve"/>
      <point x="452.333" y="85.6667" type="line" smooth="yes"/>
      <point x="452.333" y="35.6667"/>
      <point x="464.333" y="23.3333"/>
      <point x="510.667" y="18" type="curve"/>
      <point x="510.667" y="0" type="line"/>
      <point x="291.333" y="0" type="line"/>
      <point x="291.333" y="18" type="line"/>
      <point x="338.333" y="23"/>
      <point x="350" y="34.6667"/>
      <point x="350" y="85.6667" type="curve" smooth="yes"/>
      <point x="350" y="309.667" type="line" smooth="yes"/>
      <point x="350" y="376.333"/>
      <point x="330.333" y="407.333"/>
      <point x="291.199" y="407.333" type="curve" smooth="yes"/>
      <point x="252.613" y="407.333"/>
      <point x="210.199" y="384.529"/>
      <point x="181.333" y="348.667" type="curve"/>
      <point x="181.333" y="85.6667" type="line" smooth="yes"/>
      <point x="181.333" y="35.6667"/>
      <point x="193" y="23.6667"/>
      <point x="239.333" y="18" type="curve"/>
      <point x="239.333" y="0" type="line"/>
    </contour>
  </outline>
</glyph>
<glyph name="p" format="2">
  <advance width="519"/>
  <unicode hex="0070"/>
  <outline>
    <contour>
      <point x="9.66667" y="-193.667" type="line"/>
      <point x="65" y="-187"/>
      <point x="75" y="-176.667"/>
      <point x="75" y="-128.333" type="curve" smooth="yes"/>
      <point x="75" y="384.734" type="line" smooth="yes"/>
      <point x="75" y="419.81"/>
      <point x="57.9205" y="435.065"/>
      <point x="13" y="441.667" type="curve"/>
      <point x="13" y="460.333" type="line"/>
      <point x="176.667" y="460.333" type="line"/>
      <point x="176.667" y="384.709" type="line"/>
      <point x="216.594" y="440"/>
      <point x="258.188" y="464.333"/>
      <point x="312.418" y="464.333" type="curve" smooth="yes"/>
      <point x="417.419" y="464.333"/>
      <point x="488" y="373.401"/>
      <point x="488" y="243.089" type="curve" smooth="yes"/>
      <point x="488" y="98.9127"/>
      <point x="401.298" y="-11"/>
      <point x="279.941" y="-11" type="curve" smooth="yes"/>
      <point x="241.683" y="-11"/>
      <point x="216.874" y="0"/>
      <point x="177.333" y="38.3244" type="curve"/>
      <point x="177.333" y="-114" type="line" smooth="yes"/>
      <point x="177.333" y="-178.333"/>
      <point x="191.744" y="-193"/>
      <point x="262.521" y="-194" type="curve"/>
      <point x="262.521" y="-213" type="line"/>
      <point x="9.66667" y="-213" type="line"/>
    </contour>
    <contour>
      <point x="177.333" y="93.5579" type="line"/>
      <point x="182.333" y="60.959"/>
      <point x="230.338" y="28.6667"/>
      <point x="274.805" y="28.6667" type="curve" smooth="yes"/>
      <point x="340.376" y="28.6667"/>
      <point x="382.667" y="98.8948"/>
      <point x="382.667" y="218.463" type="curve" smooth="yes"/>
      <point x="382.667" y="334.774"/>
      <point x="341.71" y="405.333"/>
      <point x="275.974" y="405.333" type="curve" smooth="yes"/>
      <point x="228.564" y="405.333"/>
      <point x="177.333" y="368.31"/>
      <point x="177.333" y="338.125" type="curve" smooth="yes"/>
    </contour>
  </outline>
</glyph>
<glyph name="r" format="2">
  <advance width="377"/>
  <unicode hex="0072"/>
  <outline>
    <contour>
      <point x="20.3333" y="0" type="line"/>
      <point x="20.3333" y="18" type="line"/>
      <point x="77.6667" y="28.6667"/>
      <point x="85.6667" y="37"/>
      <point x="85.6667" y="84" type="curve" smooth="yes"/>
      <point x="85.6667" y="384.667" type="line" smooth="yes"/>
      <point x="85.6667" y="417.421"/>
      <point x="63.3564" y="436.885"/>
      <point x="21.6667" y="441.667" type="curve"/>
      <point x="21.6667" y="460.333" type="line"/>
      <point x="186.667" y="460.333" type="line"/>
      <point x="186.667" y="370.333" type="line"/>
      <point x="235" y="440"/>
      <point x="267" y="464.333"/>
      <point x="308.574" y="464.333" type="curve" smooth="yes"/>
      <point x="350" y="464.333"/>
      <point x="375.333" y="440"/>
      <point x="375.333" y="403" type="curve" smooth="yes"/>
      <point x="375.333" y="371.333"/>
      <point x="356.667" y="350.667"/>
      <point x="328.098" y="350.667" type="curve" smooth="yes"/>
      <point x="311" y="350.667"/>
      <point x="296.965" y="358.867"/>
      <point x="283.022" y="374.966" type="curve" smooth="yes"/>
      <point x="271.265" y="388.161"/>
      <point x="261.667" y="393.667"/>
      <point x="252.452" y="393.667" type="curve" smooth="yes"/>
      <point x="226" y="393.667"/>
      <point x="188" y="346"/>
      <point x="188" y="307.333" type="curve" smooth="yes"/>
      <point x="188" y="94.3333" type="line" smooth="yes"/>
      <point x="188" y="35.6667"/>
      <point x="203.333" y="21.3333"/>
      <point x="269" y="18" type="curve"/>
      <point x="269" y="0" type="line"/>
    </contour>
  </outline>
</glyph>
<glyph name="s" format="2">
  <advance width="389"/>
  <unicode hex="0073"/>
  <outline>
    <contour>
      <point x="43" y="332.218" type="curve" smooth="yes"/>
      <point x="43" y="409"/>
      <point x="103" y="463.667"/>
      <point x="188.25" y="463.667" type="curve" smooth="yes"/>
      <point x="215.929" y="463.667"/>
      <point x="240.333" y="457.667"/>
      <point x="258.857" y="450.452" type="curve" smooth="yes"/>
      <point x="271.302" y="445.502"/>
      <point x="282.41" y="443.667"/>
      <point x="287.977" y="443.667" type="curve" smooth="yes"/>
      <point x="298" y="443.667"/>
      <point x="303.975" y="448.667"/>
      <point x="308.667" y="457" type="curve"/>
      <point x="323.333" y="457" type="line"/>
      <point x="323.333" y="318" type="line"/>
      <point x="305" y="318" type="line"/>
      <point x="283.299" y="396.012"/>
      <point x="251.366" y="438"/>
      <point x="194.222" y="438" type="curve" smooth="yes"/>
      <point x="147.667" y="438"/>
      <point x="117.667" y="411"/>
      <point x="117.667" y="373.333" type="curve" smooth="yes"/>
      <point x="117.667" y="344"/>
      <point x="137" y="319"/>
      <point x="178.333" y="298.667" type="curve"/>
      <point x="255.135" y="253.896" type="line"/>
      <point x="324.601" y="216.543"/>
      <point x="352.333" y="180.483"/>
      <point x="352.333" y="127.616" type="curve" smooth="yes"/>
      <point x="352.333" y="48"/>
      <point x="288.667" y="-11.3333"/>
      <point x="207.676" y="-11.3333" type="curve" smooth="yes"/>
      <point x="180.478" y="-11.3333"/>
      <point x="144.788" y="-4.30321"/>
      <point x="120.319" y="3.6371" type="curve" smooth="yes"/>
      <point x="105.636" y="8.03745"/>
      <point x="92.7842" y="10.3333"/>
      <point x="83.0773" y="10.3333" type="curve" smooth="yes"/>
      <point x="73" y="10.3333"/>
      <point x="68.3333" y="6.66667"/>
      <point x="60" y="-7" type="curve"/>
      <point x="43" y="-7" type="line"/>
      <point x="43" y="152" type="line"/>
      <point x="63" y="152" type="line"/>
      <point x="75.0932" y="90.1684"/>
      <point x="102" y="14.6667"/>
      <point x="189.354" y="14.6667" type="curve" smooth="yes"/>
      <point x="242.333" y="14.6667"/>
      <point x="273.667" y="42"/>
      <point x="273.667" y="83.3708" type="curve" smooth="yes"/>
      <point x="273.667" y="115.667"/>
      <point x="253" y="140"/>
      <point x="207" y="163.333" type="curve"/>
      <point x="163.333" y="187.537" type="line"/>
      <point x="76.6403" y="233.249"/>
      <point x="43" y="274.79"/>
    </contour>
  </outline>
</glyph>
<glyph name="v" format="2">
  <advance width="500"/>
  <unicode hex="0076"/>
  <outline>
    <contour>
      <point x="19.6667" y="435.667" type="curve"/>
      <point x="19.6667" y="453.667" type="line"/>
      <point x="233.667" y="453.667" type="line"/>
      <point x="233.667" y="435.667" type="line"/>
      <point x="210.447" y="434.223"/>
      <point x="185.333" y="431.152"/>
      <point x="185.333" y="407" type="curve" smooth="yes"/>
      <point x="185.333" y="400.424"/>
      <point x="188.514" y="386.88"/>
      <point x="196.89" y="365.913" type="curve" smooth="yes"/>
      <point x="292.974" y="125.441" type="line"/>
      <point x="284.989" y="125.441" type="line"/>
      <point x="376.351" y="360.902" type="line" smooth="yes"/>
      <point x="383.341" y="378.888"/>
      <point x="386.333" y="393.986"/>
      <point x="386.333" y="402.667" type="curve" smooth="yes"/>
      <point x="386.333" y="427.333"/>
      <point x="364.333" y="434.333"/>
      <point x="336.667" y="435.667" type="curve"/>
      <point x="336.667" y="453.667" type="line"/>
      <point x="479.667" y="453.667" type="line"/>
      <point x="479.667" y="435.667" type="line"/>
      <point x="446.45" y="433.032"/>
      <point x="432.345" y="402.532"/>
      <point x="417" y="365.333" type="curve" smooth="yes"/>
      <point x="265.848" y="-11.2407" type="line"/>
      <point x="242.333" y="-11.3333" type="line"/>
      <point x="84.7009" y="374.834" type="line" smooth="yes"/>
      <point x="71.4388" y="407.323"/>
      <point x="55.8586" y="430.202"/>
    </contour>
  </outline>
</glyph>
<glyph name="w" format="2">
  <advance width="722"/>
  <unicode hex="0077"/>
  <outline>
    <contour>
      <point x="21.6667" y="435.667" type="curve"/>
      <point x="21.6667" y="453.667" type="line"/>
      <point x="215.667" y="453.667" type="line"/>
      <point x="215.667" y="435.667" type="line"/>
      <point x="183.667" y="431.667"/>
      <point x="172.333" y="423.667"/>
      <point x="172.333" y="403.158" type="curve" smooth="yes"/>
      <point x="172.333" y="393.333"/>
      <point x="175.106" y="383.154"/>
      <point x="179.056" y="373.113" type="curve" smooth="yes"/>
      <point x="270.333" y="132.667" type="line"/>
      <point x="353.667" y="322.333" type="line"/>
      <point x="334.199" y="379.39" type="line" smooth="yes"/>
      <point x="319.326" y="420.342"/>
      <point x="308.21" y="431.483"/>
      <point x="272.667" y="435.667" type="curve"/>
      <point x="272.667" y="453.667" type="line"/>
      <point x="486" y="453.667" type="line"/>
      <point x="486" y="435.667" type="line"/>
      <point x="442" y="430"/>
      <point x="431.333" y="423.667"/>
      <point x="431.333" y="409.814" type="curve" smooth="yes"/>
      <point x="431.333" y="396.045"/>
      <point x="443.121" y="363.985"/>
      <point x="446.363" y="353.599" type="curve" smooth="yes"/>
      <point x="519" y="137.333" type="line"/>
      <point x="602.106" y="345.539" type="line" smooth="yes"/>
      <point x="611.385" y="368.608"/>
      <point x="616.667" y="389.333"/>
      <point x="616.667" y="402.98" type="curve" smooth="yes"/>
      <point x="616.667" y="422.333"/>
      <point x="606.333" y="429.667"/>
      <point x="571.333" y="435.667" type="curve"/>
      <point x="571.333" y="453.667" type="line"/>
      <point x="698.333" y="453.667" type="line"/>
      <point x="698.333" y="435.667" type="line"/>
      <point x="676.333" y="429.333"/>
      <point x="670.47" y="423.826"/>
      <point x="654.333" y="383" type="curve" smooth="yes"/>
      <point x="498.559" y="-11.5232" type="line"/>
      <point x="477.667" y="-11.3333" type="line"/>
      <point x="373.667" y="275.333" type="line"/>
      <point x="246.943" y="-11.6464" type="line"/>
      <point x="225.333" y="-11.3333" type="line"/>
      <point x="71.5624" y="378.589" type="line" smooth="yes"/>
      <point x="54.9915" y="420.695"/>
      <point x="45.6667" y="432.667"/>
    </contour>
  </outline>
</glyph>
<glyph name="x" format="2">
  <advance width="500"/>
  <unicode hex="0078"/>
  <outline>
    <contour>
      <point x="16" y="0" type="line"/>
      <point x="16" y="18" type="line"/>
      <point x="54.3333" y="21.3333"/>
      <point x="69" y="37"/>
      <point x="102.333" y="83" type="curve" smooth="yes"/>
      <point x="200" y="221" type="line"/>
      <point x="94.6667" y="382.667" type="line" smooth="yes"/>
      <point x="70.5094" y="418.553"/>
      <point x="63.1575" y="434.333"/>
      <point x="20" y="435.667" type="curve"/>
      <point x="20" y="453.667" type="line"/>
      <point x="241.333" y="453.667" type="line"/>
      <point x="241.333" y="435.667" type="line"/>
      <point x="219.667" y="435.333"/>
      <point x="197" y="432.667"/>
      <point x="197" y="414" type="curve" smooth="yes"/>
      <point x="197" y="406.091"/>
      <point x="203.763" y="389.722"/>
      <point x="214.732" y="373.015" type="curve" smooth="yes"/>
      <point x="260.667" y="303.667" type="line"/>
      <point x="312.132" y="374.816" type="line" smooth="yes"/>
      <point x="323.198" y="390.166"/>
      <point x="330" y="404.971"/>
      <point x="330" y="412.333" type="curve" smooth="yes"/>
      <point x="330" y="432.14"/>
      <point x="303.171" y="434.314"/>
      <point x="286.333" y="435.667" type="curve"/>
      <point x="286.333" y="453.667" type="line"/>
      <point x="447.667" y="453.667" type="line"/>
      <point x="447.667" y="435.667" type="line"/>
      <point x="416.667" y="433.333"/>
      <point x="388.667" y="417.667"/>
      <point x="370.333" y="393.333" type="curve" smooth="yes"/>
      <point x="281.333" y="271.333" type="line"/>
      <point x="416" y="64.6667" type="line" smooth="yes"/>
      <point x="432.333" y="39.6667"/>
      <point x="449.333" y="21"/>
      <point x="480.667" y="18" type="curve"/>
      <point x="480.667" y="0" type="line"/>
      <point x="266.333" y="0" type="line"/>
      <point x="266.333" y="18" type="line"/>
      <point x="290.667" y="19.3333"/>
      <point x="308" y="22"/>
      <point x="308" y="42" type="curve" smooth="yes"/>
      <point x="308" y="49.5789"/>
      <point x="300.517" y="65.3635"/>
      <point x="285.461" y="87.4719" type="curve" smooth="yes"/>
      <point x="218.333" y="188.333" type="line"/>
      <point x="147.833" y="84.0027" type="line" smooth="yes"/>
      <point x="134.071" y="63.7101"/>
      <point x="125.667" y="45.2737"/>
      <point x="125.667" y="38" type="curve" smooth="yes"/>
      <point x="125.667" y="21"/>
      <point x="149" y="18.6667"/>
      <point x="169" y="18" type="curve"/>
      <point x="169" y="0" type="line"/>
    </contour>
  </outline>
</glyph>
<glyph name="braceleft" format="2">
  <advance width="451"/>
  <unicode hex="007B"/>
  <outline>
    <contour>
      <point x="74" y="253.667" type="curve"/>
      <point x="147" y="274"/>
      <point x="166.333" y="297.333"/>
      <point x="166.333" y="367.667" type="curve" smooth="yes"/>
      <point x="166.333" y="546" type="line" smooth="yes"/>
      <point x="166.333" y="602.333"/>
      <point x="181.667" y="640.667"/>
      <point x="212.333" y="659.667" type="curve" smooth="yes"/>
      <point x="242.333" y="678.667"/>
      <point x="273" y="685"/>
      <point x="346.667" y="686" type="curve"/>
      <point x="346.667" y="674.667" type="line"/>
      <point x="274" y="657"/>
      <point x="250.667" y="626.667"/>
      <point x="250.667" y="551.333" type="curve" smooth="yes"/>
      <point x="250.667" y="382.333" type="line" smooth="yes"/>
      <point x="250.667" y="299"/>
      <point x="230" y="273"/>
      <point x="148.667" y="253" type="curve"/>
      <point x="230" y="233.667"/>
      <point x="250.667" y="207.667"/>
      <point x="250.667" y="124.333" type="curve" smooth="yes"/>
      <point x="250.667" y="-44.6667" type="line" smooth="yes"/>
      <point x="250.667" y="-120"/>
      <point x="274.333" y="-150.333"/>
      <point x="346.667" y="-167.667" type="curve"/>
      <point x="346.667" y="-179" type="line"/>
      <point x="270" y="-178"/>
      <point x="237.333" y="-170.667"/>
      <point x="208.667" y="-150" type="curve" smooth="yes"/>
      <point x="181" y="-130.667"/>
      <point x="166.333" y="-92.3333"/>
      <point x="166.333" y="-38.6667" type="curve" smooth="yes"/>
      <point x="166.333" y="139" type="line" smooth="yes"/>
      <point x="166.333" y="208.667"/>
      <point x="147" y="232.667"/>
    </contour>
  </outline>
</glyph>
<glyph name="braceright" format="2">
  <advance width="451"/>
  <unicode hex="007D"/>
  <outline>
    <contour>
      <point x="104.667" y="-167.667" type="line"/>
      <point x="177.333" y="-150"/>
      <point x="200.667" y="-119.667"/>
      <point x="200.667" y="-44.3333" type="curve" smooth="yes"/>
      <point x="200.667" y="124.667" type="line" smooth="yes"/>
      <point x="200.667" y="207.667"/>
      <point x="221.667" y="234"/>
      <point x="302.667" y="254" type="curve"/>
      <point x="221.333" y="273.333"/>
      <point x="200.667" y="298.667"/>
      <point x="200.667" y="382.667" type="curve" smooth="yes"/>
      <point x="200.667" y="551.667" type="line" smooth="yes"/>
      <point x="200.667" y="626.667"/>
      <point x="177" y="657.333"/>
      <point x="104.667" y="674.667" type="curve"/>
      <point x="104.667" y="686" type="line"/>
      <point x="179.333" y="685"/>
      <point x="209.667" y="678.667"/>
      <point x="239" y="659.667" type="curve" smooth="yes"/>
      <point x="269" y="640.667"/>
      <point x="285" y="601.333"/>
      <point x="285" y="545.667" type="curve" smooth="yes"/>
      <point x="285" y="368" type="line" smooth="yes"/>
      <point x="285" y="297.667"/>
      <point x="304.333" y="274.333"/>
      <point x="377.333" y="254" type="curve"/>
      <point x="304.333" y="233"/>
      <point x="285" y="209.667"/>
      <point x="285" y="139.333" type="curve" smooth="yes"/>
      <point x="285" y="-39" type="line" smooth="yes"/>
      <point x="285" y="-95.3333"/>
      <point x="269.667" y="-133.667"/>
      <point x="239" y="-152.667" type="curve" smooth="yes"/>
      <point x="209" y="-171.667"/>
      <point x="178.333" y="-178"/>
      <point x="104.667" y="-179" type="curve"/>
    </contour>
  </outline>
</glyph>
<glyph name="asciitilde" format="2">
  <advance width="534"/>
  <unicode hex="007E"/>
  <outline>
    <contour>
      <point x="36.3333" y="239" type="line"/>
      <point x="78.3333" y="301.333"/>
      <point x="111" y="323.667"/>
      <point x="159.667" y="323.667" type="curve" smooth="yes"/>
      <point x="200.667" y="323.667"/>
      <point x="221.333" y="316.333"/>
      <point x="305.667" y="273.667" type="curve" smooth="yes"/>
      <point x="332.333" y="261"/>
      <point x="352.333" y="255.667"/>
      <point x="372" y="255.667" type="curve" smooth="yes"/>
      <point x="400.333" y="255.667"/>
      <point x="418.333" y="268"/>
      <point x="444" y="304.667" type="curve"/>
      <point x="498.333" y="267.333" type="line"/>
      <point x="452.667" y="203.667"/>
      <point x="421.333" y="182.333"/>
      <point x="375.333" y="182.333" type="curve" smooth="yes"/>
      <point x="334.333" y="182.333"/>
      <point x="313.667" y="189.667"/>
      <point x="239" y="229.333" type="curve" smooth="yes"/>
      <point x="212.333" y="243.667"/>
      <point x="188" y="250.333"/>
      <point x="162.333" y="250.333" type="curve" smooth="yes"/>
      <point x="132" y="250.333"/>
      <point x="115" y="239"/>
      <point x="90" y="202.333" type="curve"/>
    </contour>
  </outline>
</glyph>
<glyph name="exclamdown" format="2">
  <advance width="333"/>
  <unicode hex="00A1"/>
  <outline>
    <contour>
      <point x="91.3333" y="417.376" type="curve" smooth="yes"/>
      <point x="91.3333" y="452.667"/>
      <point x="119.472" y="479.667"/>
      <point x="156" y="479.667" type="curve" smooth="yes"/>
      <point x="192.862" y="479.667"/>
      <point x="221" y="452.667"/>
      <point x="221" y="417.333" type="curve" smooth="yes"/>
      <point x="221" y="381.667"/>
      <point x="192.189" y="352"/>
      <point x="156.333" y="352" type="curve" smooth="yes"/>
      <point x="120.811" y="352"/>
      <point x="91.3333" y="381"/>
    </contour>
    <contour>
      <point x="87.6667" y="-133.352" type="curve" smooth="yes"/>
      <point x="87.6667" y="-79.4642"/>
      <point x="95.0734" y="-25.4055"/>
      <point x="107.114" y="33.3664" type="curve" smooth="yes"/>
      <point x="124.719" y="116.357"/>
      <point x="134.147" y="182.279"/>
      <point x="138.623" y="274" type="curve"/>
      <point x="173.038" y="274" type="line"/>
      <point x="177.481" y="182.49"/>
      <point x="186.505" y="117.546"/>
      <point x="203.449" y="40.7165" type="curve" smooth="yes"/>
      <point x="216.708" y="-24.1945"/>
      <point x="224" y="-79.6642"/>
      <point x="224" y="-133.667" type="curve" smooth="yes"/>
      <point x="224" y="-188.547"/>
      <point x="195.863" y="-211.667"/>
      <point x="155.736" y="-211.667" type="curve" smooth="yes"/>
      <point x="114.056" y="-211.667"/>
      <point x="87.6667" y="-186.575"/>
    </contour>
  </outline>
</glyph>
<glyph name="cent" format="2">
  <advance width="500"/>
  <unicode hex="00A2"/>
  <outline>
    <contour>
      <point x="53" y="220.333" type="curve" smooth="yes"/>
      <point x="53" y="358"/>
      <point x="150" y="464.333"/>
      <point x="277" y="464.333" type="curve" smooth="yes"/>
      <point x="293.333" y="464.333"/>
      <point x="307" y="463"/>
      <point x="331" y="458.333" type="curve"/>
      <point x="375" y="582" type="line"/>
      <point x="411.667" y="582" type="line"/>
      <point x="364.333" y="446.667" type="line"/>
      <point x="411" y="426"/>
      <point x="435.333" y="397"/>
      <point x="435.333" y="361.333" type="curve" smooth="yes"/>
      <point x="435.333" y="331.333"/>
      <point x="414.333" y="310"/>
      <point x="384.667" y="310" type="curve" smooth="yes"/>
      <point x="362" y="310"/>
      <point x="347.333" y="320.667"/>
      <point x="331.333" y="351.333" type="curve"/>
      <point x="236.667" y="80.6667" type="line"/>
      <point x="261.667" y="65.6667"/>
      <point x="279" y="60.3333"/>
      <point x="303.667" y="60.3333" type="curve" smooth="yes"/>
      <point x="357.333" y="60.3333"/>
      <point x="390.667" y="82"/>
      <point x="436.667" y="145.667" type="curve"/>
      <point x="451.333" y="134.333" type="line"/>
      <point x="407.902" y="59.2783"/>
      <point x="356.759" y="-10.6667"/>
      <point x="260.333" y="-10.6667" type="curve" smooth="yes"/>
      <point x="242.667" y="-10.6667"/>
      <point x="228.667" y="-8.66667"/>
      <point x="206.333" y="-2.33333" type="curve"/>
      <point x="158" y="-138.667" type="line"/>
      <point x="122" y="-138.667" type="line"/>
      <point x="173" y="9.66667" type="line"/>
      <point x="91.7353" y="53.3674"/>
      <point x="53" y="126.973"/>
    </contour>
    <contour>
      <point x="151.333" y="264.667" type="curve" smooth="yes"/>
      <point x="151.333" y="197.333"/>
      <point x="167" y="153.333"/>
      <point x="207" y="108" type="curve"/>
      <point x="315.667" y="413" type="line"/>
      <point x="303.667" y="425.667"/>
      <point x="289.667" y="434"/>
      <point x="270" y="434" type="curve" smooth="yes"/>
      <point x="198.333" y="434"/>
      <point x="151.333" y="366.667"/>
    </contour>
  </outline>
</glyph>
<glyph name="brokenbar" format="2">
  <advance width="207"/>
  <unicode hex="00A6"/>
  <outline>
    <contour>
      <point x="66.6667" y="-15.6667" type="line"/>
      <point x="66.6667" y="260.667" type="line"/>
      <point x="140" y="260.667" type="line"/>
      <point x="140" y="-15.6667" type="line"/>
    </contour>
    <contour>
      <point x="66.6667" y="404.667" type="line"/>
      <point x="66.6667" y="681" type="line"/>
      <point x="140" y="681" type="line"/>
      <point x="140" y="404.667" type="line"/>
    </contour>
  </outline>
</glyph>
<glyph name="dieresis" format="2">
  <advance width="333"/>
  <unicode hex="00A8"/>
  <outline>
    <contour>
      <point x="11.3333" y="582.667" type="curve" smooth="yes"/>
      <point x="11.3333" y="611.333"/>
      <point x="36.6667" y="636.667"/>
      <point x="64.6667" y="636.667" type="curve" smooth="yes"/>
      <point x="95" y="636.667"/>
      <point x="120.333" y="611.333"/>
      <point x="120.333" y="581.333" type="curve" smooth="yes"/>
      <point x="120.333" y="551.667"/>
      <point x="95.3333" y="527.667"/>
      <point x="64.6667" y="527.667" type="curve" smooth="yes"/>
      <point x="35" y="527.667"/>
      <point x="11.3333" y="552.333"/>
    </contour>
    <contour>
      <point x="214" y="583" type="curve" smooth="yes"/>
      <point x="214" y="611.333"/>
      <point x="239.333" y="636.667"/>
      <point x="267" y="636.667" type="curve" smooth="yes"/>
      <point x="297.667" y="636.667"/>
      <point x="323" y="611.333"/>
      <point x="323" y="581.333" type="curve" smooth="yes"/>
      <point x="323" y="551.667"/>
      <point x="298" y="527.667"/>
      <point x="267" y="527.667" type="curve" smooth="yes"/>
      <point x="237.333" y="527.667"/>
      <point x="214" y="552"/>
    </contour>
  </outline>
</glyph>
<glyph name="copyright" format="2">
  <advance width="756"/>
  <unicode hex="00A9"/>
  <outline>
    <contour>
      <point x="34" y="333.167" type="curve" smooth="yes"/>
      <point x="34" y="528.333"/>
      <point x="186" y="681"/>
      <point x="377.503" y="681" type="curve" smooth="yes"/>
      <point x="570.333" y="681"/>
      <point x="721.667" y="526"/>
      <point x="721.667" y="331.278" type="curve" smooth="yes"/>
      <point x="721.667" y="136.333"/>
      <point x="571.667" y="-15.6667"/>
      <point x="379.363" y="-15.6667" type="curve" smooth="yes"/>
      <point x="186" y="-15.6667"/>
      <point x="34" y="138"/>
    </contour>
    <contour>
      <point x="94.3333" y="333.5" type="curve" smooth="yes"/>
      <point x="94.3333" y="167"/>
      <point x="222.667" y="29.6667"/>
      <point x="378.953" y="29.6667" type="curve" smooth="yes"/>
      <point x="534" y="29.6667"/>
      <point x="661.333" y="166"/>
      <point x="661.333" y="332.218" type="curve" smooth="yes"/>
      <point x="661.333" y="497.333"/>
      <point x="533.667" y="635.667"/>
      <point x="377.577" y="635.667" type="curve" smooth="yes"/>
      <point x="222.667" y="635.667"/>
      <point x="94.3333" y="500"/>
    </contour>
    <contour>
      <point x="185.333" y="336.26" type="curve" smooth="yes"/>
      <point x="185.333" y="455.333"/>
      <point x="274" y="536"/>
      <point x="404.363" y="536" type="curve" smooth="yes"/>
      <point x="457.66" y="536"/>
      <point x="507.417" y="519.302"/>
      <point x="529.667" y="496.667" type="curve"/>
      <point x="529.667" y="426" type="line"/>
      <point x="512" y="426" type="line"/>
      <point x="500" y="485.667"/>
      <point x="465" y="515"/>
      <point x="405" y="515" type="curve" smooth="yes"/>
      <point x="318.667" y="515"/>
      <point x="270.667" y="452"/>
      <point x="270.667" y="340.395" type="curve" smooth="yes"/>
      <point x="270.667" y="227.333"/>
      <point x="320.333" y="162.333"/>
      <point x="409.068" y="162.333" type="curve" smooth="yes"/>
      <point x="463.667" y="162.333"/>
      <point x="498.333" y="187"/>
      <point x="529" y="250" type="curve"/>
      <point x="546" y="250" type="line"/>
      <point x="529.333" y="174.667" type="line"/>
      <point x="508.692" y="153.494"/>
      <point x="462.712" y="141.333"/>
      <point x="397.462" y="141.333" type="curve" smooth="yes"/>
      <point x="273.129" y="141.333"/>
      <point x="185.333" y="217.333"/>
    </contour>
  </outline>
</glyph>
<glyph name="uni00AD" format="2">
  <advance width="333"/>
  <unicode hex="00AD"/>
  <outline>
    <contour>
      <point x="40.6667" y="186.333" type="line"/>
      <point x="40.6667" y="267" type="line"/>
      <point x="285.667" y="267" type="line"/>
      <point x="285.667" y="186.333" type="line"/>
    </contour>
  </outline>
</glyph>
<glyph name="registered" format="2">
  <advance width="756"/>
  <unicode hex="00AE"/>
  <outline>
    <contour>
      <point x="34" y="331.667" type="curve" smooth="yes"/>
      <point x="34" y="527"/>
      <point x="186" y="681"/>
      <point x="378.667" y="681" type="curve" smooth="yes"/>
      <point x="571.667" y="681"/>
      <point x="721.667" y="527.333"/>
      <point x="721.667" y="329" type="curve" smooth="yes"/>
      <point x="721.667" y="136.333"/>
      <point x="569.667" y="-15.6667"/>
      <point x="377" y="-15.6667" type="curve" smooth="yes"/>
      <point x="186" y="-15.6667"/>
      <point x="34" y="138"/>
    </contour>
    <contour>
      <point x="94.3333" y="331.667" type="curve" smooth="yes"/>
      <point x="94.3333" y="167"/>
      <point x="222.667" y="29.6667"/>
      <point x="377.333" y="29.6667" type="curve" smooth="yes"/>
      <point x="532.667" y="29.6667"/>
      <point x="661.333" y="166"/>
      <point x="661.333" y="329.333" type="curve" smooth="yes"/>
      <point x="661.333" y="499.333"/>
      <point x="535" y="635.667"/>
      <point x="378.667" y="635.667" type="curve" smooth="yes"/>
      <point x="222.667" y="635.667"/>
      <point x="94.3333" y="498.667"/>
    </contour>
    <contour>
      <point x="215" y="152.333" type="line"/>
      <point x="215" y="168.333" type="line"/>
      <point x="262.667" y="172.667"/>
      <point x="263" y="173"/>
      <point x="263" y="215" type="curve" smooth="yes"/>
      <point x="263" y="460.667" type="line" smooth="yes"/>
      <point x="263" y="503.667"/>
      <point x="263" y="503.667"/>
      <point x="215" y="508" type="curve"/>
      <point x="215" y="524" type="line"/>
      <point x="397.333" y="524" type="line" smooth="yes"/>
      <point x="467.667" y="524"/>
      <point x="512.333" y="487.667"/>
      <point x="512.333" y="430.667" type="curve" smooth="yes"/>
      <point x="512.333" y="382.667"/>
      <point x="485.333" y="347.333"/>
      <point x="433" y="326.333" type="curve"/>
      <point x="490.333" y="246.333" type="line" smooth="yes"/>
      <point x="518.667" y="207"/>
      <point x="541.333" y="181.333"/>
      <point x="564.333" y="161.333" type="curve"/>
      <point x="564.333" y="152.333" type="line"/>
      <point x="494.667" y="152.333" type="line" smooth="yes"/>
      <point x="478" y="152.333"/>
      <point x="456.667" y="178"/>
      <point x="427.667" y="232" type="curve" smooth="yes"/>
      <point x="414.333" y="257.333"/>
      <point x="408.333" y="267.333"/>
      <point x="376.667" y="316" type="curve"/>
      <point x="332.333" y="316" type="line"/>
      <point x="332.333" y="215" type="line" smooth="yes"/>
      <point x="332.333" y="173"/>
      <point x="332.667" y="172.667"/>
      <point x="380.333" y="168.333" type="curve"/>
      <point x="380.333" y="152.333" type="line"/>
    </contour>
    <contour>
      <point x="332.333" y="336" type="line"/>
      <point x="372.667" y="336" type="line" smooth="yes"/>
      <point x="415" y="336"/>
      <point x="439.333" y="368"/>
      <point x="439.333" y="424.667" type="curve" smooth="yes"/>
      <point x="439.333" y="477.333"/>
      <point x="416.667" y="504"/>
      <point x="371.667" y="504" type="curve" smooth="yes"/>
      <point x="332.333" y="504" type="line"/>
    </contour>
  </outline>
</glyph>
<glyph name="macron" format="2">
  <advance width="457"/>
  <unicode hex="00AF"/>
  <outline>
    <contour>
      <point x="70" y="543" type="line"/>
      <point x="70" y="603" type="line"/>
      <point x="387.333" y="603" type="line"/>
      <point x="387.333" y="543" type="line"/>
    </contour>
  </outline>
</glyph>
<glyph name="degree" format="2">
  <advance width="400"/>
  <unicode hex="00B0"/>
  <outline>
    <contour>
      <point x="57" y="537" type="curve" smooth="yes"/>
      <point x="57" y="617"/>
      <point x="120" y="680"/>
      <point x="200" y="680" type="curve" smooth="yes"/>
      <point x="280" y="680"/>
      <point x="343" y="617"/>
      <point x="343" y="536.333" type="curve" smooth="yes"/>
      <point x="343" y="456"/>
      <point x="279.333" y="394"/>
      <point x="198" y="394" type="curve" smooth="yes"/>
      <point x="120" y="394"/>
      <point x="57" y="458"/>
    </contour>
    <contour>
      <point x="96.6667" y="537" type="curve" smooth="yes"/>
      <point x="96.6667" y="478.333"/>
      <point x="143.333" y="428.667"/>
      <point x="199" y="428.667" type="curve" smooth="yes"/>
      <point x="256.667" y="428.667"/>
      <point x="303.333" y="477.333"/>
      <point x="303.333" y="537" type="curve" smooth="yes"/>
      <point x="303.333" y="595.667"/>
      <point x="255.667" y="645.333"/>
      <point x="200" y="645.333" type="curve" smooth="yes"/>
      <point x="143.333" y="645.333"/>
      <point x="96.6667" y="595.667"/>
    </contour>
  </outline>
</glyph>
<glyph name="plusminus" format="2">
  <advance width="566"/>
  <unicode hex="00B1"/>
  <outline>
    <contour>
      <point x="31" y="0" type="line"/>
      <point x="31" y="73.3333" type="line"/>
      <point x="535" y="73.3333" type="line"/>
      <point x="535" y="0" type="line"/>
    </contour>
    <contour>
      <point x="31" y="278.333" type="line"/>
      <point x="31" y="351.667" type="line"/>
      <point x="246.333" y="351.667" type="line"/>
      <point x="246.333" y="568" type="line"/>
      <point x="319.667" y="568" type="line"/>
      <point x="319.667" y="351.667" type="line"/>
      <point x="535" y="351.667" type="line"/>
      <point x="535" y="278.333" type="line"/>
      <point x="319.667" y="278.333" type="line"/>
      <point x="319.667" y="124" type="line"/>
      <point x="246.333" y="124" type="line"/>
      <point x="246.333" y="278.333" type="line"/>
    </contour>
  </outline>
</glyph>
<glyph name="acute" format="2">
  <advance width="369"/>
  <unicode hex="00B4"/>
  <outline>
    <contour>
      <point x="70" y="514" type="line"/>
      <point x="213.667" y="665" type="line" smooth="yes"/>
      <point x="231.333" y="683.333"/>
      <point x="243" y="689.667"/>
      <point x="259.333" y="689.667" type="curve" smooth="yes"/>
      <point x="283.667" y="689.667"/>
      <point x="298.667" y="675.667"/>
      <point x="298.667" y="653.667" type="curve" smooth="yes"/>
      <point x="298.667" y="635.333"/>
      <point x="290" y="623.333"/>
      <point x="265.333" y="608" type="curve" smooth="yes"/>
      <point x="115.333" y="514" type="line"/>
    </contour>
  </outline>
</glyph>
<glyph name="mu" format="2">
  <advance width="519"/>
  <unicode hex="00B5"/>
  <outline>
    <contour>
      <point x="35" y="-141.667" type="curve" smooth="yes"/>
      <point x="35" y="-123.333"/>
      <point x="39.3333" y="-89"/>
      <point x="46.6667" y="-52.6667" type="curve" smooth="yes"/>
      <point x="58.6667" y="5.33333"/>
      <point x="62" y="33"/>
      <point x="62" y="65.3333" type="curve" smooth="yes"/>
      <point x="62" y="453.667" type="line"/>
      <point x="167" y="453.667" type="line"/>
      <point x="167" y="145.667" type="line" smooth="yes"/>
      <point x="167" y="93"/>
      <point x="196" y="59.6667"/>
      <point x="242" y="59.6667" type="curve" smooth="yes"/>
      <point x="279.667" y="59.6667"/>
      <point x="314.667" y="78"/>
      <point x="340" y="110.667" type="curve"/>
      <point x="340" y="453.667" type="line"/>
      <point x="445" y="453.667" type="line"/>
      <point x="445" y="95" type="line" smooth="yes"/>
      <point x="445" y="55.6667"/>
      <point x="457.667" y="36"/>
      <point x="479.667" y="36" type="curve" smooth="yes"/>
      <point x="492" y="36"/>
      <point x="501.667" y="41"/>
      <point x="520" y="56.6667" type="curve"/>
      <point x="520" y="43.3333" type="line"/>
      <point x="483.333" y="1.66667"/>
      <point x="461.333" y="-11"/>
      <point x="422" y="-11" type="curve" smooth="yes"/>
      <point x="374" y="-11"/>
      <point x="348.333" y="13"/>
      <point x="339.667" y="66.3333" type="curve"/>
      <point x="302.667" y="12.3333"/>
      <point x="265.667" y="-11"/>
      <point x="215.333" y="-11" type="curve" smooth="yes"/>
      <point x="168" y="-11"/>
      <point x="134" y="7.66667"/>
      <point x="103.333" y="50" type="curve"/>
      <point x="107.333" y="14.3333"/>
      <point x="109.333" y="5.33333"/>
      <point x="122" y="-41.6667" type="curve" smooth="yes"/>
      <point x="134.333" y="-87.6667"/>
      <point x="139" y="-113"/>
      <point x="139" y="-137.333" type="curve" smooth="yes"/>
      <point x="139" y="-187.667"/>
      <point x="121.333" y="-214"/>
      <point x="87.3333" y="-214" type="curve" smooth="yes"/>
      <point x="54.3333" y="-214"/>
      <point x="35" y="-187.333"/>
    </contour>
  </outline>
</glyph>
<glyph name="onequarter" format="2">
  <advance width="750"/>
  <unicode hex="00BC"/>
  <outline>
    <contour>
      <point x="37" y="270" type="line"/>
      <point x="37" y="294" type="line"/>
      <point x="80" y="297"/>
      <point x="90" y="303"/>
      <point x="90" y="326" type="curve" smooth="yes"/>
      <point x="90" y="583" type="line" smooth="yes"/>
      <point x="90" y="605"/>
      <point x="88" y="611"/>
      <point x="82" y="611" type="curve" smooth="yes"/>
      <point x="76" y="611"/>
      <point x="76" y="611"/>
      <point x="39" y="598" type="curve"/>
      <point x="39" y="621" type="line"/>
      <point x="157" y="676" type="line"/>
      <point x="171" y="673" type="line"/>
      <point x="171" y="330" type="line" smooth="yes"/>
      <point x="171" y="304"/>
      <point x="182" y="297"/>
      <point x="228" y="294" type="curve"/>
      <point x="228" y="270" type="line"/>
    </contour>
    <contour>
      <point x="138" y="-14" type="line"/>
      <point x="591" y="676" type="line"/>
      <point x="637" y="676" type="line"/>
      <point x="187" y="-14" type="line"/>
    </contour>
    <contour>
      <point x="413" y="90" type="line"/>
      <point x="413" y="139" type="line"/>
      <point x="616" y="405" type="line"/>
      <point x="663" y="405" type="line"/>
      <point x="663" y="147" type="line"/>
      <point x="718" y="147" type="line"/>
      <point x="718" y="90" type="line"/>
      <point x="663" y="90" type="line"/>
      <point x="663" y="0" type="line"/>
      <point x="593" y="0" type="line"/>
      <point x="593" y="90" type="line"/>
    </contour>
    <contour>
      <point x="458" y="147" type="line"/>
      <point x="593" y="147" type="line"/>
      <point x="593" y="326" type="line"/>
    </contour>
  </outline>
</glyph>
<glyph name="Eth" format="2">
  <advance width="722"/>
  <unicode hex="00D0"/>
  <outline>
    <component base="D" xOffset="-0.666667"/>
    <contour>
      <point x="16" y="318.667" type="line"/>
      <point x="16" y="363.667" type="line"/>
      <point x="357.667" y="363.667" type="line"/>
      <point x="357.667" y="318.667" type="line"/>
    </contour>
  </outline>
</glyph>
<glyph name="germandbls" format="2">
  <advance width="519"/>
  <unicode hex="00DF"/>
  <outline>
    <contour>
      <point x="14.3333" y="0" type="line"/>
      <point x="14.3333" y="18" type="line"/>
      <point x="62" y="23"/>
      <point x="72" y="34.3333"/>
      <point x="72" y="85" type="curve" smooth="yes"/>
      <point x="72" y="470.828" type="line" smooth="yes"/>
      <point x="72" y="586.523"/>
      <point x="124.053" y="685.667"/>
      <point x="258.831" y="685.667" type="curve" smooth="yes"/>
      <point x="367" y="685.667"/>
      <point x="439.333" y="622.414"/>
      <point x="439.333" y="530.371" type="curve" smooth="yes"/>
      <point x="439.333" y="456.586"/>
      <point x="393.077" y="408.557"/>
      <point x="295.431" y="381.684" type="curve"/>
      <point x="406.306" y="361.779"/>
      <point x="484.333" y="303.001"/>
      <point x="484.333" y="185.179" type="curve" smooth="yes"/>
      <point x="484.333" y="78"/>
      <point x="418.539" y="-10"/>
      <point x="315.595" y="-10" type="curve" smooth="yes"/>
      <point x="272.989" y="-10"/>
      <point x="245.191" y="6.64309"/>
      <point x="222.601" y="26.9747" type="curve"/>
      <point x="253.738" y="58.0736" type="line"/>
      <point x="266.574" y="33.9072"/>
      <point x="284.003" y="21"/>
      <point x="307.648" y="21" type="curve" smooth="yes"/>
      <point x="353.375" y="21"/>
      <point x="373" y="64.3333"/>
      <point x="373" y="168.122" type="curve" smooth="yes"/>
      <point x="373" y="286.005"/>
      <point x="329.981" y="352.255"/>
      <point x="249.359" y="361.733" type="curve"/>
      <point x="249.359" y="394.321" type="line"/>
      <point x="311.017" y="401.737"/>
      <point x="335" y="437.268"/>
      <point x="335" y="518.034" type="curve" smooth="yes"/>
      <point x="335" y="609.461"/>
      <point x="305.441" y="657"/>
      <point x="251.676" y="657" type="curve" smooth="yes"/>
      <point x="203.892" y="657"/>
      <point x="174.333" y="620.103"/>
      <point x="174.333" y="560.262" type="curve" smooth="yes"/>
      <point x="174.333" y="0" type="line"/>
    </contour>
  </outline>
</glyph>
<glyph name="ae" format="2">
  <advance width="685"/>
  <unicode hex="00E6"/>
  <outline>
    <contour>
      <point x="36.3333" y="92.3884" type="curve" smooth="yes"/>
      <point x="36.3333" y="198.5"/>
      <point x="173.842" y="246.721"/>
      <point x="270.797" y="276.366" type="curve"/>
      <point x="282.667" y="319.817" type="line"/>
      <point x="282.667" y="356.269"/>
      <point x="280.667" y="404.065"/>
      <point x="240.667" y="410" type="curve"/>
      <point x="219.333" y="429.333"/>
      <point x="188" y="428.371"/>
      <point x="170.666" y="406.115" type="curve"/>
      <point x="156.667" y="399.605"/>
      <point x="149.72" y="389.92"/>
      <point x="151.773" y="378.568" type="curve"/>
      <point x="153.827" y="371.55"/>
      <point x="156.88" y="365.198"/>
      <point x="159.623" y="355.395" type="curve"/>
      <point x="164.214" y="333.389"/>
      <point x="152.597" y="322"/>
      <point x="135.555" y="316.605" type="curve"/>
      <point x="112.597" y="303.667"/>
      <point x="95.5969" y="311.892"/>
      <point x="82.2636" y="330.813" type="curve"/>
      <point x="68.2636" y="379.344"/>
      <point x="120.667" y="409"/>
      <point x="166.971" y="422.761" type="curve"/>
      <point x="195.333" y="446"/>
      <point x="242.333" y="455.667"/>
      <point x="304.235" y="433.086" type="curve"/>
      <point x="350.667" y="455"/>
      <point x="384" y="458.689"/>
      <point x="427.837" y="446.667" type="curve"/>
      <point x="519.667" y="458.333"/>
      <point x="555" y="407.296"/>
      <point x="578.378" y="341.667" type="curve"/>
      <point x="588.157" y="341.667"/>
      <point x="496.87" y="306.665"/>
      <point x="465.333" y="266.667" type="curve"/>
      <point x="380.667" y="242.667" type="line"/>
      <point x="380.667" y="177.963"/>
      <point x="382.667" y="114.804"/>
      <point x="466" y="113" type="curve"/>
      <point x="506" y="74.6667"/>
      <point x="550" y="91.6667"/>
      <point x="596.333" y="123" type="curve"/>
      <point x="614.015" y="122.438"/>
      <point x="630.632" y="126.709"/>
      <point x="645.333" y="142" type="curve"/>
      <point x="652.333" y="136.333" type="line"/>
      <point x="610" y="51.6667"/>
      <point x="549.667" y="-10.3333"/>
      <point x="450.521" y="-10.3333" type="curve" smooth="yes"/>
      <point x="388.667" y="-10.3333"/>
      <point x="351" y="11.6667"/>
      <point x="316.333" y="66.3333" type="curve"/>
      <point x="266.333" y="21.6667"/>
      <point x="216.667" y="-12"/>
      <point x="154.367" y="-12" type="curve" smooth="yes"/>
      <point x="86" y="-12"/>
      <point x="36.3333" y="28.6667"/>
    </contour>
    <contour>
      <point x="142.333" y="123.447" type="curve" smooth="yes"/>
      <point x="142.333" y="76.6667"/>
      <point x="167.667" y="41.6667"/>
      <point x="210.348" y="41.6667" type="curve" smooth="yes"/>
      <point x="245" y="41.6667"/>
      <point x="274.547" y="65.4113"/>
      <point x="300.333" y="92.2908" type="curve"/>
      <point x="284.317" y="144.399"/>
      <point x="280.667" y="192.827"/>
      <point x="280.667" y="251.333" type="curve"/>
      <point x="204" y="224"/>
      <point x="142.333" y="194.333"/>
    </contour>
    <contour>
      <point x="382.667" y="299" type="curve"/>
      <point x="536.333" y="299" type="line"/>
      <point x="536.312" y="324.514" type="line" smooth="yes"/>
      <point x="536.241" y="402.804"/>
      <point x="511.145" y="433"/>
      <point x="461.527" y="433" type="curve" smooth="yes"/>
      <point x="407.333" y="433"/>
      <point x="384.667" y="396.527"/>
    </contour>
  </outline>
</glyph>
<glyph name="eth" format="2">
  <advance width="500"/>
  <unicode hex="00F0"/>
  <outline>
    <contour>
      <point x="27.6667" y="223" type="curve" smooth="yes"/>
      <point x="27.6667" y="354.667"/>
      <point x="114" y="464.333"/>
      <point x="246.333" y="464.333" type="curve" smooth="yes"/>
      <point x="293" y="464.333"/>
      <point x="324.667" y="444.667"/>
      <point x="356" y="412.667" type="curve"/>
      <point x="358" y="415" type="line"/>
      <point x="344.333" y="477.333"/>
      <point x="310.333" y="531"/>
      <point x="265.333" y="574.667" type="curve"/>
      <point x="146.667" y="512.667" type="line"/>
      <point x="108.667" y="543" type="line"/>
      <point x="228.333" y="605.333" type="line"/>
      <point x="188" y="635"/>
      <point x="144" y="654.333"/>
      <point x="95.3333" y="662" type="curve"/>
      <point x="138.667" y="685.667" type="line"/>
      <point x="194.333" y="681"/>
      <point x="246.667" y="667"/>
      <point x="293.333" y="639" type="curve"/>
      <point x="386.667" y="687.667" type="line"/>
      <point x="425" y="657.667" type="line"/>
      <point x="333.667" y="610" type="line"/>
      <point x="430.925" y="529.1"/>
      <point x="472.667" y="411.317"/>
      <point x="472.667" y="288.729" type="curve" smooth="yes"/>
      <point x="472.667" y="133.667"/>
      <point x="399.667" y="-11.3333"/>
      <point x="250.617" y="-11.3333" type="curve" smooth="yes"/>
      <point x="120.333" y="-11.3333"/>
      <point x="27.6667" y="92.3333"/>
    </contour>
    <contour>
      <point x="136.667" y="259.333" type="curve" smooth="yes"/>
      <point x="136.667" y="151.433"/>
      <point x="162.501" y="17.6667"/>
      <point x="259.721" y="17.6667" type="curve" smooth="yes"/>
      <point x="341.333" y="17.6667"/>
      <point x="363.667" y="105.667"/>
      <point x="363.667" y="207.987" type="curve" smooth="yes"/>
      <point x="363.667" y="319"/>
      <point x="335.667" y="435.333"/>
      <point x="241.91" y="435.333" type="curve" smooth="yes"/>
      <point x="166.333" y="435.333"/>
      <point x="136.667" y="363.333"/>
    </contour>
  </outline>
</glyph>
<glyph name="divide" format="2">
  <advance width="566"/>
  <unicode hex="00F7"/>
  <outline>
    <contour>
      <point x="31" y="216.333" type="line"/>
      <point x="31" y="289.667" type="line"/>
      <point x="535" y="289.667" type="line"/>
      <point x="535" y="216.333" type="line"/>
    </contour>
    <contour>
      <point x="221" y="45" type="curve" smooth="yes"/>
      <point x="221" y="79"/>
      <point x="249.333" y="108"/>
      <point x="283" y="108" type="curve" smooth="yes"/>
      <point x="316.667" y="108"/>
      <point x="346" y="79"/>
      <point x="346" y="45" type="curve" smooth="yes"/>
      <point x="346" y="12.3333"/>
      <point x="316.333" y="-17"/>
      <point x="282.667" y="-17" type="curve" smooth="yes"/>
      <point x="249.333" y="-17"/>
      <point x="221" y="11.6667"/>
    </contour>
    <contour>
      <point x="221" y="459.667" type="curve" smooth="yes"/>
      <point x="221" y="493.667"/>
      <point x="249.667" y="523"/>
      <point x="283" y="523" type="curve" smooth="yes"/>
      <point x="316.667" y="523"/>
      <point x="346" y="493.667"/>
      <point x="346" y="459.667" type="curve" smooth="yes"/>
      <point x="346" y="427"/>
      <point x="316.667" y="398"/>
      <point x="282.667" y="398" type="curve" smooth="yes"/>
      <point x="249.333" y="398"/>
      <point x="221" y="426.333"/>
    </contour>
  </outline>
</glyph>
<glyph name="oslash" format="2">
  <advance width="500"/>
  <unicode hex="00F8"/>
  <outline>
    <contour>
      <point x="27.6667" y="228.333" type="curve" smooth="yes"/>
      <point x="27.6667" y="359"/>
      <point x="116.667" y="464.333"/>
      <point x="247.333" y="464.333" type="curve" smooth="yes"/>
      <point x="282" y="464.333"/>
      <point x="314" y="458.667"/>
      <point x="345.667" y="444" type="curve"/>
      <point x="403.667" y="550.333" type="line"/>
      <point x="445" y="550.333" type="line"/>
      <point x="377.333" y="426" type="line"/>
      <point x="443.667" y="379"/>
      <point x="472" y="308.333"/>
      <point x="472" y="228.333" type="curve" smooth="yes"/>
      <point x="472" y="98.3333"/>
      <point x="378.667" y="-11.3333"/>
      <point x="249" y="-11.3333" type="curve" smooth="yes"/>
      <point x="214.333" y="-11.3333"/>
      <point x="182" y="-4"/>
      <point x="150.667" y="11.6667" type="curve"/>
      <point x="86.3333" y="-105.333" type="line"/>
      <point x="46" y="-105.333" type="line"/>
      <point x="120" y="30.6667" type="line"/>
      <point x="56.6667" y="79.3333"/>
      <point x="27.6667" y="150.667"/>
    </contour>
    <contour>
      <point x="136.667" y="254" type="curve" smooth="yes"/>
      <point x="136.667" y="198.667"/>
      <point x="144.667" y="152.667"/>
      <point x="163" y="108" type="curve"/>
      <point x="316.667" y="391.333" type="line"/>
      <point x="294.333" y="423"/>
      <point x="273.667" y="435.333"/>
      <point x="242" y="435.333" type="curve" smooth="yes"/>
      <point x="174" y="435.333"/>
      <point x="136.667" y="376.667"/>
    </contour>
    <contour>
      <point x="180.333" y="66.6667" type="line"/>
      <point x="201.333" y="31.6667"/>
      <point x="223.333" y="17.6667"/>
      <point x="257.667" y="17.6667" type="curve" smooth="yes"/>
      <point x="327" y="17.6667"/>
      <point x="363" y="81.3333"/>
      <point x="363" y="208.333" type="curve" smooth="yes"/>
      <point x="363" y="260.333"/>
      <point x="355.333" y="299.667"/>
      <point x="335.667" y="352" type="curve"/>
    </contour>
  </outline>
</glyph>
<glyph name="Dcroat" format="2">
  <advance width="722"/>
  <unicode hex="0110"/>
  <outline>
    <contour>
      <point x="12.6667" y="108.667" type="line"/>
      <point x="12.6667" y="137" type="line"/>
      <point x="68.1427" y="138.333"/>
      <point x="94.2973" y="149.667"/>
      <point x="101.667" y="197" type="curve"/>
      <point x="101.667" y="404.667" type="line"/>
      <point x="91.1119" y="420"/>
      <point x="54.7492" y="425"/>
      <point x="18.6667" y="427" type="curve"/>
      <point x="18.6667" y="464.667" type="line"/>
      <point x="175.667" y="464.667" type="line"/>
      <point x="252.667" y="491.297"/>
      <point x="299.333" y="528.585"/>
      <point x="299.333" y="483.667" type="curve" smooth="yes"/>
      <point x="299.333" y="464"/>
      <point x="242" y="426"/>
      <point x="120.667" y="428.667" type="curve"/>
      <point x="15.3333" y="441.333" type="line"/>
      <point x="195.333" y="449.667" type="line"/>
      <point x="360" y="450.333"/>
      <point x="489" y="395.667"/>
      <point x="489" y="249.667" type="curve" smooth="yes"/>
      <point x="489" y="115.668"/>
      <point x="371" y="94.4271"/>
      <point x="232.333" y="108.667" type="curve"/>
    </contour>
    <contour>
      <point x="222.333" y="83" type="line" smooth="yes"/>
      <point x="222.333" y="41.3333"/>
      <point x="242" y="36.3333"/>
      <point x="279" y="36.3333" type="curve" smooth="yes"/>
      <point x="301.436" y="36.3333"/>
      <point x="319.989" y="44"/>
      <point x="332" y="59.3333" type="curve"/>
      <point x="469.333" y="74.3333"/>
      <point x="556" y="160.333"/>
      <point x="556" y="328.667" type="curve"/>
      <point x="555.741" y="356.667"/>
      <point x="550.184" y="381"/>
      <point x="541" y="398.667" type="curve"/>
      <point x="529.667" y="481"/>
      <point x="495.333" y="543.333"/>
      <point x="427" y="584" type="curve"/>
      <point x="373.667" y="624"/>
      <point x="315.333" y="628.667"/>
      <point x="255.333" y="625" type="curve" smooth="yes"/>
      <point x="232" y="623.333"/>
      <point x="222.333" y="616.667"/>
      <point x="222.333" y="589" type="curve" smooth="yes"/>
      <point x="222.333" y="363.667" type="line"/>
      <point x="357.667" y="363.667" type="line"/>
      <point x="357.667" y="318.667" type="line"/>
      <point x="222.333" y="318.667" type="line"/>
    </contour>
  </outline>
</glyph>
<glyph name="Hbar" format="2">
  <advance width="739"/>
  <unicode hex="0126"/>
  <outline>
    <contour>
      <point x="18" y="0" type="line"/>
      <point x="18" y="21" type="line"/>
      <point x="89.3333" y="25.6667"/>
      <point x="105" y="41.3333"/>
      <point x="105" y="112" type="curve" smooth="yes"/>
      <point x="105" y="450" type="line"/>
      <point x="59.3333" y="450" type="line"/>
      <point x="59.3333" y="495" type="line"/>
      <point x="105" y="495" type="line"/>
      <point x="105" y="562" type="line" smooth="yes"/>
      <point x="105" y="632"/>
      <point x="83.3333" y="640"/>
      <point x="18" y="645.667" type="curve"/>
      <point x="18" y="666.667" type="line"/>
      <point x="315.667" y="666.667" type="line"/>
      <point x="315.667" y="645.667" type="line"/>
      <point x="246" y="640.667"/>
      <point x="225.667" y="620.667"/>
      <point x="225.667" y="566.667" type="curve" smooth="yes"/>
      <point x="225.667" y="549.765"/>
      <point x="227" y="517.817"/>
      <point x="227" y="495" type="curve"/>
      <point x="509.333" y="495" type="line"/>
      <point x="509.333" y="562" type="line" smooth="yes"/>
      <point x="509.333" y="632.667"/>
      <point x="486.333" y="640.667"/>
      <point x="420.667" y="645.667" type="curve"/>
      <point x="420.667" y="666.667" type="line"/>
      <point x="719.333" y="666.667" type="line"/>
      <point x="719.333" y="645.667" type="line"/>
      <point x="650" y="640.667"/>
      <point x="630" y="620.333"/>
      <point x="630" y="566.667" type="curve" smooth="yes"/>
      <point x="630" y="549.765"/>
      <point x="631.333" y="517.817"/>
      <point x="631.333" y="495" type="curve"/>
      <point x="676.333" y="495" type="line"/>
      <point x="676.333" y="450" type="line"/>
      <point x="631.333" y="450" type="line"/>
      <point x="631.333" y="104.667" type="line" smooth="yes"/>
      <point x="631.333" y="36.3333"/>
      <point x="654.667" y="25.6667"/>
      <point x="719.333" y="21" type="curve"/>
      <point x="719.333" y="0" type="line"/>
      <point x="420.667" y="0" type="line"/>
      <point x="420.667" y="21" type="line"/>
      <point x="492" y="25.6667"/>
      <point x="509.333" y="40.6667"/>
      <point x="509.333" y="112" type="curve" smooth="yes"/>
      <point x="509.333" y="318.667" type="line"/>
      <point x="227" y="318.667" type="line"/>
      <point x="227" y="104.667" type="line" smooth="yes"/>
      <point x="227" y="36"/>
      <point x="251" y="25.6667"/>
      <point x="315.667" y="21" type="curve"/>
      <point x="315.667" y="0" type="line"/>
    </contour>
    <contour>
      <point x="227" y="363.667" type="line"/>
      <point x="509.333" y="363.667" type="line"/>
      <point x="509.333" y="450" type="line"/>
      <point x="227" y="450" type="line"/>
    </contour>
  </outline>
</glyph>
<glyph name="kgreenlandic" format="2">
  <advance width="524"/>
  <unicode hex="0138"/>
  <outline>
    <contour>
      <point x="17.3333" y="0" type="line"/>
      <point x="17.3333" y="18" type="line"/>
      <point x="66.3333" y="22"/>
      <point x="83.3333" y="35"/>
      <point x="83.3333" y="74.6667" type="curve" smooth="yes"/>
      <point x="83.3333" y="379.667" type="line" smooth="yes"/>
      <point x="83.3333" y="418.667"/>
      <point x="73.3333" y="428"/>
      <point x="17.6667" y="436.333" type="curve"/>
      <point x="17.6667" y="454.333" type="line"/>
      <point x="253" y="454.333" type="line"/>
      <point x="253" y="436.333" type="line"/>
      <point x="201.797" y="429.476"/>
      <point x="185.667" y="421.185"/>
      <point x="185.667" y="379" type="curve" smooth="yes"/>
      <point x="185.667" y="256.333" type="line"/>
      <point x="319.667" y="380.333" type="line" smooth="yes"/>
      <point x="332.667" y="392"/>
      <point x="342" y="407.333"/>
      <point x="342" y="416.16" type="curve" smooth="yes"/>
      <point x="342" y="429.167"/>
      <point x="323.972" y="434.382"/>
      <point x="289" y="437.333" type="curve"/>
      <point x="289" y="454.333" type="line"/>
      <point x="496.333" y="454.333" type="line"/>
      <point x="496.333" y="436.735" type="line"/>
      <point x="489.293" y="436.735" type="line" smooth="yes"/>
      <point x="433.404" y="436.735"/>
      <point x="387.347" y="403.827"/>
      <point x="327.096" y="345.206" type="curve" smooth="yes"/>
      <point x="270" y="291" type="line"/>
      <point x="436.667" y="72.3333" type="line"/>
      <point x="467.667" y="34.3333"/>
      <point x="490" y="20.6667"/>
      <point x="523" y="18.6667" type="curve"/>
      <point x="523" y="0.666667" type="line"/>
      <point x="299.667" y="0.666667" type="line"/>
      <point x="299.667" y="18.6667" type="line"/>
      <point x="315.805" y="19"/>
      <point x="340.333" y="23.2829"/>
      <point x="340.333" y="33.599" type="curve" smooth="yes"/>
      <point x="340.333" y="40.3333"/>
      <point x="329.979" y="56.1371"/>
      <point x="318.333" y="72" type="curve" smooth="yes"/>
      <point x="196.482" y="230.236" type="line"/>
      <point x="185.667" y="219.333" type="line"/>
      <point x="185.667" y="74.6667" type="line" smooth="yes"/>
      <point x="185.667" y="32.1839"/>
      <point x="204.313" y="23.4049"/>
      <point x="253" y="18" type="curve"/>
      <point x="253" y="0" type="line"/>
    </contour>
  </outline>
</glyph>
<glyph name="Lslash" format="2">
  <advance width="630"/>
  <unicode hex="0141"/>
  <outline>
    <component base="L" xOffset="1"/>
    <contour>
      <point x="127.519" y="293.855" type="line"/>
      <point x="127.519" y="346.855" type="line"/>
      <point x="277.073" y="433.577" type="line"/>
      <point x="277.073" y="380.645" type="line"/>
    </contour>
    <contour>
      <point x="90.3333" y="273.414" type="line"/>
      <point x="90.3333" y="326.464" type="line"/>
      <point x="208" y="396.291" type="line"/>
      <point x="208" y="343.291" type="line"/>
    </contour>
  </outline>
</glyph>
<glyph name="lslash" format="2">
  <advance width="278"/>
  <unicode hex="0142"/>
  <outline>
    <component base="l"/>
    <contour>
      <point x="169.129" y="368.619" type="line"/>
      <point x="169.129" y="414.362" type="line"/>
      <point x="273.667" y="491.333" type="line"/>
      <point x="273.667" y="445.333" type="line"/>
    </contour>
    <contour>
      <point x="6" y="255.667" type="line"/>
      <point x="6" y="301.667" type="line"/>
      <point x="109.401" y="377.14" type="line"/>
      <point x="109.401" y="331.174" type="line"/>
    </contour>
  </outline>
</glyph>
<glyph name="eng" format="2">
  <advance width="519"/>
  <unicode hex="014B"/>
  <outline>
    <contour>
      <point x="19" y="0" type="line"/>
      <point x="19" y="18" type="line"/>
      <point x="68" y="23.6667"/>
      <point x="78" y="34"/>
      <point x="78" y="74.6667" type="curve" smooth="yes"/>
      <point x="78" y="381.333" type="line" smooth="yes"/>
      <point x="78" y="418.872"/>
      <point x="58.3333" y="435.439"/>
      <point x="17.6667" y="441" type="curve"/>
      <point x="17.6667" y="460.333" type="line"/>
      <point x="178.333" y="460.333" type="line"/>
      <point x="178.333" y="381.333" type="line"/>
      <point x="235.667" y="443.667"/>
      <point x="271.667" y="464.333"/>
      <point x="320.086" y="464.333" type="curve" smooth="yes"/>
      <point x="399" y="464.333"/>
      <point x="446" y="408.667"/>
      <point x="446" y="317.333" type="curve" smooth="yes"/>
      <point x="446" y="0.666667" type="line" smooth="yes"/>
      <point x="446" y="-133.065"/>
      <point x="405.006" y="-213"/>
      <point x="289.119" y="-213" type="curve" smooth="yes"/>
      <point x="238.988" y="-213"/>
      <point x="201.137" y="-188.491"/>
      <point x="201.137" y="-148.137" type="curve" smooth="yes"/>
      <point x="201.137" y="-115.584"/>
      <point x="225.386" y="-96.6667"/>
      <point x="251.136" y="-96.6667" type="curve" smooth="yes"/>
      <point x="274.172" y="-96.6667"/>
      <point x="297.271" y="-111.883"/>
      <point x="297.271" y="-136.378" type="curve" smooth="yes"/>
      <point x="297.271" y="-147.542"/>
      <point x="292.39" y="-157.423"/>
      <point x="286.655" y="-166.947" type="curve" smooth="yes"/>
      <point x="283.424" y="-172.43"/>
      <point x="281.494" y="-176.381"/>
      <point x="281.5" y="-179.129" type="curve" smooth="yes"/>
      <point x="281.506" y="-183.55"/>
      <point x="286.791" y="-186.429"/>
      <point x="295.667" y="-186.429" type="curve" smooth="yes"/>
      <point x="332.853" y="-186.429"/>
      <point x="343.667" y="-102.632"/>
      <point x="343.667" y="-62" type="curve" smooth="yes"/>
      <point x="343.667" y="313" type="line" smooth="yes"/>
      <point x="343.667" y="375.667"/>
      <point x="322" y="405.333"/>
      <point x="276.139" y="405.333" type="curve" smooth="yes"/>
      <point x="244.008" y="405.333"/>
      <point x="218.095" y="389.748"/>
      <point x="180.333" y="348" type="curve"/>
      <point x="180.333" y="73.6667" type="line" smooth="yes"/>
      <point x="180.333" y="34.6667"/>
      <point x="194.333" y="22.3333"/>
      <point x="240.667" y="18" type="curve"/>
      <point x="240.667" y="0" type="line"/>
    </contour>
  </outline>
</glyph>
<glyph name="oe" format="2">
  <advance width="722"/>
  <unicode hex="0153"/>
  <outline>
    <contour>
      <point x="27.3333" y="231.371" type="curve" smooth="yes"/>
      <point x="27.3333" y="374.103"/>
      <point x="104.823" y="464.333"/>
      <point x="234.469" y="464.333" type="curve" smooth="yes"/>
      <point x="303.347" y="464.333"/>
      <point x="351.621" y="438.118"/>
      <point x="380.333" y="396.627" type="curve"/>
      <point x="411.192" y="440.762"/>
      <point x="458.43" y="464.333"/>
      <point x="515.092" y="464.333" type="curve" smooth="yes"/>
      <point x="623.172" y="464.333"/>
      <point x="677.972" y="380.372"/>
      <point x="680.333" y="266.333" type="curve"/>
      <point x="427.702" y="266.333" type="line"/>
      <point x="427.702" y="243.678" type="line" smooth="yes"/>
      <point x="427.702" y="124.657"/>
      <point x="469.769" y="57.3333"/>
      <point x="546.037" y="57.3333" type="curve" smooth="yes"/>
      <point x="593.477" y="57.3333"/>
      <point x="637.772" y="84.8403"/>
      <point x="678" y="138.333" type="curve"/>
      <point x="692" y="129" type="line"/>
      <point x="636.789" y="26.119"/>
      <point x="589.687" y="-11.3333"/>
      <point x="515.733" y="-11.3333" type="curve" smooth="yes"/>
      <point x="453.526" y="-11.3333"/>
      <point x="409.32" y="15.866"/>
      <point x="383" y="68" type="curve"/>
      <point x="349.058" y="15.4485"/>
      <point x="300.435" y="-11.3333"/>
      <point x="235.969" y="-11.3333" type="curve" smooth="yes"/>
      <point x="113.667" y="-11.3333"/>
      <point x="27.3333" y="80.2381"/>
    </contour>
    <contour>
      <point x="135.667" y="233.346" type="curve" smooth="yes"/>
      <point x="135.667" y="118.333"/>
      <point x="150.667" y="16"/>
      <point x="228.777" y="16" type="curve" smooth="yes"/>
      <point x="311.234" y="16"/>
      <point x="331.333" y="128.336"/>
      <point x="331.333" y="228.333" type="curve" smooth="yes"/>
      <point x="331.333" y="318.043"/>
      <point x="310.427" y="434.333"/>
      <point x="224.529" y="434.333" type="curve" smooth="yes"/>
      <point x="149.667" y="434.333"/>
      <point x="135.667" y="344.747"/>
    </contour>
    <contour>
      <point x="427.702" y="298.667" type="line"/>
      <point x="576.333" y="298.667" type="line"/>
      <point x="576.333" y="335.073" type="line" smooth="yes"/>
      <point x="576.333" y="394.304"/>
      <point x="548.333" y="434.333"/>
      <point x="503.693" y="434.333" type="curve" smooth="yes"/>
      <point x="458.957" y="434.333"/>
      <point x="427.702" y="393.372"/>
      <point x="427.702" y="324.756" type="curve" smooth="yes"/>
    </contour>
  </outline>
</glyph>
<glyph name="Tbar" format="2">
  <advance width="630"/>
  <unicode hex="0166"/>
  <outline>
    <component base="T"/>
    <contour>
      <point x="166" y="304.333" type="line"/>
      <point x="166" y="349.333" type="line"/>
      <point x="463.333" y="349.333" type="line"/>
      <point x="463.333" y="304.333" type="line"/>
    </contour>
  </outline>
</glyph>
<glyph name="tbar" format="2">
  <advance width="278"/>
  <unicode hex="0167"/>
  <outline>
    <contour>
      <point x="13" y="300" type="line"/>
      <point x="13" y="344" type="line"/>
      <point x="70" y="344" type="line"/>
      <point x="70" y="418" type="line"/>
      <point x="17" y="418" type="line"/>
      <point x="15" y="420"/>
      <point x="13" y="422"/>
      <point x="13" y="425" type="curve" smooth="yes"/>
      <point x="13" y="434"/>
      <point x="49" y="457"/>
      <point x="57" y="465" type="curve" smooth="yes"/>
      <point x="92" y="499"/>
      <point x="119" y="539"/>
      <point x="147" y="579" type="curve"/>
      <point x="155" y="580"/>
      <point x="154" y="571"/>
      <point x="154" y="566" type="curve" smooth="yes"/>
      <point x="154" y="450" type="line"/>
      <point x="255" y="450" type="line"/>
      <point x="255" y="418" type="line"/>
      <point x="154" y="418" type="line"/>
      <point x="154" y="344" type="line"/>
      <point x="255" y="344" type="line"/>
      <point x="255" y="300" type="line"/>
      <point x="154" y="300" type="line"/>
      <point x="154" y="127" type="line" smooth="yes"/>
      <point x="154" y="92"/>
      <point x="158" y="42"/>
      <point x="205" y="42" type="curve" smooth="yes"/>
      <point x="232" y="42"/>
      <point x="250" y="57"/>
      <point x="266" y="77" type="curve"/>
      <point x="279" y="66" type="line"/>
      <point x="256" y="25"/>
      <point x="210" y="-10"/>
      <point x="162" y="-10" type="curve" smooth="yes"/>
      <point x="86" y="-10"/>
      <point x="70" y="52"/>
      <point x="70" y="117" type="curve" smooth="yes"/>
      <point x="70" y="300" type="line"/>
    </contour>
  </outline>
</glyph>
<glyph name="florin" format="2">
  <advance width="500"/>
  <unicode hex="0192"/>
  <outline>
    <contour>
      <point x="4.66667" y="-107.975" type="curve" smooth="yes"/>
      <point x="4.66667" y="-77"/>
      <point x="24.6667" y="-56.6667"/>
      <point x="52.0991" y="-56.6667" type="curve" smooth="yes"/>
      <point x="78.6667" y="-56.6667"/>
      <point x="95.3333" y="-75.6964"/>
      <point x="95.3333" y="-99.4446" type="curve" smooth="yes"/>
      <point x="95.3333" y="-114.32"/>
      <point x="88.7367" y="-128.184"/>
      <point x="79.3333" y="-137.667" type="curve"/>
      <point x="80.6417" y="-145.449"/>
      <point x="89" y="-151.667"/>
      <point x="102.361" y="-151.667" type="curve" smooth="yes"/>
      <point x="139.667" y="-151.667"/>
      <point x="162.789" y="-102.537"/>
      <point x="173.667" y="2" type="curve"/>
      <point x="210" y="382" type="line"/>
      <point x="95.3333" y="382" type="line"/>
      <point x="102" y="418" type="line"/>
      <point x="214" y="418" type="line"/>
      <point x="233.518" y="542.324"/>
      <point x="280.774" y="686"/>
      <point x="396.742" y="686" type="curve" smooth="yes"/>
      <point x="452.988" y="686"/>
      <point x="492.667" y="653.704"/>
      <point x="492.667" y="613.435" type="curve" smooth="yes"/>
      <point x="492.667" y="584.56"/>
      <point x="472.054" y="563.667"/>
      <point x="443.454" y="563.667" type="curve" smooth="yes"/>
      <point x="417.565" y="563.667"/>
      <point x="401" y="580.257"/>
      <point x="401" y="603.101" type="curve" smooth="yes"/>
      <point x="401" y="615.505"/>
      <point x="405.93" y="630.644"/>
      <point x="415.667" y="642.429" type="curve"/>
      <point x="413.562" y="649.354"/>
      <point x="405.775" y="655.333"/>
      <point x="392.399" y="655.333" type="curve" smooth="yes"/>
      <point x="338.777" y="655.333"/>
      <point x="323.094" y="561.227"/>
      <point x="318.333" y="498.342" type="curve" smooth="yes"/>
      <point x="311.333" y="418" type="line"/>
      <point x="436" y="418" type="line"/>
      <point x="429.333" y="382" type="line"/>
      <point x="308.667" y="382" type="line"/>
      <point x="292.752" y="220.395" type="line" smooth="yes"/>
      <point x="281.659" y="104.168"/>
      <point x="242.009" y="-177.667"/>
      <point x="88.6818" y="-177.667" type="curve" smooth="yes"/>
      <point x="38.6667" y="-177.667"/>
      <point x="4.66667" y="-148.333"/>
    </contour>
  </outline>
</glyph>
<glyph name="uni019F" format="2">
  <advance width="741"/>
  <unicode hex="019F"/>
  <outline>
    <contour>
      <point x="34.3333" y="331.667" type="curve" smooth="yes"/>
      <point x="34.3333" y="530.333"/>
      <point x="169.333" y="681"/>
      <point x="371.667" y="681" type="curve" smooth="yes"/>
      <point x="571.333" y="681"/>
      <point x="706.333" y="529.333"/>
      <point x="706.333" y="332" type="curve" smooth="yes"/>
      <point x="706.333" y="133.667"/>
      <point x="572" y="-15.6667"/>
      <point x="370.333" y="-15.6667" type="curve" smooth="yes"/>
      <point x="168.667" y="-15.6667"/>
      <point x="34.3333" y="133.333"/>
    </contour>
    <contour>
      <point x="170" y="319.667" type="line"/>
      <point x="170" y="160.667"/>
      <point x="227.667" y="19.3333"/>
      <point x="370.333" y="19.3333" type="curve" smooth="yes"/>
      <point x="515.667" y="19.3333"/>
      <point x="571.333" y="171.333"/>
      <point x="571.333" y="319.667" type="curve"/>
    </contour>
    <contour>
      <point x="170.333" y="362.667" type="curve"/>
      <point x="570.333" y="362.667" type="line"/>
      <point x="570.333" y="486"/>
      <point x="515.333" y="646"/>
      <point x="368" y="646" type="curve" smooth="yes"/>
      <point x="227.667" y="646"/>
      <point x="170.333" y="489.333"/>
    </contour>
  </outline>
</glyph>
<glyph name="Ohorn" format="2">
  <advance width="756"/>
  <unicode hex="01A0"/>
  <outline>
    <component base="O"/>
    <contour>
      <point x="547.333" y="630.667" type="line" smooth="yes"/>
      <point x="588.67" y="631.324"/>
      <point x="625.333" y="640.339"/>
      <point x="625.333" y="664.219" type="curve" smooth="yes"/>
      <point x="625.333" y="674.798"/>
      <point x="618.022" y="682.502"/>
      <point x="609.736" y="691.222" type="curve" smooth="yes"/>
      <point x="597.911" y="703.785"/>
      <point x="586.333" y="716.615"/>
      <point x="586.333" y="739.184" type="curve" smooth="yes"/>
      <point x="586.333" y="777"/>
      <point x="618.667" y="791.333"/>
      <point x="642.942" y="791.333" type="curve" smooth="yes"/>
      <point x="680.667" y="791.333"/>
      <point x="701" y="757.667"/>
      <point x="701" y="720.259" type="curve" smooth="yes"/>
      <point x="701" y="656"/>
      <point x="640.995" y="614.196"/>
      <point x="569.333" y="613.667" type="curve" smooth="yes"/>
      <point x="529.891" y="613.378" type="line"/>
      <point x="529.694" y="630.528" type="line"/>
    </contour>
  </outline>
</glyph>
<glyph name="ohorn" format="2">
  <advance width="513"/>
  <unicode hex="01A1"/>
  <outline>
    <contour>
      <point x="367.418" y="406.894" type="line"/>
      <point x="381.625" y="413.15"/>
      <point x="389.2" y="424.068"/>
      <point x="392.538" y="431.683" type="curve"/>
      <point x="385.647" y="437.994"/>
      <point x="393.617" y="449.515"/>
      <point x="397.333" y="461" type="curve"/>
      <point x="416.504" y="479.459"/>
      <point x="440.824" y="499.304"/>
      <point x="457.456" y="508.486" type="curve"/>
      <point x="449.22" y="514.606"/>
      <point x="446" y="518.48"/>
      <point x="446" y="522.76" type="curve"/>
      <point x="446" y="520.642"/>
      <point x="440.116" y="517.308"/>
      <point x="433.764" y="512" type="curve"/>
      <point x="451.355" y="511.329"/>
      <point x="453.889" y="494.608"/>
      <point x="449.921" y="469.183" type="curve"/>
      <point x="449.934" y="438.558"/>
      <point x="426.135" y="418.851"/>
      <point x="384.667" y="410.667" type="curve" smooth="yes"/>
    </contour>
    <contour>
      <point x="27.6667" y="226.667" type="curve" smooth="yes"/>
      <point x="27.6667" y="366.733"/>
      <point x="116.728" y="464.333"/>
      <point x="246.667" y="464.333" type="curve" smooth="yes"/>
      <point x="376.605" y="464.333"/>
      <point x="465.667" y="366.733"/>
      <point x="465.667" y="226.667" type="curve" smooth="yes"/>
      <point x="465.667" y="86.6667"/>
      <point x="376.667" y="-11.3333"/>
      <point x="246.667" y="-11.3333" type="curve" smooth="yes"/>
      <point x="116.667" y="-11.3333"/>
      <point x="27.6667" y="86.6667"/>
    </contour>
    <contour>
      <point x="136.667" y="226.667" type="curve" smooth="yes"/>
      <point x="136.667" y="92.6923"/>
      <point x="173.568" y="17.6667"/>
      <point x="246.667" y="17.6667" type="curve" smooth="yes"/>
      <point x="319.765" y="17.6667"/>
      <point x="356.667" y="92.6923"/>
      <point x="356.667" y="226.667" type="curve" smooth="yes"/>
      <point x="356.667" y="360.513"/>
      <point x="319.811" y="435.333"/>
      <point x="246.667" y="435.333" type="curve" smooth="yes"/>
      <point x="173.522" y="435.333"/>
      <point x="136.667" y="360.513"/>
    </contour>
  </outline>
</glyph>
<glyph name="Uhorn" format="2">
  <advance width="769"/>
  <unicode hex="01AF"/>
  <outline>
    <contour>
      <point x="14.6667" y="645.667" type="curve"/>
      <point x="14.6667" y="666.667" type="line"/>
      <point x="316" y="666.667" type="line"/>
      <point x="316" y="645.667" type="line"/>
      <point x="237.793" y="639.964"/>
      <point x="223" y="630.131"/>
      <point x="223" y="555" type="curve" smooth="yes"/>
      <point x="223" y="230.333" type="line" smooth="yes"/>
      <point x="223" y="105.264"/>
      <point x="260.881" y="30"/>
      <point x="388.059" y="30" type="curve" smooth="yes"/>
      <point x="526.877" y="30"/>
      <point x="571" y="109.493"/>
      <point x="571" y="245.667" type="curve" smooth="yes"/>
      <point x="571" y="527.333" type="line" smooth="yes"/>
      <point x="571" y="618.333"/>
      <point x="553.667" y="639.667"/>
      <point x="475.667" y="645.667" type="curve"/>
      <point x="475.667" y="666.667" type="line"/>
      <point x="639" y="666.667" type="line" smooth="yes"/>
      <point x="673.667" y="666.667"/>
      <point x="701.667" y="671.333"/>
      <point x="701.667" y="690" type="curve" smooth="yes"/>
      <point x="701.667" y="700.667"/>
      <point x="699" y="704.333"/>
      <point x="691.585" y="710.748" type="curve" smooth="yes"/>
      <point x="683.064" y="718.092"/>
      <point x="663.333" y="735"/>
      <point x="663.333" y="763.964" type="curve" smooth="yes"/>
      <point x="663.333" y="793.68"/>
      <point x="684.998" y="815.667"/>
      <point x="718.841" y="815.667" type="curve" smooth="yes"/>
      <point x="754.302" y="815.667"/>
      <point x="780.667" y="783.964"/>
      <point x="780.667" y="742.006" type="curve" smooth="yes"/>
      <point x="780.667" y="679.081"/>
      <point x="736.976" y="652.765"/>
      <point x="686.556" y="645.538" type="curve" smooth="yes"/>
      <point x="637.08" y="638.139"/>
      <point x="615" y="610.814"/>
      <point x="615" y="527.333" type="curve" smooth="yes"/>
      <point x="615" y="251.667" type="line" smooth="yes"/>
      <point x="615" y="78.5636"/>
      <point x="542.606" y="-15.6667"/>
      <point x="357.815" y="-15.6667" type="curve" smooth="yes"/>
      <point x="191.252" y="-15.6667"/>
      <point x="102" y="63.9935"/>
      <point x="102" y="235.667" type="curve" smooth="yes"/>
      <point x="102" y="555" type="line" smooth="yes"/>
      <point x="102" y="627.667"/>
      <point x="90.6667" y="639.333"/>
    </contour>
  </outline>
</glyph>
<glyph name="uni020A" format="2">
  <advance width="348"/>
  <unicode hex="020A"/>
  <outline>
    <contour>
      <point x="13.3333" y="0" type="line"/>
      <point x="13.3333" y="21" type="line"/>
      <point x="94.3333" y="25.3333"/>
      <point x="109" y="38"/>
      <point x="109" y="104.667" type="curve" smooth="yes"/>
      <point x="109" y="562" type="line" smooth="yes"/>
      <point x="109" y="628.333"/>
      <point x="94" y="640.667"/>
      <point x="13.3333" y="645.667" type="curve"/>
      <point x="13.3333" y="666.667" type="line"/>
      <point x="328" y="666.667" type="line"/>
      <point x="328" y="645.667" type="line"/>
      <point x="247.333" y="642"/>
      <point x="231" y="628"/>
      <point x="231" y="562" type="curve" smooth="yes"/>
      <point x="231" y="104.667" type="line" smooth="yes"/>
      <point x="231" y="38.6667"/>
      <point x="248" y="24.6667"/>
      <point x="328" y="21" type="curve"/>
      <point x="328" y="0" type="line"/>
    </contour>
    <contour>
      <point x="30.3333" y="725.333" type="line"/>
      <point x="30.6667" y="837.333"/>
      <point x="101" y="880.333"/>
      <point x="170.667" y="880.333" type="curve" smooth="yes"/>
      <point x="240.333" y="880.333"/>
      <point x="308.667" y="836.333"/>
      <point x="310.667" y="725.333" type="curve"/>
      <point x="277.333" y="725.333" type="line"/>
      <point x="266" y="784.333"/>
      <point x="231.333" y="816.333"/>
      <point x="171" y="816.333" type="curve" smooth="yes"/>
      <point x="111" y="816.333"/>
      <point x="73.6667" y="785"/>
      <point x="63.6667" y="725.333" type="curve"/>
    </contour>
  </outline>
</glyph>
<glyph name="uni020C" format="2">
  <advance width="741"/>
  <unicode hex="020C"/>
  <outline>
    <contour>
      <point x="34.3333" y="331.667" type="curve" smooth="yes"/>
      <point x="34.3333" y="530.333"/>
      <point x="169.333" y="681"/>
      <point x="371.667" y="681" type="curve" smooth="yes"/>
      <point x="571.333" y="681"/>
      <point x="706.333" y="529.333"/>
      <point x="706.333" y="332" type="curve" smooth="yes"/>
      <point x="706.333" y="133.667"/>
      <point x="572" y="-15.6667"/>
      <point x="370.333" y="-15.6667" type="curve" smooth="yes"/>
      <point x="168.667" y="-15.6667"/>
      <point x="34.3333" y="133.333"/>
    </contour>
    <contour>
      <point x="127" y="865" type="curve" smooth="yes"/>
      <point x="127" y="887"/>
      <point x="142" y="901"/>
      <point x="166.333" y="901" type="curve" smooth="yes"/>
      <point x="182.667" y="901"/>
      <point x="194.333" y="894.667"/>
      <point x="212" y="876.333" type="curve" smooth="yes"/>
      <point x="355.667" y="725.333" type="line"/>
      <point x="310.333" y="725.333" type="line"/>
      <point x="160.333" y="819.333" type="line" smooth="yes"/>
      <point x="135.667" y="834.667"/>
      <point x="127" y="846.667"/>
    </contour>
    <contour>
      <point x="169.333" y="329.333" type="curve" smooth="yes"/>
      <point x="169.333" y="171.333"/>
      <point x="221.333" y="19.3333"/>
      <point x="370.333" y="19.3333" type="curve" smooth="yes"/>
      <point x="519.333" y="19.3333"/>
      <point x="571.333" y="171.333"/>
      <point x="571.333" y="330.333" type="curve" smooth="yes"/>
      <point x="571.333" y="489"/>
      <point x="517.333" y="646"/>
      <point x="371.333" y="646" type="curve" smooth="yes"/>
      <point x="223" y="646"/>
      <point x="169.333" y="490.667"/>
    </contour>
    <contour>
      <point x="297.667" y="865" type="curve" smooth="yes"/>
      <point x="297.667" y="887"/>
      <point x="312.667" y="901"/>
      <point x="337" y="901" type="curve" smooth="yes"/>
      <point x="353.333" y="901"/>
      <point x="365" y="894.667"/>
      <point x="382.667" y="876.333" type="curve" smooth="yes"/>
      <point x="526.333" y="725.333" type="line"/>
      <point x="481" y="725.333" type="line"/>
      <point x="331" y="819.333" type="line" smooth="yes"/>
      <point x="306.333" y="834.667"/>
      <point x="297.667" y="846.667"/>
    </contour>
  </outline>
</glyph>
<glyph name="uni0214" format="2">
  <advance width="722"/>
  <unicode hex="0214"/>
  <outline>
    <contour>
      <point x="14.6667" y="645.667" type="curve"/>
      <point x="14.6667" y="666.667" type="line"/>
      <point x="316" y="666.667" type="line"/>
      <point x="316" y="645.667" type="line"/>
      <point x="246.667" y="640.333"/>
      <point x="234" y="631.667"/>
      <point x="230" y="580.333" type="curve"/>
      <point x="225" y="548.675"/>
      <point x="223" y="407.62"/>
      <point x="223" y="341.667" type="curve" smooth="yes"/>
      <point x="223" y="273.853"/>
      <point x="227.667" y="178.71"/>
      <point x="239.667" y="142.333" type="curve"/>
      <point x="257.667" y="65.6667"/>
      <point x="305.333" y="30"/>
      <point x="386.667" y="30" type="curve" smooth="yes"/>
      <point x="476.333" y="30"/>
      <point x="537.667" y="73.6667"/>
      <point x="555.667" y="155" type="curve"/>
      <point x="566.333" y="187.409"/>
      <point x="571" y="277.183"/>
      <point x="571" y="347.333" type="curve" smooth="yes"/>
      <point x="571" y="412.882"/>
      <point x="564.333" y="514.165"/>
      <point x="538.333" y="560.333" type="curve"/>
      <point x="538.333" y="629.288"/>
      <point x="527.667" y="648.21"/>
      <point x="475.667" y="654" type="curve"/>
      <point x="549" y="666.667" type="line"/>
      <point x="703.667" y="658.333" type="line"/>
      <point x="682.333" y="651.849"/>
      <point x="677.667" y="639.87"/>
      <point x="677.667" y="617.333" type="curve"/>
      <point x="623" y="586.496"/>
      <point x="615" y="523.511"/>
      <point x="615" y="425.667" type="curve" smooth="yes"/>
      <point x="615" y="358.791"/>
      <point x="606.333" y="218.054"/>
      <point x="591.333" y="182.667" type="curve"/>
      <point x="577" y="119"/>
      <point x="547.667" y="81"/>
      <point x="507" y="53" type="curve"/>
      <point x="456.667" y="7.66667"/>
      <point x="385.333" y="-9.66667"/>
      <point x="296.667" y="2" type="curve"/>
      <point x="163" y="16.6667"/>
      <point x="102" y="87.6667"/>
      <point x="102" y="235.667" type="curve" smooth="yes"/>
      <point x="102" y="555" type="line" smooth="yes"/>
      <point x="102" y="627.667"/>
      <point x="90.6667" y="639.333"/>
    </contour>
    <contour>
      <point x="137.667" y="865" type="curve" smooth="yes"/>
      <point x="137.667" y="887"/>
      <point x="152.667" y="901"/>
      <point x="177" y="901" type="curve" smooth="yes"/>
      <point x="193.333" y="901"/>
      <point x="205" y="894.667"/>
      <point x="222.667" y="876.333" type="curve" smooth="yes"/>
      <point x="366.333" y="725.333" type="line"/>
      <point x="321" y="725.333" type="line"/>
      <point x="171" y="819.333" type="line" smooth="yes"/>
      <point x="146.333" y="834.667"/>
      <point x="137.667" y="846.667"/>
    </contour>
    <contour>
      <point x="308.333" y="865" type="curve" smooth="yes"/>
      <point x="308.333" y="887"/>
      <point x="323.333" y="901"/>
      <point x="347.667" y="901" type="curve" smooth="yes"/>
      <point x="364" y="901"/>
      <point x="375.667" y="894.667"/>
      <point x="393.333" y="876.333" type="curve" smooth="yes"/>
      <point x="537" y="725.333" type="line"/>
      <point x="491.667" y="725.333" type="line"/>
      <point x="341.667" y="819.333" type="line" smooth="yes"/>
      <point x="317" y="834.667"/>
      <point x="308.333" y="846.667"/>
    </contour>
  </outline>
</glyph>
<glyph name="uni0216" format="2">
  <advance width="722"/>
  <unicode hex="0216"/>
  <outline>
    <contour>
      <point x="14.6667" y="645.667" type="curve"/>
      <point x="14.6667" y="666.667" type="line"/>
      <point x="316" y="666.667" type="line"/>
      <point x="316" y="645.667" type="line"/>
      <point x="246.667" y="640.333"/>
      <point x="234" y="631.667"/>
      <point x="230" y="580.333" type="curve"/>
      <point x="225" y="548.675"/>
      <point x="223" y="407.62"/>
      <point x="223" y="341.667" type="curve" smooth="yes"/>
      <point x="223" y="273.853"/>
      <point x="227.667" y="178.71"/>
      <point x="239.667" y="142.333" type="curve"/>
      <point x="257.667" y="65.6667"/>
      <point x="305.333" y="30"/>
      <point x="386.667" y="30" type="curve" smooth="yes"/>
      <point x="476.333" y="30"/>
      <point x="537.667" y="73.6667"/>
      <point x="555.667" y="155" type="curve"/>
      <point x="566.333" y="187.409"/>
      <point x="571" y="277.183"/>
      <point x="571" y="347.333" type="curve" smooth="yes"/>
      <point x="571" y="412.882"/>
      <point x="564.333" y="514.165"/>
      <point x="538.333" y="560.333" type="curve"/>
      <point x="538.333" y="629.288"/>
      <point x="527.667" y="648.21"/>
      <point x="475.667" y="654" type="curve"/>
      <point x="549" y="666.667" type="line"/>
      <point x="703.667" y="658.333" type="line"/>
      <point x="682.333" y="651.849"/>
      <point x="677.667" y="639.87"/>
      <point x="677.667" y="617.333" type="curve"/>
      <point x="623" y="586.496"/>
      <point x="615" y="523.511"/>
      <point x="615" y="425.667" type="curve" smooth="yes"/>
      <point x="615" y="358.791"/>
      <point x="606.333" y="218.054"/>
      <point x="591.333" y="182.667" type="curve"/>
      <point x="577" y="119"/>
      <point x="547.667" y="81"/>
      <point x="507" y="53" type="curve"/>
      <point x="456.667" y="7.66667"/>
      <point x="385.333" y="-9.66667"/>
      <point x="296.667" y="2" type="curve"/>
      <point x="163" y="16.6667"/>
      <point x="102" y="87.6667"/>
      <point x="102" y="235.667" type="curve" smooth="yes"/>
      <point x="102" y="555" type="line" smooth="yes"/>
      <point x="102" y="627.667"/>
      <point x="90.6667" y="639.333"/>
    </contour>
    <contour>
      <point x="241.667" y="725.333" type="line"/>
      <point x="242" y="837.333"/>
      <point x="312.333" y="880.333"/>
      <point x="382" y="880.333" type="curve" smooth="yes"/>
      <point x="451.667" y="880.333"/>
      <point x="520" y="836.333"/>
      <point x="522" y="725.333" type="curve"/>
      <point x="488.667" y="725.333" type="line"/>
      <point x="477.333" y="784.333"/>
      <point x="442.667" y="816.333"/>
      <point x="382.333" y="816.333" type="curve" smooth="yes"/>
      <point x="322.333" y="816.333"/>
      <point x="285" y="785"/>
      <point x="275" y="725.333" type="curve"/>
    </contour>
  </outline>
</glyph>
<glyph name="uni0222" format="2">
  <advance width="566"/>
  <unicode hex="0222"/>
  <outline>
    <contour>
      <point x="35" y="532.667" type="curve" smooth="yes"/>
      <point x="35" y="640.667"/>
      <point x="120" y="681.667"/>
      <point x="229" y="681.667" type="curve"/>
      <point x="237" y="666.667" type="line"/>
      <point x="197" y="666.667"/>
      <point x="147.333" y="662"/>
      <point x="147.333" y="597.333" type="curve" smooth="yes"/>
      <point x="147.333" y="514"/>
      <point x="223.333" y="476"/>
      <point x="304" y="434" type="curve"/>
      <point x="390.667" y="474.667"/>
      <point x="453.667" y="519.333"/>
      <point x="453.667" y="583" type="curve" smooth="yes"/>
      <point x="453.667" y="640"/>
      <point x="386" y="657.667"/>
      <point x="346" y="657.667" type="curve"/>
      <point x="346" y="666.667" type="line"/>
      <point x="487.667" y="666.667" type="line"/>
      <point x="504.667" y="655.667"/>
      <point x="522" y="624.667"/>
      <point x="522" y="592.667" type="curve" smooth="yes"/>
      <point x="522" y="499.667"/>
      <point x="431.333" y="456.667"/>
      <point x="338" y="416" type="curve"/>
      <point x="416" y="381.333"/>
      <point x="520.667" y="318.667"/>
      <point x="520.667" y="204.667" type="curve" smooth="yes"/>
      <point x="520.667" y="82.6667"/>
      <point x="437.333" y="-15.6667"/>
      <point x="286.667" y="-15.6667" type="curve" smooth="yes"/>
      <point x="149.667" y="-15.6667"/>
      <point x="36.6667" y="54.6667"/>
      <point x="36.6667" y="180.667" type="curve" smooth="yes"/>
      <point x="36.6667" y="286"/>
      <point x="121.333" y="347.333"/>
      <point x="180.667" y="365.333" type="curve"/>
      <point x="104.667" y="405.333"/>
      <point x="35" y="454.667"/>
    </contour>
    <contour>
      <point x="131.333" y="195.333" type="curve" smooth="yes"/>
      <point x="131.333" y="57.3333"/>
      <point x="234.667" y="20"/>
      <point x="291.333" y="20" type="curve" smooth="yes"/>
      <point x="373.333" y="20"/>
      <point x="413.333" y="76.6667"/>
      <point x="413.333" y="152.667" type="curve" smooth="yes"/>
      <point x="413.333" y="260.667"/>
      <point x="302.667" y="304.667"/>
      <point x="216.667" y="347.333" type="curve"/>
      <point x="176.667" y="327.333"/>
      <point x="131.333" y="282"/>
    </contour>
  </outline>
</glyph>
<glyph name="uni0223" format="2">
  <advance width="477"/>
  <unicode hex="0223"/>
  <outline>
    <contour>
      <point x="30" y="536" type="curve" smooth="yes"/>
      <point x="30" y="600"/>
      <point x="61" y="648.667"/>
      <point x="132" y="681.667" type="curve"/>
      <point x="139" y="666.667" type="line"/>
      <point x="117" y="647.667"/>
      <point x="97.6667" y="620.667"/>
      <point x="97.6667" y="580.667" type="curve" smooth="yes"/>
      <point x="97.6667" y="502.667"/>
      <point x="193" y="451.667"/>
      <point x="263" y="413.667" type="curve"/>
      <point x="331" y="449.667"/>
      <point x="395.333" y="513"/>
      <point x="395.333" y="582.333" type="curve" smooth="yes"/>
      <point x="395.333" y="627.333"/>
      <point x="363" y="648.333"/>
      <point x="322" y="648.333" type="curve" smooth="yes"/>
      <point x="303" y="648.333"/>
      <point x="284.667" y="642.333"/>
      <point x="269.667" y="637.333" type="curve"/>
      <point x="265" y="647.667" type="line"/>
      <point x="364.333" y="710" type="line"/>
      <point x="391.333" y="705.333"/>
      <point x="448.667" y="687.667"/>
      <point x="448.667" y="611.667" type="curve" smooth="yes"/>
      <point x="448.667" y="518.333"/>
      <point x="372.333" y="441.333"/>
      <point x="290.333" y="397.333" type="curve"/>
      <point x="363.667" y="362.667"/>
      <point x="442" y="312"/>
      <point x="442" y="208" type="curve" smooth="yes"/>
      <point x="442" y="92"/>
      <point x="365.333" y="-11.3333"/>
      <point x="249.333" y="-11.3333" type="curve" smooth="yes"/>
      <point x="133.333" y="-11.3333"/>
      <point x="31" y="51.3333"/>
      <point x="31" y="173.333" type="curve" smooth="yes"/>
      <point x="31" y="276"/>
      <point x="116.667" y="333.333"/>
      <point x="162.667" y="356.333" type="curve"/>
      <point x="102.667" y="390"/>
      <point x="30" y="453.333"/>
    </contour>
    <contour>
      <point x="115" y="183.333" type="curve" smooth="yes"/>
      <point x="115" y="62.6667"/>
      <point x="195.667" y="17.6667"/>
      <point x="261.333" y="17.6667" type="curve" smooth="yes"/>
      <point x="308.667" y="17.6667"/>
      <point x="360" y="55"/>
      <point x="360" y="156.333" type="curve" smooth="yes"/>
      <point x="360" y="259.333"/>
      <point x="271.333" y="301.333"/>
      <point x="192" y="339" type="curve"/>
      <point x="162.667" y="323"/>
      <point x="115" y="284.667"/>
    </contour>
  </outline>
</glyph>
<glyph name="uni02BB" format="2">
  <advance width="333"/>
  <unicode hex="02BB"/>
  <outline>
    <contour>
      <point x="92" y="608.333" type="curve" smooth="yes"/>
      <point x="92" y="676.333"/>
      <point x="135" y="724.667"/>
      <point x="216.333" y="761" type="curve"/>
      <point x="225.667" y="742" type="line"/>
      <point x="166.333" y="711.333"/>
      <point x="138.333" y="677.333"/>
      <point x="138.333" y="644.333" type="curve" smooth="yes"/>
      <point x="138.333" y="635.667"/>
      <point x="144" y="630.333"/>
      <point x="152.333" y="630.333" type="curve"/>
      <point x="153.464" y="630.333"/>
      <point x="159.617" y="630.505"/>
      <point x="162.359" y="631.595" type="curve"/>
      <point x="166.225" y="633.634"/>
      <point x="172.619" y="634.333"/>
      <point x="177.333" y="634.333" type="curve" smooth="yes"/>
      <point x="213" y="634.333"/>
      <point x="239" y="612.333"/>
      <point x="239" y="576.667" type="curve" smooth="yes"/>
      <point x="239" y="539.667"/>
      <point x="211.667" y="514"/>
      <point x="174.667" y="514" type="curve" smooth="yes"/>
      <point x="126.667" y="514"/>
      <point x="92" y="554"/>
    </contour>
  </outline>
</glyph>
<glyph name="apostrophe" format="2">
  <advance width="333"/>
  <unicode hex="02BC"/>
  <outline>
    <contour>
      <point x="92.6667" y="693" type="curve" smooth="yes"/>
      <point x="92.6667" y="730"/>
      <point x="120" y="755.667"/>
      <point x="157" y="755.667" type="curve" smooth="yes"/>
      <point x="205" y="755.667"/>
      <point x="239.667" y="715.667"/>
      <point x="239.667" y="661.333" type="curve" smooth="yes"/>
      <point x="239.667" y="593.333"/>
      <point x="196" y="545"/>
      <point x="115.333" y="514" type="curve"/>
      <point x="106" y="533" type="line"/>
      <point x="164.667" y="557.333"/>
      <point x="193.333" y="590"/>
      <point x="193.333" y="623" type="curve" smooth="yes"/>
      <point x="193.333" y="631.667"/>
      <point x="186.667" y="638.667"/>
      <point x="178.333" y="638.667" type="curve"/>
      <point x="176.196" y="638.618"/>
      <point x="172.707" y="638.765"/>
      <point x="166.659" y="636.922" type="curve"/>
      <point x="163.484" y="636.157"/>
      <point x="158.755" y="635.333"/>
      <point x="154.333" y="635.333" type="curve" smooth="yes"/>
      <point x="118.667" y="635.333"/>
      <point x="92.6667" y="657.333"/>
    </contour>
  </outline>
</glyph>
<glyph name="uni02BF" format="2">
  <advance width="210"/>
  <unicode hex="02BF"/>
  <outline>
    <contour>
      <point x="53.3333" y="621.667" type="curve" smooth="yes"/>
      <point x="53.3333" y="677.667"/>
      <point x="100.667" y="724"/>
      <point x="156.667" y="724" type="curve"/>
      <point x="156.667" y="685.333" type="line"/>
      <point x="122.667" y="685.333"/>
      <point x="92" y="656"/>
      <point x="92" y="621.333" type="curve" smooth="yes"/>
      <point x="92" y="587"/>
      <point x="121" y="559"/>
      <point x="156.667" y="559" type="curve"/>
      <point x="156.667" y="520.333" type="line"/>
      <point x="100.333" y="520.333"/>
      <point x="53.3333" y="565.333"/>
    </contour>
  </outline>
</glyph>
<glyph name="circumflex" format="2">
  <advance width="333"/>
  <unicode hex="02C6"/>
  <outline>
    <contour>
      <point x="6.66667" y="514" type="line"/>
      <point x="130" y="684" type="line"/>
      <point x="202" y="684" type="line"/>
      <point x="326.333" y="514" type="line"/>
      <point x="284.667" y="514" type="line"/>
      <point x="166" y="615.333" type="line"/>
      <point x="48" y="514" type="line"/>
    </contour>
  </outline>
</glyph>
<glyph name="breve" format="2">
  <advance width="333"/>
  <unicode hex="02D8"/>
  <outline>
    <contour>
      <point x="22.6667" y="673" type="curve"/>
      <point x="56.6667" y="673" type="line"/>
      <point x="66.6667" y="612"/>
      <point x="105.333" y="579.333"/>
      <point x="166.667" y="579.333" type="curve" smooth="yes"/>
      <point x="233.667" y="579.333"/>
      <point x="257.667" y="614"/>
      <point x="277" y="673" type="curve"/>
      <point x="311" y="673" type="line"/>
      <point x="303.667" y="584.667"/>
      <point x="262.667" y="514"/>
      <point x="165" y="514" type="curve" smooth="yes"/>
      <point x="68.6667" y="514"/>
      <point x="23" y="583"/>
    </contour>
  </outline>
</glyph>
<glyph name="ring" format="2">
  <advance width="333"/>
  <unicode hex="02DA"/>
  <outline>
    <contour>
      <point x="64.6667" y="623" type="curve" smooth="yes"/>
      <point x="64.6667" y="677.667"/>
      <point x="111" y="724"/>
      <point x="166.333" y="724" type="curve" smooth="yes"/>
      <point x="222.333" y="724"/>
      <point x="268.333" y="677.667"/>
      <point x="268.333" y="621.667" type="curve" smooth="yes"/>
      <point x="268.333" y="565.333"/>
      <point x="222.333" y="520.333"/>
      <point x="166" y="520.333" type="curve" smooth="yes"/>
      <point x="109" y="520.333"/>
      <point x="64.6667" y="565.667"/>
    </contour>
    <contour>
      <point x="103.333" y="622.333" type="curve" smooth="yes"/>
      <point x="103.333" y="587.667"/>
      <point x="131.333" y="559"/>
      <point x="165" y="559" type="curve" smooth="yes"/>
      <point x="200.667" y="559"/>
      <point x="229.667" y="587"/>
      <point x="229.667" y="621.333" type="curve" smooth="yes"/>
      <point x="229.667" y="656"/>
      <point x="200.667" y="685.333"/>
      <point x="166.667" y="685.333" type="curve" smooth="yes"/>
      <point x="132.333" y="685.333"/>
      <point x="103.333" y="656.667"/>
    </contour>
  </outline>
</glyph>
<glyph name="tilde" format="2">
  <advance width="333"/>
  <unicode hex="02DC"/>
  <outline>
    <contour>
      <point x="-4.66667" y="537.667" type="line"/>
      <point x="11.3333" y="609.667"/>
      <point x="47.3333" y="646.667"/>
      <point x="101.333" y="646.667" type="curve" smooth="yes"/>
      <point x="123" y="646.667"/>
      <point x="147.667" y="640.667"/>
      <point x="172.333" y="628.333" type="curve" smooth="yes"/>
      <point x="201.667" y="614.333" type="line" smooth="yes"/>
      <point x="222.333" y="604.667"/>
      <point x="236.333" y="600.333"/>
      <point x="250" y="600.333" type="curve" smooth="yes"/>
      <point x="274.333" y="600.333"/>
      <point x="287.667" y="612.667"/>
      <point x="303.333" y="650" type="curve"/>
      <point x="337" y="650" type="line"/>
      <point x="315.333" y="570.333"/>
      <point x="283.667" y="537"/>
      <point x="228" y="537" type="curve" smooth="yes"/>
      <point x="204.667" y="537"/>
      <point x="186.333" y="541.667"/>
      <point x="152.667" y="557.667" type="curve" smooth="yes"/>
      <point x="127.667" y="569.333" type="line" smooth="yes"/>
      <point x="103.333" y="580.333"/>
      <point x="91.3333" y="584"/>
      <point x="79" y="584" type="curve" smooth="yes"/>
      <point x="55" y="584"/>
      <point x="37.3333" y="567.667"/>
      <point x="28.6667" y="537.667" type="curve"/>
    </contour>
  </outline>
</glyph>
<glyph name="hungarumlaut" format="2">
  <advance width="333"/>
  <unicode hex="02DD"/>
  <outline>
    <contour>
      <point x="5.66667" y="514" type="line"/>
      <point x="149.333" y="665" type="line" smooth="yes"/>
      <point x="167" y="683.333"/>
      <point x="178.667" y="689.667"/>
      <point x="195" y="689.667" type="curve" smooth="yes"/>
      <point x="219.333" y="689.667"/>
      <point x="234.333" y="675.667"/>
      <point x="234.333" y="653.667" type="curve" smooth="yes"/>
      <point x="234.333" y="635.333"/>
      <point x="225.667" y="623.333"/>
      <point x="201" y="608" type="curve" smooth="yes"/>
      <point x="51" y="514" type="line"/>
    </contour>
    <contour>
      <point x="176.333" y="514" type="line"/>
      <point x="320" y="665" type="line" smooth="yes"/>
      <point x="337.667" y="683.333"/>
      <point x="349.333" y="689.667"/>
      <point x="365.667" y="689.667" type="curve" smooth="yes"/>
      <point x="390" y="689.667"/>
      <point x="405" y="675.667"/>
      <point x="405" y="653.667" type="curve" smooth="yes"/>
      <point x="405" y="635.333"/>
      <point x="396.333" y="623.333"/>
      <point x="371.667" y="608" type="curve" smooth="yes"/>
      <point x="221.667" y="514" type="line"/>
    </contour>
  </outline>
</glyph>
<glyph name="gravecomb" format="2">
  <unicode hex="0300"/>
  <outline>
    <contour>
      <point x="-409.333" y="654.378" type="curve" smooth="yes"/>
      <point x="-409.333" y="675"/>
      <point x="-394.333" y="689.667"/>
      <point x="-371.667" y="689.667" type="curve" smooth="yes"/>
      <point x="-355.333" y="689.667"/>
      <point x="-342.443" y="683.238"/>
      <point x="-325" y="665" type="curve" smooth="yes"/>
      <point x="-181.333" y="514" type="line"/>
      <point x="-226.667" y="514" type="line"/>
      <point x="-376.667" y="608" type="line" smooth="yes"/>
      <point x="-398.333" y="622"/>
      <point x="-409.333" y="636.667"/>
    </contour>
  </outline>
</glyph>
<glyph name="circumflexcomb" format="2">
  <unicode hex="0302"/>
  <outline>
    <contour>
      <point x="-418" y="514" type="line"/>
      <point x="-294.667" y="684" type="line"/>
      <point x="-222.667" y="684" type="line"/>
      <point x="-98.3333" y="514" type="line"/>
      <point x="-140" y="514" type="line"/>
      <point x="-258.667" y="615.333" type="line"/>
      <point x="-376.667" y="514" type="line"/>
    </contour>
  </outline>
</glyph>
<glyph name="dotabovecomb" format="2">
  <unicode hex="0307"/>
  <outline>
    <contour>
      <point x="-311.667" y="583" type="curve" smooth="yes"/>
      <point x="-311.667" y="611.333"/>
      <point x="-286.333" y="636.667"/>
      <point x="-258.667" y="636.667" type="curve" smooth="yes"/>
      <point x="-228" y="636.667"/>
      <point x="-202.667" y="611.333"/>
      <point x="-202.667" y="581.333" type="curve" smooth="yes"/>
      <point x="-202.667" y="551.667"/>
      <point x="-227.667" y="527.667"/>
      <point x="-258.667" y="527.667" type="curve" smooth="yes"/>
      <point x="-288.333" y="527.667"/>
      <point x="-311.667" y="552"/>
    </contour>
  </outline>
</glyph>
<glyph name="hookabovecomb" format="2">
  <unicode hex="0309"/>
  <outline>
    <contour>
      <point x="-360.667" y="654.098" type="curve" smooth="yes"/>
      <point x="-360.667" y="690.667"/>
      <point x="-318.667" y="715.667"/>
      <point x="-255.805" y="715.667" type="curve" smooth="yes"/>
      <point x="-179.333" y="715.667"/>
      <point x="-154.333" y="678.667"/>
      <point x="-154.333" y="645.93" type="curve" smooth="yes"/>
      <point x="-154.333" y="615.798"/>
      <point x="-175.14" y="602.153"/>
      <point x="-197.482" y="587.38" type="curve" smooth="yes"/>
      <point x="-221.505" y="571.476"/>
      <point x="-251" y="544.856"/>
      <point x="-251" y="514" type="curve"/>
      <point x="-277" y="514" type="line"/>
      <point x="-277.048" y="557.091"/>
      <point x="-260.049" y="578.236"/>
      <point x="-244.873" y="597.156" type="curve" smooth="yes"/>
      <point x="-231.913" y="613.328"/>
      <point x="-221.333" y="627.314"/>
      <point x="-221.333" y="648.648" type="curve" smooth="yes"/>
      <point x="-221.333" y="675"/>
      <point x="-237.333" y="689"/>
      <point x="-271.098" y="689" type="curve" smooth="yes"/>
      <point x="-288.44" y="689"/>
      <point x="-300.41" y="684.804"/>
      <point x="-310.667" y="674.667" type="curve"/>
      <point x="-301.559" y="668.038"/>
      <point x="-294.333" y="654.333"/>
      <point x="-294.333" y="642.352" type="curve" smooth="yes"/>
      <point x="-294.333" y="629"/>
      <point x="-303.333" y="620.333"/>
      <point x="-322.755" y="620.333" type="curve" smooth="yes"/>
      <point x="-346.667" y="620.333"/>
      <point x="-360.667" y="633"/>
    </contour>
  </outline>
</glyph>
<glyph name="ringcomb" format="2">
  <unicode hex="030A"/>
  <outline>
    <contour>
      <point x="-360" y="623" type="curve" smooth="yes"/>
      <point x="-360" y="677.667"/>
      <point x="-313.667" y="724"/>
      <point x="-258.333" y="724" type="curve" smooth="yes"/>
      <point x="-202.333" y="724"/>
      <point x="-156.333" y="677.667"/>
      <point x="-156.333" y="621.667" type="curve" smooth="yes"/>
      <point x="-156.333" y="565.333"/>
      <point x="-202.333" y="520.333"/>
      <point x="-258.667" y="520.333" type="curve" smooth="yes"/>
      <point x="-315.667" y="520.333"/>
      <point x="-360" y="565.667"/>
    </contour>
    <contour>
      <point x="-321.333" y="622.333" type="curve" smooth="yes"/>
      <point x="-321.333" y="587.667"/>
      <point x="-293.333" y="559"/>
      <point x="-259.667" y="559" type="curve" smooth="yes"/>
      <point x="-224" y="559"/>
      <point x="-195" y="587"/>
      <point x="-195" y="621.333" type="curve" smooth="yes"/>
      <point x="-195" y="656"/>
      <point x="-224" y="685.333"/>
      <point x="-258" y="685.333" type="curve" smooth="yes"/>
      <point x="-292.333" y="685.333"/>
      <point x="-321.333" y="656.667"/>
    </contour>
  </outline>
</glyph>
<glyph name="doubleacutecomb" format="2">
  <unicode hex="030B"/>
  <outline>
    <contour>
      <point x="-419" y="514" type="line"/>
      <point x="-275.333" y="665" type="line" smooth="yes"/>
      <point x="-257.667" y="683.333"/>
      <point x="-246" y="689.667"/>
      <point x="-229.667" y="689.667" type="curve" smooth="yes"/>
      <point x="-205.333" y="689.667"/>
      <point x="-190.333" y="675.667"/>
      <point x="-190.333" y="653.667" type="curve" smooth="yes"/>
      <point x="-190.333" y="635.333"/>
      <point x="-199" y="623.333"/>
      <point x="-223.667" y="608" type="curve" smooth="yes"/>
      <point x="-373.667" y="514" type="line"/>
    </contour>
    <contour>
      <point x="-248.333" y="514" type="line"/>
      <point x="-104.667" y="665" type="line" smooth="yes"/>
      <point x="-87" y="683.333"/>
      <point x="-75.3333" y="689.667"/>
      <point x="-59" y="689.667" type="curve" smooth="yes"/>
      <point x="-34.6667" y="689.667"/>
      <point x="-19.6667" y="675.667"/>
      <point x="-19.6667" y="653.667" type="curve" smooth="yes"/>
      <point x="-19.6667" y="635.333"/>
      <point x="-28.3333" y="623.333"/>
      <point x="-53" y="608" type="curve" smooth="yes"/>
      <point x="-203" y="514" type="line"/>
    </contour>
  </outline>
</glyph>
<glyph name="caroncomb" format="2">
  <unicode hex="030C"/>
  <outline>
    <contour>
      <point x="-418" y="684" type="line"/>
      <point x="-376.667" y="684" type="line"/>
      <point x="-258.667" y="582.333" type="line"/>
      <point x="-140" y="684" type="line"/>
      <point x="-98.3333" y="684" type="line"/>
      <point x="-222.667" y="514" type="line"/>
      <point x="-294.667" y="514" type="line"/>
    </contour>
  </outline>
</glyph>
<glyph name="doublegravecomb" format="2">
  <unicode hex="030F"/>
  <outline>
    <contour>
      <point x="-502.333" y="653.667" type="curve" smooth="yes"/>
      <point x="-502.333" y="675.667"/>
      <point x="-487.333" y="689.667"/>
      <point x="-463" y="689.667" type="curve" smooth="yes"/>
      <point x="-446.667" y="689.667"/>
      <point x="-435" y="683.333"/>
      <point x="-417.333" y="665" type="curve" smooth="yes"/>
      <point x="-273.667" y="514" type="line"/>
      <point x="-319" y="514" type="line"/>
      <point x="-469" y="608" type="line" smooth="yes"/>
      <point x="-493.667" y="623.333"/>
      <point x="-502.333" y="635.333"/>
    </contour>
    <contour>
      <point x="-331.667" y="653.667" type="curve" smooth="yes"/>
      <point x="-331.667" y="675.667"/>
      <point x="-316.667" y="689.667"/>
      <point x="-292.333" y="689.667" type="curve" smooth="yes"/>
      <point x="-276" y="689.667"/>
      <point x="-264.333" y="683.333"/>
      <point x="-246.667" y="665" type="curve" smooth="yes"/>
      <point x="-103" y="514" type="line"/>
      <point x="-148.333" y="514" type="line"/>
      <point x="-298.333" y="608" type="line" smooth="yes"/>
      <point x="-323" y="623.333"/>
      <point x="-331.667" y="635.333"/>
    </contour>
  </outline>
</glyph>
<glyph name="turnedcommacomb" format="2">
  <unicode hex="0312"/>
  <outline>
    <contour>
      <point x="-332.667" y="608.333" type="curve" smooth="yes"/>
      <point x="-332.667" y="676.333"/>
      <point x="-289.667" y="724.667"/>
      <point x="-208.333" y="761" type="curve"/>
      <point x="-199" y="742" type="line"/>
      <point x="-258.333" y="711.333"/>
      <point x="-286.333" y="679.667"/>
      <point x="-286.333" y="646.667" type="curve" smooth="yes"/>
      <point x="-286.333" y="638"/>
      <point x="-279.667" y="631"/>
      <point x="-271.333" y="631" type="curve"/>
      <point x="-270.268" y="631"/>
      <point x="-268.544" y="630.945"/>
      <point x="-262.72" y="632.421" type="curve"/>
      <point x="-257.526" y="633.319"/>
      <point x="-254.015" y="634.333"/>
      <point x="-247.333" y="634.333" type="curve" smooth="yes"/>
      <point x="-211.667" y="634.333"/>
      <point x="-185.667" y="612.333"/>
      <point x="-185.667" y="576.667" type="curve" smooth="yes"/>
      <point x="-185.667" y="539.667"/>
      <point x="-213" y="514"/>
      <point x="-250" y="514" type="curve" smooth="yes"/>
      <point x="-298" y="514"/>
      <point x="-332.667" y="554"/>
    </contour>
  </outline>
</glyph>
<glyph name="acutebelowcomb" format="2">
  <unicode hex="0317"/>
  <outline>
    <contour>
      <point x="-409.333" y="-81" type="curve" smooth="yes"/>
      <point x="-409.333" y="-60"/>
      <point x="-393.667" y="-45.3333"/>
      <point x="-371" y="-45.3333" type="curve" smooth="yes"/>
      <point x="-354.667" y="-45.3333"/>
      <point x="-342.333" y="-52"/>
      <point x="-325" y="-70" type="curve" smooth="yes"/>
      <point x="-181.333" y="-221" type="line"/>
      <point x="-226.667" y="-221" type="line"/>
      <point x="-376.667" y="-127" type="line" smooth="yes"/>
      <point x="-398.333" y="-113"/>
      <point x="-409.333" y="-98.3333"/>
    </contour>
  </outline>
</glyph>
<glyph name="uni0325" format="2">
  <unicode hex="0325"/>
  <outline>
    <contour>
      <point x="-360" y="-146.333" type="curve" smooth="yes"/>
      <point x="-360" y="-91.6667"/>
      <point x="-313.667" y="-45.3333"/>
      <point x="-258.333" y="-45.3333" type="curve" smooth="yes"/>
      <point x="-202.333" y="-45.3333"/>
      <point x="-156.333" y="-91.6667"/>
      <point x="-156.333" y="-147.667" type="curve" smooth="yes"/>
      <point x="-156.333" y="-204"/>
      <point x="-202.333" y="-249"/>
      <point x="-258.667" y="-249" type="curve" smooth="yes"/>
      <point x="-315.667" y="-249"/>
      <point x="-360" y="-203.667"/>
    </contour>
    <contour>
      <point x="-321.333" y="-147" type="curve" smooth="yes"/>
      <point x="-321.333" y="-181.667"/>
      <point x="-293.333" y="-210.333"/>
      <point x="-259.667" y="-210.333" type="curve" smooth="yes"/>
      <point x="-224" y="-210.333"/>
      <point x="-195" y="-182.333"/>
      <point x="-195" y="-148" type="curve" smooth="yes"/>
      <point x="-195" y="-113.333"/>
      <point x="-224" y="-84"/>
      <point x="-258" y="-84" type="curve" smooth="yes"/>
      <point x="-292.333" y="-84"/>
      <point x="-321.333" y="-112.667"/>
    </contour>
  </outline>
</glyph>
<glyph name="uni0327" format="2">
  <unicode hex="0327"/>
  <outline>
    <contour>
      <point x="-365.667" y="-199.333" type="curve"/>
      <point x="-351" y="-166.333" type="line"/>
      <point x="-325.093" y="-176.08"/>
      <point x="-309.5" y="-179"/>
      <point x="-292.7" y="-179" type="curve" smooth="yes"/>
      <point x="-253" y="-179"/>
      <point x="-232" y="-162.667"/>
      <point x="-232" y="-134.851" type="curve" smooth="yes"/>
      <point x="-232" y="-111.333"/>
      <point x="-247.667" y="-100"/>
      <point x="-282.667" y="-100" type="curve" smooth="yes"/>
      <point x="-293" y="-100"/>
      <point x="-301.667" y="-101"/>
      <point x="-310.667" y="-104" type="curve"/>
      <point x="-319" y="-98" type="line"/>
      <point x="-270.95" y="10.0662" type="line"/>
      <point x="-233" y="10" type="line"/>
      <point x="-266" y="-64.6667" type="line"/>
      <point x="-255.333" y="-62"/>
      <point x="-248.667" y="-61"/>
      <point x="-238.284" y="-61" type="curve" smooth="yes"/>
      <point x="-183.333" y="-61"/>
      <point x="-151" y="-87"/>
      <point x="-151" y="-130.333" type="curve" smooth="yes"/>
      <point x="-151" y="-183.333"/>
      <point x="-199.667" y="-216"/>
      <point x="-280.578" y="-216" type="curve" smooth="yes"/>
      <point x="-310" y="-216"/>
      <point x="-334.333" y="-211.667"/>
    </contour>
  </outline>
</glyph>
<glyph name="uni0328" format="2">
  <unicode hex="0328"/>
  <outline>
    <contour>
      <point x="-358" y="-89.1958" type="curve" smooth="yes"/>
      <point x="-358" y="-58.6667"/>
      <point x="-342.431" y="-30.6887"/>
      <point x="-301.333" y="0.666667" type="curve" smooth="yes"/>
      <point x="-282.765" y="14.6667" type="line"/>
      <point x="-233.931" y="14.6667" type="line"/>
      <point x="-252" y="0" type="line" smooth="yes"/>
      <point x="-277.556" y="-20.4907"/>
      <point x="-292.667" y="-43"/>
      <point x="-292.667" y="-67.0841" type="curve" smooth="yes"/>
      <point x="-292.667" y="-90.7143"/>
      <point x="-276.222" y="-107.333"/>
      <point x="-249.315" y="-107.333" type="curve" smooth="yes"/>
      <point x="-228.333" y="-107.333"/>
      <point x="-207.032" y="-98.9463"/>
      <point x="-179" y="-76.6667" type="curve"/>
      <point x="-158.333" y="-92" type="line"/>
      <point x="-191.333" y="-142.667"/>
      <point x="-230" y="-167.667"/>
      <point x="-275.098" y="-167.667" type="curve" smooth="yes"/>
      <point x="-321.667" y="-167.667"/>
      <point x="-358" y="-134.333"/>
    </contour>
  </outline>
</glyph>
<glyph name="uni032F" format="2">
  <unicode hex="032F"/>
  <outline>
    <contour>
      <point x="-398.333" y="-201.333" type="line"/>
      <point x="-398" y="-89.3333"/>
      <point x="-327.667" y="-46.3333"/>
      <point x="-258" y="-46.3333" type="curve" smooth="yes"/>
      <point x="-188.333" y="-46.3333"/>
      <point x="-120" y="-90.3333"/>
      <point x="-118" y="-201.333" type="curve"/>
      <point x="-151.333" y="-201.333" type="line"/>
      <point x="-162.667" y="-142.333"/>
      <point x="-197.333" y="-110.333"/>
      <point x="-257.667" y="-110.333" type="curve" smooth="yes"/>
      <point x="-317.667" y="-110.333"/>
      <point x="-355" y="-141.667"/>
      <point x="-365" y="-201.333" type="curve"/>
    </contour>
  </outline>
</glyph>
<glyph name="uni0330" format="2">
  <unicode hex="0330"/>
  <outline>
    <contour>
      <point x="-429.333" y="-157.667" type="line"/>
      <point x="-413.333" y="-85.6667"/>
      <point x="-377.333" y="-48.6667"/>
      <point x="-323.333" y="-48.6667" type="curve" smooth="yes"/>
      <point x="-301.667" y="-48.6667"/>
      <point x="-277" y="-54.6667"/>
      <point x="-252.333" y="-67" type="curve" smooth="yes"/>
      <point x="-223" y="-81" type="line" smooth="yes"/>
      <point x="-202.333" y="-90.6667"/>
      <point x="-188.333" y="-95"/>
      <point x="-174.667" y="-95" type="curve" smooth="yes"/>
      <point x="-150.333" y="-95"/>
      <point x="-137" y="-82.6667"/>
      <point x="-121.333" y="-45.3333" type="curve"/>
      <point x="-87.6667" y="-45.3333" type="line"/>
      <point x="-109.333" y="-125"/>
      <point x="-141" y="-158.333"/>
      <point x="-196.667" y="-158.333" type="curve" smooth="yes"/>
      <point x="-220" y="-158.333"/>
      <point x="-238.333" y="-153.667"/>
      <point x="-272" y="-137.667" type="curve" smooth="yes"/>
      <point x="-297" y="-126" type="line" smooth="yes"/>
      <point x="-321.333" y="-115"/>
      <point x="-333.333" y="-111.333"/>
      <point x="-345.667" y="-111.333" type="curve" smooth="yes"/>
      <point x="-369.667" y="-111.333"/>
      <point x="-387.333" y="-127.667"/>
      <point x="-396" y="-157.667" type="curve"/>
    </contour>
  </outline>
</glyph>
<glyph name="uni0331" format="2">
  <unicode hex="0331"/>
  <outline>
    <contour>
      <point x="-417" y="-77.6667" type="line"/>
      <point x="-99.6667" y="-77.6667" type="line"/>
      <point x="-99.6667" y="-137.667" type="line"/>
      <point x="-417" y="-137.667" type="line"/>
    </contour>
  </outline>
</glyph>
<glyph name="uni033E" format="2">
  <unicode hex="033E"/>
  <outline>
    <contour>
      <point x="-313" y="524.667" type="curve"/>
      <point x="-293.321" y="535.771"/>
      <point x="-283" y="559.303"/>
      <point x="-283" y="572.691" type="curve"/>
      <point x="-277.333" y="584.333"/>
      <point x="-273.771" y="599.02"/>
      <point x="-279.153" y="613.749" type="curve"/>
      <point x="-279.861" y="617.332"/>
      <point x="-284.929" y="625.069"/>
      <point x="-289.318" y="632.274" type="curve"/>
      <point x="-302.178" y="648.73"/>
      <point x="-310.076" y="660.753"/>
      <point x="-311" y="674.269" type="curve" smooth="yes"/>
      <point x="-312.472" y="702.104"/>
      <point x="-297" y="731.333"/>
      <point x="-247" y="752.913" type="curve"/>
      <point x="-247" y="772.331"/>
      <point x="-217" y="769.773"/>
      <point x="-205.333" y="770.667" type="curve"/>
      <point x="-230.088" y="756.419"/>
      <point x="-234.667" y="735.867"/>
      <point x="-234.667" y="724.352" type="curve"/>
      <point x="-240.667" y="715"/>
      <point x="-246.766" y="702.359"/>
      <point x="-241.811" y="687.917" type="curve"/>
      <point x="-241.013" y="682.407"/>
      <point x="-233.302" y="669.992"/>
      <point x="-228" y="661.444" type="curve"/>
      <point x="-219.246" y="649.576"/>
      <point x="-204.668" y="628.58"/>
      <point x="-204" y="614.812" type="curve"/>
      <point x="-201.667" y="589.333"/>
      <point x="-232" y="563.667"/>
      <point x="-270" y="544.802" type="curve"/>
      <point x="-270.127" y="524.365"/>
      <point x="-301.266" y="525.924"/>
    </contour>
  </outline>
</glyph>
<glyph name="uni0345" format="2">
  <unicode hex="0345"/>
  <outline>
    <contour>
      <point x="-342.333" y="-53.3333" type="line"/>
      <point x="-261.667" y="-53.3333" type="line"/>
      <point x="-261.782" y="-131.712" type="line"/>
      <point x="-261.782" y="-158.837"/>
      <point x="-258.211" y="-182"/>
      <point x="-238.667" y="-182" type="curve" smooth="yes"/>
      <point x="-206.957" y="-182"/>
      <point x="-206" y="-151.562"/>
      <point x="-206" y="-135" type="curve"/>
      <point x="-179.667" y="-135" type="line"/>
      <point x="-179.667" y="-191.667"/>
      <point x="-205.667" y="-216"/>
      <point x="-257.667" y="-216" type="curve" smooth="yes"/>
      <point x="-308.333" y="-216"/>
      <point x="-342.333" y="-185.667"/>
      <point x="-342.333" y="-141.333" type="curve" smooth="yes"/>
    </contour>
  </outline>
</glyph>
<glyph name="uni0374" format="2">
  <advance width="203"/>
  <unicode hex="0374"/>
  <outline>
    <contour>
      <point x="8.33333" y="476.667" type="line"/>
      <point x="73.3333" y="649.667" type="line" smooth="yes"/>
      <point x="82.25" y="673.528"/>
      <point x="103.588" y="689"/>
      <point x="127.261" y="689" type="curve" smooth="yes"/>
      <point x="150.686" y="689"/>
      <point x="165.667" y="673.333"/>
      <point x="165.667" y="648.667" type="curve" smooth="yes"/>
      <point x="165.667" y="633.925"/>
      <point x="160.063" y="621.773"/>
      <point x="145" y="603.667" type="curve" smooth="yes"/>
      <point x="29.6667" y="464" type="line"/>
    </contour>
  </outline>
</glyph>
<glyph name="Xi" format="2">
  <advance width="635"/>
  <unicode hex="039E"/>
  <outline>
    <contour>
      <point x="60" y="0" type="line"/>
      <point x="60" y="196.069" type="line"/>
      <point x="78" y="196.069" type="line"/>
      <point x="78" y="141.456"/>
      <point x="101.652" y="107.667"/>
      <point x="159.617" y="107.667" type="curve" smooth="yes"/>
      <point x="489.714" y="107.667" type="line" smooth="yes"/>
      <point x="538.013" y="107.667"/>
      <point x="561" y="151.031"/>
      <point x="561" y="194.749" type="curve"/>
      <point x="578.333" y="194.749" type="line"/>
      <point x="578.333" y="0" type="line"/>
    </contour>
    <contour>
      <point x="60" y="471.667" type="line"/>
      <point x="60" y="665.667" type="line"/>
      <point x="578.333" y="665.667" type="line"/>
      <point x="578.333" y="471.667" type="line"/>
      <point x="561" y="471.667" type="line"/>
      <point x="561" y="527.333"/>
      <point x="540.347" y="560.667"/>
      <point x="481.048" y="560.667" type="curve" smooth="yes"/>
      <point x="157.617" y="560.667" type="line" smooth="yes"/>
      <point x="93.985" y="560.667"/>
      <point x="83.3333" y="527.333"/>
      <point x="78" y="471.667" type="curve"/>
    </contour>
    <contour>
      <point x="162.281" y="218.767" type="line"/>
      <point x="162.281" y="447.333" type="line"/>
      <point x="179.265" y="447.333" type="line"/>
      <point x="179.265" y="411.667"/>
      <point x="197.922" y="385.333"/>
      <point x="235.564" y="385.333" type="curve" smooth="yes"/>
      <point x="405.77" y="385.333" type="line" smooth="yes"/>
      <point x="437.306" y="385.333"/>
      <point x="461.977" y="414.608"/>
      <point x="462.069" y="447.333" type="curve"/>
      <point x="479.053" y="447.333" type="line"/>
      <point x="479.053" y="218.767" type="line"/>
      <point x="462.069" y="218.767" type="line"/>
      <point x="462.069" y="254.184"/>
      <point x="444.747" y="283.333"/>
      <point x="405.77" y="283.333" type="curve" smooth="yes"/>
      <point x="235.564" y="283.333" type="line" smooth="yes"/>
      <point x="196.935" y="283.333"/>
      <point x="179.265" y="253.707"/>
      <point x="179.265" y="218.767" type="curve"/>
    </contour>
  </outline>
</glyph>
<glyph name="Phi" format="2">
  <advance width="765"/>
  <unicode hex="03A6"/>
  <outline>
    <contour>
      <point x="24.6667" y="341.333" type="curve" smooth="yes"/>
      <point x="24.6667" y="492"/>
      <point x="180.667" y="559.667"/>
      <point x="310.667" y="559.667" type="curve"/>
      <point x="313.342" y="560.14"/>
      <point x="315.347" y="560.61"/>
      <point x="318.014" y="560.41" type="curve"/>
      <point x="318.014" y="616.819"/>
      <point x="294.956" y="647.673"/>
      <point x="238.055" y="647.673" type="curve"/>
      <point x="236.496" y="647.673"/>
      <point x="230.921" y="647.671"/>
      <point x="229.333" y="647.667" type="curve"/>
      <point x="229.333" y="665.667" type="line"/>
      <point x="534.667" y="665.667" type="line"/>
      <point x="534.667" y="647.667" type="line"/>
      <point x="531.753" y="648.338"/>
      <point x="528.175" y="649.006"/>
      <point x="525.266" y="649.006" type="curve" smooth="yes"/>
      <point x="460.512" y="649.006"/>
      <point x="445.948" y="617.414"/>
      <point x="441.948" y="561.62" type="curve"/>
      <point x="444.615" y="561.425"/>
      <point x="447.966" y="560.552"/>
      <point x="450.667" y="559.667" type="curve"/>
      <point x="580.667" y="559.667"/>
      <point x="739.333" y="495.667"/>
      <point x="739.333" y="345.333" type="curve" smooth="yes"/>
      <point x="739.333" y="189.175"/>
      <point x="596.748" y="117"/>
      <point x="457.333" y="114.667" type="curve"/>
      <point x="452" y="114.09"/>
      <point x="446.667" y="112.51"/>
      <point x="442" y="112.667" type="curve"/>
      <point x="441.989" y="110.765"/>
      <point x="441.983" y="105.227"/>
      <point x="441.983" y="103.384" type="curve"/>
      <point x="441.983" y="50.2357"/>
      <point x="467.258" y="17.6591"/>
      <point x="522.025" y="17.6591" type="curve"/>
      <point x="523.334" y="17.6591"/>
      <point x="527.66" y="17.6616"/>
      <point x="529" y="17.6667" type="curve"/>
      <point x="529" y="0" type="line"/>
      <point x="229.667" y="0" type="line"/>
      <point x="229.667" y="17.6667" type="line"/>
      <point x="230.895" y="17.5492"/>
      <point x="234.775" y="17.1022"/>
      <point x="235.975" y="16.9924" type="curve"/>
      <point x="298.742" y="16.9924"/>
      <point x="318.684" y="50.9024"/>
      <point x="318.684" y="107.384" type="curve"/>
      <point x="318.575" y="108.571"/>
      <point x="318.124" y="111.442"/>
      <point x="318" y="112.667" type="curve"/>
      <point x="314.667" y="112.604"/>
      <point x="312" y="114.741"/>
      <point x="308.667" y="115.333" type="curve"/>
      <point x="169.667" y="117.667"/>
      <point x="24.6667" y="183.667"/>
    </contour>
    <contour>
      <point x="152" y="338" type="curve" smooth="yes"/>
      <point x="152" y="228.667"/>
      <point x="197.667" y="143.333"/>
      <point x="317.333" y="143.333" type="curve"/>
      <point x="317.333" y="528.667" type="line"/>
      <point x="202.667" y="528.667"/>
      <point x="152" y="444.667"/>
    </contour>
    <contour>
      <point x="441.333" y="143.333" type="line"/>
      <point x="557.333" y="143.333"/>
      <point x="609.333" y="228.667"/>
      <point x="609.333" y="336.667" type="curve" smooth="yes"/>
      <point x="609.333" y="440.667"/>
      <point x="552.667" y="528.667"/>
      <point x="441.333" y="528.667" type="curve"/>
    </contour>
  </outline>
</glyph>
<glyph name="beta" format="2">
  <advance width="541"/>
  <unicode hex="03B2"/>
  <outline>
    <contour>
      <point x="58.3333" y="-218" type="line"/>
      <point x="58.3333" y="410.667" type="line" smooth="yes"/>
      <point x="58.3333" y="549.333"/>
      <point x="102" y="712.333"/>
      <point x="271.52" y="712.333" type="curve" smooth="yes"/>
      <point x="373.333" y="712.333"/>
      <point x="454" y="661.667"/>
      <point x="454" y="564.18" type="curve" smooth="yes"/>
      <point x="454" y="473.333"/>
      <point x="384.333" y="430"/>
      <point x="307.333" y="406" type="curve"/>
      <point x="307.333" y="404" type="line"/>
      <point x="412" y="392.667"/>
      <point x="501.667" y="328"/>
      <point x="501.667" y="201.697" type="curve" smooth="yes"/>
      <point x="501.667" y="83.6667"/>
      <point x="434.667" y="-11"/>
      <point x="321.265" y="-11" type="curve" smooth="yes"/>
      <point x="255.333" y="-11"/>
      <point x="195" y="21"/>
      <point x="180" y="83.6667" type="curve"/>
      <point x="210.333" y="83.6667" type="line"/>
      <point x="218.667" y="45.3333"/>
      <point x="260" y="20.3333"/>
      <point x="297.477" y="20.3333" type="curve" smooth="yes"/>
      <point x="369.333" y="20.3333"/>
      <point x="391.333" y="114"/>
      <point x="391.333" y="196.079" type="curve" smooth="yes"/>
      <point x="391.333" y="267"/>
      <point x="370" y="386.667"/>
      <point x="292.706" y="386.667" type="curve" smooth="yes"/>
      <point x="279.534" y="386.667"/>
      <point x="268.338" y="383.073"/>
      <point x="251.375" y="376.871" type="curve" smooth="yes"/>
      <point x="244.799" y="374.416"/>
      <point x="237.999" y="372.333"/>
      <point x="230.901" y="372.333" type="curve" smooth="yes"/>
      <point x="213" y="372.333"/>
      <point x="204.333" y="386.667"/>
      <point x="204.333" y="402.32" type="curve" smooth="yes"/>
      <point x="204.333" y="421"/>
      <point x="217.333" y="434.333"/>
      <point x="234.836" y="434.333" type="curve" smooth="yes"/>
      <point x="241.752" y="434.333"/>
      <point x="249.107" y="432.174"/>
      <point x="256.466" y="428.99" type="curve"/>
      <point x="267.448" y="424.672"/>
      <point x="278.516" y="419.333"/>
      <point x="290.556" y="419.333" type="curve" smooth="yes"/>
      <point x="342.667" y="419.333"/>
      <point x="356.667" y="515.333"/>
      <point x="356.667" y="558.446" type="curve" smooth="yes"/>
      <point x="356.667" y="611.667"/>
      <point x="332.333" y="683.333"/>
      <point x="260.909" y="683.333" type="curve" smooth="yes"/>
      <point x="167.667" y="683.333"/>
      <point x="160.667" y="560.667"/>
      <point x="160.667" y="491.333" type="curve" smooth="yes"/>
      <point x="160.667" y="-218" type="line"/>
    </contour>
  </outline>
</glyph>
<glyph name="nu" format="2">
  <advance width="485"/>
  <unicode hex="03BD"/>
  <outline>
    <contour>
      <point x="13" y="327.333" type="line"/>
      <point x="13.3333" y="354.239"/>
      <point x="24" y="389.399"/>
      <point x="52.6667" y="392" type="curve"/>
      <point x="71.6667" y="433.333"/>
      <point x="94.3333" y="451.333"/>
      <point x="147" y="435.333" type="curve"/>
      <point x="184.037" y="419.94"/>
      <point x="213.369" y="357.632"/>
      <point x="228.667" y="316" type="curve"/>
      <point x="244.906" y="303.909"/>
      <point x="304.475" y="191.29"/>
      <point x="314" y="180.667" type="curve"/>
      <point x="339.333" y="242"/>
      <point x="359.667" y="307"/>
      <point x="359.667" y="375.667" type="curve" smooth="yes"/>
      <point x="359.667" y="395.333"/>
      <point x="367.333" y="412"/>
      <point x="376" y="422" type="curve"/>
      <point x="387.333" y="445.333"/>
      <point x="402.667" y="460"/>
      <point x="429.333" y="448" type="curve"/>
      <point x="448" y="426"/>
      <point x="396.333" y="318"/>
      <point x="391.667" y="273.667" type="curve"/>
      <point x="391.099" y="243"/>
      <point x="276.618" y="43"/>
      <point x="255.667" y="-4.33333" type="curve"/>
      <point x="248.895" y="10"/>
      <point x="230.144" y="23.3333"/>
      <point x="221.667" y="37.3333" type="curve"/>
      <point x="102.667" y="365.333" type="line" smooth="yes"/>
      <point x="97" y="380"/>
      <point x="88.3333" y="402.667"/>
      <point x="69.6667" y="402.667" type="curve" smooth="yes"/>
      <point x="40" y="402.667"/>
      <point x="39" y="347.667"/>
      <point x="38.6667" y="327.333" type="curve"/>
    </contour>
  </outline>
</glyph>
